{"glyphs":{"0":{"ha":779,"x_min":0,"x_max":0,"o":"m 713 931 b 606 1046 681 999 650 1032 b 460 1015 558 1061 524 1054 b 254 772 421 990 297 844 b 149 561 213 701 172 621 b 81 300 119 483 86 357 b 65 225 79 281 72 246 b 40 -169 25 92 14 -69 b 172 -315 63 -258 69 -267 b 215 -335 190 -324 210 -333 b 338 -289 246 -343 344 -307 b 339 -283 336 -283 336 -282 b 504 -97 356 -293 439 -200 b 581 39 526 -64 561 -1 b 624 131 600 81 619 122 b 681 274 635 150 676 260 b 699 332 681 279 689 306 b 717 394 707 360 715 388 b 732 457 718 401 725 429 b 763 767 760 569 765 619 b 713 931 763 796 738 879 z m 692 764 b 686 707 690 747 688 722 b 589 335 674 607 633 450 b 371 -58 538 199 436 15 b 342 -94 361 -71 347 -87 b 228 -185 322 -119 268 -162 b 138 -200 185 -210 143 -217 b 154 56 125 -167 136 -7 b 163 92 158 69 163 86 b 260 371 167 121 239 332 b 296 447 263 376 278 411 b 357 567 313 482 340 536 b 397 639 374 597 392 631 b 413 663 401 647 408 658 b 431 693 415 667 424 681 b 447 717 438 707 444 717 b 453 725 450 717 453 721 b 468 754 453 729 460 742 b 479 783 478 767 482 779 b 482 788 478 788 478 789 b 528 842 488 783 521 821 b 526 861 531 847 529 856 b 544 900 517 878 521 885 b 632 933 575 919 604 931 b 665 913 651 935 656 933 b 692 764 682 879 696 799 z "},"1":{"ha":728,"x_min":0,"x_max":0,"o":"m 26 -278 b 56 -274 33 -275 47 -274 b 74 -268 63 -272 71 -269 b 154 -242 76 -262 121 -249 b 175 -235 163 -240 171 -237 b 189 -229 178 -233 185 -231 b 206 -226 192 -229 200 -228 b 226 -222 211 -225 221 -224 b 233 -215 233 -222 236 -219 b 235 -212 231 -211 232 -211 b 321 -183 242 -217 300 -197 b 353 -172 328 -181 342 -175 b 376 -160 363 -171 374 -165 b 383 -153 379 -156 382 -151 b 424 -136 388 -156 424 -142 b 371 -117 424 -119 411 -115 b 178 -137 303 -118 203 -128 b 156 -131 156 -144 156 -144 b 161 -117 157 -124 158 -117 b 192 -43 165 -117 190 -57 b 197 -33 192 -36 194 -32 b 203 -29 200 -35 201 -33 b 211 0 203 -21 204 -17 b 368 401 247 86 325 283 b 393 465 375 421 388 450 b 471 665 407 497 454 618 b 494 726 476 681 488 708 b 550 903 519 794 546 878 b 513 1036 556 946 533 1021 b 450 993 500 1044 497 1042 b 264 778 389 929 279 803 b 267 708 244 746 246 728 l 285 692 l 322 728 b 356 768 343 747 358 765 b 361 772 354 771 357 772 b 367 778 365 771 368 774 b 372 785 367 782 368 785 b 413 821 375 785 394 801 b 447 854 432 840 447 856 b 396 721 447 850 419 775 b 351 613 383 690 363 640 b 324 547 339 583 328 554 b 200 222 319 538 288 453 b 85 -112 126 26 101 -46 l 71 -162 l 39 -169 b -15 -186 19 -174 -4 -182 b -39 -196 -26 -192 -37 -196 b -86 -218 -40 -196 -61 -206 b -128 -308 -149 -247 -164 -279 b -103 -317 -111 -322 -103 -325 b -90 -311 -103 -314 -97 -311 b -62 -306 -82 -311 -69 -308 b -44 -300 -54 -303 -46 -300 b -29 -294 -43 -300 -36 -297 b -3 -285 -22 -290 -11 -286 b 26 -278 4 -283 18 -279 z "},"2":{"ha":901,"x_min":0,"x_max":0,"o":"m 406 -232 b 415 -228 404 -231 408 -228 b 561 -197 438 -226 501 -212 b 621 -182 600 -186 613 -183 b 622 -178 624 -182 624 -179 b 629 -172 621 -175 624 -172 b 686 -158 656 -169 689 -161 b 693 -153 685 -156 689 -154 b 786 -124 728 -151 783 -133 b 781 -106 788 -119 785 -111 b 644 -93 772 -94 764 -93 b 444 -104 529 -94 456 -97 b 356 -118 440 -107 404 -112 b 317 -125 344 -119 326 -122 b 290 -131 307 -126 296 -129 b 276 -133 286 -131 279 -132 b 299 -89 260 -140 269 -122 b 329 -47 317 -69 331 -50 b 333 -43 328 -44 329 -43 b 503 150 344 -44 506 139 b 513 158 503 153 507 156 b 543 190 518 160 532 175 b 572 228 554 206 567 222 b 613 278 578 233 596 256 b 653 331 629 300 647 324 b 843 631 688 372 813 571 b 886 836 881 708 888 743 b 872 943 885 907 883 922 b 794 1018 856 976 817 1013 b 774 1026 785 1019 775 1024 b 672 1022 771 1032 676 1028 b 657 1015 669 1019 663 1017 b 619 1007 643 1014 622 1010 b 614 1006 619 1007 617 1006 b 511 963 590 999 572 992 b 461 940 486 950 464 940 b 454 935 458 940 454 938 b 413 908 453 933 435 921 b 367 876 392 896 371 882 b 354 867 363 871 357 867 b 226 758 343 867 264 800 b 131 619 171 697 151 669 b 113 517 115 581 113 568 b 160 406 113 449 117 438 b 200 390 179 390 188 388 b 210 403 213 394 215 397 b 203 419 206 406 203 414 b 185 436 203 424 194 432 b 168 460 171 442 168 446 b 288 660 168 508 221 597 b 322 703 310 681 324 699 b 322 706 319 707 321 708 b 396 750 325 704 358 724 b 600 864 472 804 554 850 b 633 874 617 869 632 874 b 661 883 635 874 647 878 b 742 899 683 892 717 899 b 807 889 749 900 774 896 b 842 844 826 886 842 865 b 790 706 842 817 817 750 b 626 463 767 664 653 496 b 586 413 618 450 600 428 b 517 326 574 397 542 358 b 422 217 490 296 449 246 b 329 113 397 189 354 142 b 211 -10 303 83 250 29 b 29 -225 14 -208 32 -187 b 33 -267 26 -250 28 -261 b 63 -292 39 -271 51 -282 b 89 -311 74 -303 86 -311 b 131 -300 104 -311 132 -303 b 151 -294 129 -297 139 -294 b 192 -283 164 -293 183 -289 b 208 -281 201 -279 208 -278 b 219 -281 208 -285 213 -285 b 350 -246 231 -275 274 -262 b 381 -242 351 -246 365 -243 b 406 -232 396 -239 407 -235 z "},"3":{"ha":874,"x_min":0,"x_max":0,"o":"m 847 299 b 844 478 860 333 858 426 b 813 538 836 511 831 522 b 767 560 799 550 782 558 b 629 551 735 565 643 558 b 654 596 608 540 611 544 b 793 806 729 686 768 744 b 807 911 806 836 807 850 b 765 1038 807 992 799 1017 b 672 1044 744 1050 701 1054 b 547 986 643 1036 557 996 b 535 978 543 982 538 978 b 489 951 531 978 511 967 b 190 590 329 840 208 694 b 224 499 182 547 190 525 b 258 488 244 482 250 481 b 269 496 264 492 269 496 b 250 528 275 499 257 528 b 306 650 229 528 256 588 b 471 813 344 700 425 779 b 513 851 496 831 515 849 b 517 853 511 854 513 856 b 540 860 521 850 531 853 b 606 893 549 865 578 881 b 654 921 633 907 656 918 b 661 922 653 924 656 924 b 683 925 667 919 676 921 b 746 929 699 932 746 936 b 751 929 746 928 749 926 b 739 876 763 936 757 910 b 603 693 713 825 650 740 b 360 429 385 475 367 454 b 382 360 351 397 354 389 l 403 336 l 456 364 b 596 422 525 399 564 414 b 622 433 611 426 622 431 b 633 438 622 435 628 438 b 675 443 639 438 657 440 b 767 444 721 449 758 450 b 778 446 771 442 775 442 b 790 444 781 450 785 450 b 561 92 829 413 728 258 b 432 -29 508 38 489 19 b 360 -83 422 -37 390 -61 b 297 -126 329 -104 301 -125 b 265 -146 294 -129 281 -137 b 231 -167 251 -153 235 -162 b 217 -175 225 -171 218 -175 b 182 -189 214 -175 199 -182 b 85 -225 124 -217 110 -221 b 63 -212 60 -228 60 -228 b 115 -50 71 -162 90 -104 b 111 -7 146 11 144 29 b 14 -240 53 -72 14 -165 b 104 -329 14 -269 67 -321 b 163 -325 124 -333 126 -333 b 196 -310 186 -319 197 -315 b 203 -308 194 -304 197 -304 b 260 -290 208 -312 224 -308 b 313 -264 288 -278 311 -265 b 339 -249 314 -261 326 -254 b 365 -233 351 -242 364 -235 b 392 -215 367 -232 378 -224 b 442 -181 415 -201 418 -200 b 471 -158 449 -174 463 -164 b 558 -86 492 -144 503 -136 b 847 299 690 31 811 192 z "},"4":{"ha":735,"x_min":0,"x_max":0,"o":"m 624 390 b 639 399 626 394 633 399 b 646 406 643 399 647 401 b 649 411 644 410 646 413 b 692 431 657 410 681 419 b 713 442 699 438 707 442 b 717 456 719 442 721 446 b 649 474 711 476 704 478 l 597 471 l 611 501 b 663 610 619 519 642 567 b 697 717 694 676 699 689 b 643 704 696 776 683 774 b 522 485 607 643 540 522 b 414 425 507 456 499 451 b 111 351 221 369 111 342 b 196 492 111 356 153 424 b 453 867 267 607 425 836 b 463 882 458 872 463 879 b 471 894 463 885 467 890 b 547 1000 479 903 531 975 b 551 1093 560 1021 564 1085 b 439 986 543 1101 533 1090 b 76 497 303 833 171 654 b 28 304 36 428 14 339 b 64 258 31 297 46 276 l 94 224 l 133 224 b 206 235 156 225 188 229 b 267 251 224 239 251 247 b 418 304 293 258 390 293 b 428 303 424 307 428 307 b 392 218 428 300 411 261 b 288 -18 339 104 336 97 b 167 -343 243 -119 174 -310 b 171 -368 164 -353 167 -364 b 182 -378 174 -374 179 -378 b 224 -294 186 -378 225 -300 b 228 -290 224 -292 225 -290 b 422 93 233 -290 422 83 b 510 282 422 96 447 149 l 543 353 l 576 365 b 606 385 596 374 608 382 b 610 386 603 389 604 389 b 624 390 614 383 619 385 z "},"5":{"ha":1104,"x_min":0,"x_max":0,"o":"m 999 993 b 1014 996 1008 992 1015 993 b 1019 1001 1011 999 1014 1001 b 1044 1007 1025 1003 1036 1004 b 1074 1011 1053 1008 1065 1011 b 1089 1029 1085 1013 1089 1017 l 1090 1044 l 985 1042 b 749 1021 865 1039 842 1038 b 615 996 651 1003 651 1003 b 578 993 594 990 581 990 b 565 990 576 996 571 994 b 540 978 560 986 549 981 b 400 917 497 965 415 931 b 372 882 389 908 378 893 b 372 853 365 865 365 861 b 385 833 378 847 383 839 b 407 829 388 825 392 824 b 439 839 418 832 432 836 b 458 851 444 840 454 846 b 461 851 463 857 464 857 b 467 847 458 846 460 844 b 426 764 479 851 479 851 b 265 389 319 582 251 424 b 290 354 267 383 279 368 b 325 336 310 333 314 331 b 335 350 331 340 335 346 b 342 356 333 354 336 356 b 361 374 351 353 367 365 b 364 375 360 376 361 378 b 422 408 368 372 393 386 b 543 485 475 446 525 478 b 550 493 549 486 553 490 b 561 499 549 496 554 497 b 593 511 569 499 583 504 b 611 521 603 518 611 524 b 642 529 611 519 625 524 b 849 532 733 561 838 563 b 818 417 854 519 836 451 b 369 -93 742 264 544 42 b 186 -207 326 -125 219 -193 b 82 -235 146 -226 99 -239 b 49 -219 74 -233 58 -226 b 32 -185 35 -210 32 -203 b 26 -161 32 -172 29 -161 b 14 -214 19 -161 14 -183 b 36 -271 14 -236 18 -247 b 85 -322 58 -300 85 -328 b 93 -324 85 -321 89 -321 b 190 -319 104 -331 171 -326 b 197 -319 192 -318 194 -318 b 201 -314 200 -319 201 -317 b 214 -308 201 -311 207 -308 b 285 -271 232 -308 290 -279 b 288 -269 283 -268 285 -267 b 413 -203 299 -275 413 -215 b 428 -192 413 -201 419 -196 b 460 -171 438 -189 451 -179 b 492 -146 468 -164 483 -153 b 542 -103 500 -140 522 -121 b 907 461 768 101 896 299 b 889 622 911 514 901 600 b 835 676 881 640 854 665 b 719 679 819 683 757 685 b 583 629 689 674 610 644 b 557 617 572 622 561 617 b 536 607 554 617 544 613 b 492 579 528 600 507 588 b 431 540 475 569 447 553 b 397 519 414 526 399 518 b 538 808 393 522 492 725 b 619 883 574 876 579 881 b 632 888 624 883 629 886 b 688 904 636 890 661 897 b 853 949 783 928 801 933 b 904 969 881 958 904 967 b 913 971 904 972 908 972 b 940 976 917 969 929 972 b 972 986 950 982 965 986 b 983 990 981 986 985 989 b 999 993 982 993 989 994 z "},"6":{"ha":910,"x_min":0,"x_max":0,"o":"m 749 1061 b 665 1039 722 1061 685 1051 b 646 1028 656 1033 647 1028 b 535 946 635 1028 582 989 b 365 771 492 907 435 849 b 232 581 347 750 253 617 b 104 328 179 490 131 396 b 22 46 74 254 35 115 b 28 -174 14 -10 17 -121 b 76 -276 40 -231 51 -254 b 192 -335 99 -296 183 -340 b 197 -339 194 -333 197 -335 b 231 -343 197 -343 208 -344 b 328 -304 267 -342 335 -314 b 332 -303 326 -300 328 -300 b 343 -301 336 -304 340 -304 b 369 -282 344 -299 357 -290 b 396 -253 381 -272 393 -260 b 410 -239 400 -246 406 -239 b 533 -94 426 -239 540 -106 b 533 -93 531 -92 531 -90 b 581 -24 542 -100 586 -35 b 582 -22 578 -21 579 -19 b 615 31 590 -26 621 22 b 617 33 613 35 614 35 b 633 68 625 29 639 60 b 635 72 631 72 631 74 b 683 186 643 67 669 126 b 697 296 692 219 696 256 b 679 401 697 351 696 360 b 550 550 644 488 608 529 b 335 500 492 572 394 550 b 310 482 322 489 311 481 b 456 699 304 488 397 625 b 640 892 501 757 631 892 b 696 936 647 892 697 932 b 701 938 696 939 697 940 b 719 942 704 936 713 938 b 800 965 740 954 783 967 b 824 963 808 964 819 964 b 856 903 838 963 858 925 b 865 874 856 892 858 881 l 875 861 l 882 878 b 836 1024 896 910 871 988 b 749 1061 819 1040 769 1061 z m 458 454 b 464 451 464 456 465 456 b 454 447 461 449 457 447 b 458 454 446 447 449 450 z m 460 443 b 482 457 472 449 483 456 b 494 461 481 458 486 461 b 531 463 504 461 519 461 b 607 446 572 465 597 460 b 592 186 644 400 638 285 b 519 51 574 146 525 56 b 499 24 518 50 508 38 b 353 -142 468 -21 396 -101 b 214 -235 304 -187 256 -219 b 169 -244 199 -240 178 -244 b 115 -226 144 -243 115 -235 b 111 -210 114 -224 113 -215 b 125 18 101 -171 108 -57 b 192 200 149 125 167 176 b 238 249 200 207 221 229 b 460 443 335 357 410 422 z "},"7":{"ha":917,"x_min":0,"x_max":0,"o":"m 888 1038 b 744 1107 875 1124 865 1128 b 692 1099 724 1104 700 1100 b 621 1085 683 1097 651 1090 b 551 1069 590 1078 558 1071 b 299 1007 392 1038 340 1025 b 260 954 268 993 263 985 b 271 919 258 936 261 928 b 318 893 288 906 314 890 b 340 900 319 894 329 897 b 392 908 351 901 375 906 b 442 914 410 911 432 914 b 471 925 451 914 464 919 b 479 928 478 931 481 932 b 542 932 474 919 513 924 b 586 942 551 936 571 940 b 621 947 600 943 617 946 b 650 953 626 949 639 951 b 725 969 661 954 696 961 b 779 979 754 976 779 981 b 757 947 779 978 769 964 b 725 903 744 931 731 911 b 692 856 719 894 704 874 b 453 499 665 819 554 653 b 376 389 415 442 382 393 b 335 372 371 385 353 378 b 193 313 296 361 207 324 b 178 306 188 308 181 306 b 169 297 174 306 169 301 b 168 276 169 294 168 285 b 208 244 165 257 185 242 b 282 264 229 246 278 258 b 297 268 283 265 290 267 b 263 189 307 268 303 257 b 33 -294 174 38 60 -203 b 28 -394 15 -357 14 -385 b 46 -393 38 -401 40 -401 b 69 -364 50 -387 61 -374 b 132 -267 96 -331 135 -272 b 135 -262 129 -265 132 -262 b 139 -254 139 -262 140 -258 b 142 -249 136 -247 138 -246 b 144 -243 147 -251 147 -250 b 146 -236 143 -237 143 -235 b 182 -185 149 -237 165 -215 b 331 79 214 -131 319 58 b 401 199 335 86 367 140 b 510 321 467 307 472 314 b 547 332 518 322 535 326 b 581 340 558 336 574 340 b 592 347 586 340 592 343 b 597 349 592 350 594 351 b 635 358 600 347 617 351 b 726 392 710 389 715 390 b 732 403 729 393 732 397 b 738 404 732 413 733 413 b 744 401 742 400 744 399 b 757 410 744 406 750 408 b 774 418 764 410 771 414 b 779 421 776 422 779 424 b 788 422 779 417 783 418 b 799 425 792 425 797 426 b 806 431 800 422 804 425 b 824 440 808 436 817 440 b 829 465 840 440 842 453 b 778 472 821 474 811 474 b 594 446 728 468 629 454 b 551 439 554 435 551 435 b 558 451 551 440 554 446 b 628 557 564 456 594 504 b 722 703 661 610 703 675 b 756 756 740 729 756 753 b 764 767 756 758 760 764 b 811 833 768 771 789 800 b 861 908 833 867 856 900 b 894 1008 890 950 903 988 b 888 1038 893 1013 890 1026 z "},"8":{"ha":893,"x_min":0,"x_max":0,"o":"m 794 1028 b 617 1082 753 1079 685 1099 b 486 1021 579 1072 486 1029 b 479 1015 486 1018 483 1015 b 460 1004 475 1015 465 1010 b 444 996 453 997 446 993 b 281 828 439 1001 301 860 b 219 618 235 754 214 682 b 339 353 228 533 263 457 b 325 321 346 344 344 340 b 286 288 313 308 294 293 b 267 265 278 282 269 272 b 256 254 265 260 260 254 b 246 250 250 254 247 251 b 228 224 246 247 238 236 b 161 143 210 204 196 186 b 69 -7 136 113 94 43 b 49 -243 18 -108 14 -168 b 92 -310 60 -268 79 -297 b 190 -356 114 -331 164 -354 b 238 -364 197 -356 218 -360 b 382 -358 281 -374 361 -371 b 407 -351 386 -356 397 -353 b 451 -339 417 -351 436 -344 b 506 -314 465 -332 490 -321 b 531 -297 522 -308 533 -300 b 536 -294 529 -293 531 -292 b 556 -286 540 -296 550 -293 b 575 -274 561 -281 571 -275 b 611 -243 590 -271 615 -249 b 615 -240 610 -239 611 -237 b 657 -208 619 -243 635 -233 b 692 -154 689 -175 694 -167 b 699 -151 692 -151 694 -151 b 738 -74 707 -154 732 -106 b 586 172 750 -8 719 42 b 486 275 531 225 486 272 b 526 322 486 279 504 300 b 564 367 549 343 565 364 b 568 369 564 369 565 371 b 669 483 575 368 672 476 b 672 486 668 486 669 488 b 686 494 675 485 682 489 b 700 514 690 501 697 510 b 729 546 704 518 717 532 b 749 579 740 560 750 575 b 751 585 746 583 747 586 b 868 807 771 578 856 742 b 844 957 879 872 874 907 b 794 1028 831 981 808 1013 z m 550 131 b 624 -43 640 50 654 19 b 514 -161 607 -74 528 -161 b 490 -175 511 -161 500 -168 b 335 -250 465 -194 381 -235 b 250 -269 314 -256 275 -265 b 200 -278 224 -275 201 -278 b 178 -275 199 -278 189 -276 b 153 -261 167 -274 156 -268 b 153 -174 146 -249 147 -174 b 164 -149 156 -174 160 -162 b 189 -87 168 -135 179 -107 b 203 -43 199 -67 204 -47 b 203 -40 200 -39 200 -37 b 239 8 208 -46 224 -25 b 288 81 244 19 267 53 b 419 221 322 128 344 151 l 440 242 l 471 207 b 550 131 488 189 524 154 z m 701 763 b 601 619 685 733 617 636 b 536 538 588 604 569 582 b 486 474 518 513 494 483 b 469 449 476 464 469 453 b 465 442 469 444 467 442 b 446 419 463 442 454 432 b 428 394 438 407 429 396 b 415 378 426 393 421 385 l 406 364 l 386 392 b 329 497 367 418 344 460 b 322 625 318 524 315 586 b 346 697 325 644 336 676 b 364 738 356 717 364 736 b 525 899 364 747 493 876 b 554 919 536 906 550 915 b 568 928 558 924 564 928 b 582 935 571 928 578 931 b 703 983 593 947 681 981 b 726 986 714 983 725 985 b 774 953 744 994 774 972 b 701 763 774 913 746 840 z "},"9":{"ha":806,"x_min":0,"x_max":0,"o":"m 758 1046 b 713 1019 746 1056 744 1054 b 675 983 694 1000 678 983 b 665 1003 674 983 668 992 b 608 1069 657 1026 633 1056 b 422 1046 572 1090 488 1081 b 60 635 283 972 138 807 b 14 435 26 561 15 511 b 26 351 14 378 14 371 b 113 276 42 329 90 288 b 179 285 129 268 156 272 b 311 414 204 299 315 407 b 313 417 308 418 310 418 b 328 425 317 414 324 418 b 375 481 332 432 354 457 b 435 549 397 504 424 535 b 614 746 535 667 621 763 b 600 713 611 739 604 725 b 532 560 594 701 564 632 b 219 -222 404 272 311 39 b 179 -333 199 -281 181 -331 b 183 -350 179 -335 181 -342 b 206 -351 189 -367 206 -367 b 211 -339 206 -344 208 -339 b 217 -331 214 -339 217 -335 b 221 -319 217 -325 219 -321 b 276 -211 231 -315 281 -218 b 276 -208 274 -207 275 -206 b 297 -187 279 -210 289 -201 b 478 178 326 -139 431 72 b 539 313 493 213 521 274 b 658 592 575 393 642 547 b 686 661 664 607 676 638 b 704 704 697 683 704 703 b 742 793 704 706 721 746 b 785 960 790 907 792 913 b 758 1046 774 1032 772 1038 z m 635 929 b 238 503 568 849 306 567 b 117 414 199 467 142 425 b 110 458 92 401 92 401 b 193 633 132 522 164 590 b 201 660 200 644 204 656 b 204 663 200 664 200 665 b 247 711 207 661 226 683 b 329 811 268 740 304 785 b 443 911 372 856 435 911 b 456 919 446 911 451 915 b 481 939 474 936 481 942 b 493 943 481 936 486 939 b 513 951 501 946 510 950 b 547 963 515 953 531 957 b 624 975 599 981 604 982 b 635 929 653 965 654 954 z "},"\u0000":{"ha":0,"x_min":0,"x_max":0,"o":""},"\u001d":{"ha":0,"x_min":0,"x_max":0,"o":""}," ":{"ha":172,"x_min":0,"x_max":0,"o":""}," ":{"ha":172,"x_min":0,"x_max":0,"o":""},"!":{"ha":515,"x_min":0,"x_max":0,"o":"m 261 431 b 299 522 267 428 300 508 b 303 531 299 528 300 532 b 336 600 306 528 332 585 b 378 697 336 604 356 647 b 488 958 415 781 451 865 b 478 1054 506 1000 503 1025 b 450 1064 463 1075 461 1075 b 392 958 443 1058 417 1010 b 94 190 256 683 129 357 b 97 4 82 131 83 46 b 142 -56 111 -36 118 -46 b 165 -33 179 -72 192 -60 b 154 28 153 -19 151 -15 b 161 106 154 53 158 88 b 210 275 169 147 204 272 b 221 328 215 279 224 318 b 224 332 221 333 222 335 b 244 374 226 331 236 349 b 254 425 264 424 265 431 b 253 426 250 422 250 422 b 261 431 254 431 258 433 z m 22 -283 b 43 -296 29 -286 39 -292 b 97 -267 51 -304 57 -301 b 122 -251 103 -262 114 -256 b 135 -239 131 -247 138 -242 b 142 -233 133 -236 136 -233 b 147 -226 147 -233 150 -231 b 150 -225 144 -222 146 -222 b 192 -189 158 -229 192 -201 b 197 -178 192 -185 194 -181 b 199 -185 200 -176 201 -179 b 213 -181 196 -193 199 -193 b 236 -157 221 -174 232 -162 b 251 -149 240 -153 247 -149 b 257 -142 256 -149 258 -144 b 263 -136 257 -137 260 -135 b 269 -129 267 -136 269 -133 b 274 -126 268 -125 269 -124 b 288 -122 278 -128 283 -126 b 315 -100 290 -117 304 -107 b 331 -64 338 -86 346 -64 b 78 -179 300 -64 118 -147 b 33 -212 51 -199 50 -201 b 25 -222 25 -218 21 -222 b 21 -228 28 -222 26 -225 b 11 -257 15 -231 11 -243 b 22 -283 10 -276 11 -281 z "},"\"":{"ha":233,"x_min":0,"x_max":0,"o":"m 43 865 b 63 849 53 856 63 849 b 63 869 64 849 64 858 b 65 904 61 881 63 897 b 64 919 69 915 69 919 b 64 922 58 919 58 921 b 72 932 68 924 72 929 b 107 990 72 936 88 963 b 138 1051 131 1025 140 1046 b 108 1089 131 1072 117 1089 b 42 1029 94 1089 61 1058 b 43 865 10 979 11 896 z m 121 936 b 132 886 117 911 119 904 b 153 867 142 875 150 867 b 161 896 156 867 160 879 b 194 960 164 919 169 931 b 215 1042 224 996 224 997 b 213 1054 214 1046 213 1053 b 133 985 211 1074 150 1021 b 121 936 128 974 122 953 z "},"#":{"ha":793,"x_min":0,"x_max":0,"o":"m 450 163 b 499 210 469 200 472 203 b 531 221 514 214 528 219 b 543 226 532 224 538 226 b 563 235 547 225 556 229 b 569 235 571 242 572 242 b 578 232 565 229 567 228 b 604 235 586 233 597 236 b 624 243 611 235 619 239 b 647 249 626 247 638 250 b 665 251 657 249 665 250 b 722 261 665 256 689 258 b 736 265 729 261 736 263 b 744 265 736 268 740 268 b 781 283 756 261 783 275 b 674 285 779 289 703 289 b 557 275 651 281 563 274 b 543 272 554 275 549 275 b 507 269 528 265 507 264 b 568 383 507 281 564 386 b 572 385 569 381 572 382 b 582 392 572 388 576 390 b 633 400 621 394 628 396 b 711 410 639 404 681 408 b 718 418 715 410 718 414 b 629 431 718 429 685 433 l 583 428 l 593 449 b 626 521 597 461 613 493 b 665 604 640 549 658 586 l 678 636 l 667 668 b 647 701 661 686 651 701 b 608 646 642 703 628 682 b 531 504 592 615 557 551 l 483 419 l 456 415 b 368 401 413 410 382 404 b 367 428 351 397 351 399 b 358 507 382 457 378 482 l 344 525 l 324 504 b 272 431 314 493 290 460 b 226 375 250 396 236 378 b 68 276 63 326 38 311 b 86 271 76 265 81 265 b 106 278 90 276 99 278 b 136 282 113 276 126 278 b 157 289 144 286 156 289 b 183 296 160 288 171 292 b 200 292 203 304 203 304 b 178 240 197 285 188 261 b 129 196 160 204 158 203 b 17 146 68 182 25 163 b 21 113 10 131 10 128 b 46 100 32 97 36 96 b 106 111 61 106 101 113 b 117 117 107 110 111 113 b 122 86 131 128 132 119 b 110 -29 96 -11 94 -21 b 121 -29 118 -33 121 -33 b 156 33 121 -25 136 3 b 203 113 175 64 197 100 b 253 147 215 138 229 147 b 267 154 261 147 267 150 b 271 157 267 157 268 160 b 324 167 272 156 296 160 b 372 178 350 175 372 179 b 361 151 372 176 368 165 b 331 76 356 138 342 104 b 306 10 321 49 310 19 b 258 -126 282 -43 256 -119 b 281 -121 263 -139 282 -133 b 285 -114 281 -115 282 -112 b 290 -110 289 -115 290 -114 b 301 -92 290 -106 296 -97 b 303 -83 308 -82 308 -81 b 304 -79 297 -86 297 -85 b 314 -64 310 -75 314 -68 b 319 -61 314 -61 317 -58 b 326 -58 324 -62 326 -61 b 338 -35 326 -54 332 -44 b 346 -11 346 -25 349 -15 b 347 -7 343 -7 344 -6 b 364 3 351 -10 358 -4 b 369 18 368 11 371 18 b 378 31 368 18 372 24 b 386 49 385 38 389 46 b 389 53 385 51 386 53 b 406 79 392 53 399 65 b 421 106 411 94 418 106 b 424 115 424 106 425 110 b 425 124 421 119 422 124 b 450 163 428 124 439 142 z m 385 249 b 353 243 374 247 358 244 b 319 238 346 242 331 239 b 281 231 308 236 290 233 l 261 228 l 286 274 b 319 325 299 299 314 322 b 351 333 329 331 332 332 b 358 340 357 333 360 336 b 371 343 357 343 363 344 b 417 350 379 343 400 346 b 447 357 432 354 446 357 b 428 297 453 358 446 335 b 385 249 408 256 406 253 z "},"$":{"ha":804,"x_min":0,"x_max":0,"o":"m 299 89 b 307 90 299 92 303 92 b 375 124 317 88 375 115 b 379 129 375 126 376 129 b 394 136 392 126 399 131 b 396 139 393 140 393 142 b 443 167 404 135 439 156 b 453 172 444 172 449 175 b 557 283 461 167 543 254 b 563 386 569 310 571 353 b 554 424 560 397 556 415 b 483 493 549 449 518 478 b 461 528 453 506 449 513 b 486 589 464 533 475 560 b 522 679 497 618 514 658 b 543 733 532 700 542 724 b 592 771 546 750 569 768 b 661 797 606 774 658 793 b 675 799 661 800 668 800 b 683 800 682 796 686 797 b 703 804 682 803 690 804 b 726 797 717 803 726 800 b 658 722 726 794 696 761 b 603 607 588 646 579 629 b 621 613 613 599 614 599 b 638 626 625 621 632 626 b 642 636 642 626 644 631 b 644 642 640 642 642 643 b 715 692 650 638 715 683 b 721 697 715 694 718 697 b 785 763 729 697 776 744 b 788 851 793 778 794 811 b 767 893 785 871 779 883 b 704 906 750 907 746 907 b 635 894 679 904 647 900 b 610 890 621 890 610 888 b 635 957 610 896 628 944 b 647 1078 660 1003 665 1063 b 589 985 638 1086 633 1081 b 540 879 567 938 546 890 b 492 840 533 865 522 856 b 200 613 358 776 231 676 b 183 518 185 581 176 540 b 219 468 185 508 201 486 b 299 425 250 436 253 435 b 328 367 351 413 350 415 b 250 167 315 336 254 183 b 86 94 244 149 143 104 b 63 103 60 90 58 90 b 67 119 64 110 67 117 b 78 136 67 124 72 131 b 58 150 94 154 82 163 b 19 68 26 136 10 97 b 44 40 22 61 33 49 b 104 28 63 28 69 25 b 161 36 126 28 151 32 b 186 42 171 40 182 43 b 193 47 190 42 193 44 b 199 50 193 51 196 53 b 196 19 201 49 200 35 b 144 -154 153 -119 156 -107 b 139 -194 139 -174 138 -192 b 150 -199 140 -196 146 -199 b 156 -193 156 -199 157 -196 b 163 -176 154 -190 157 -182 b 178 -136 171 -165 175 -154 b 183 -131 178 -132 181 -129 b 192 -119 188 -131 192 -126 b 207 -92 193 -112 200 -100 b 214 -75 213 -83 215 -75 b 217 -67 211 -75 213 -72 b 219 -53 221 -62 222 -56 b 221 -46 218 -49 218 -46 b 243 -10 226 -46 240 -24 b 246 -3 244 -7 244 -4 b 246 4 246 -1 246 3 b 251 11 246 7 247 10 b 272 65 258 17 276 60 b 285 76 271 67 276 72 b 299 89 293 81 299 86 z m 258 546 b 442 693 258 561 403 678 b 449 703 447 696 450 700 b 456 706 447 706 450 707 b 456 679 467 703 467 701 b 417 588 449 667 432 625 b 381 518 400 547 385 518 b 258 546 354 515 258 538 z m 335 214 b 340 222 338 213 340 215 b 344 238 340 228 342 235 b 349 246 347 239 349 243 b 360 271 350 247 354 260 b 365 301 365 283 368 297 b 367 303 364 304 364 306 b 401 386 371 299 406 381 b 410 399 400 388 404 393 b 464 397 421 408 424 408 b 499 343 525 382 528 378 b 378 232 471 307 426 267 b 328 211 342 206 328 200 b 335 214 328 215 331 217 z "},"%":{"ha":863,"x_min":0,"x_max":0,"o":"m 485 -33 b 488 -31 483 -29 483 -29 b 536 -7 494 -35 532 -15 b 561 14 538 -4 549 6 b 579 36 572 24 581 33 b 585 42 578 39 581 42 b 682 163 596 42 657 117 b 721 310 714 217 724 253 b 699 393 719 357 710 393 b 689 411 696 393 692 401 b 610 419 682 442 661 444 b 393 235 539 385 451 311 b 322 100 356 185 335 146 b 354 -49 301 24 307 -1 b 428 -68 385 -78 386 -78 b 485 -33 453 -61 489 -40 z m 454 46 b 454 46 454 46 454 46 b 383 35 426 35 383 26 b 440 133 383 46 410 92 b 599 293 479 186 546 253 b 636 331 619 311 638 328 b 639 333 635 335 636 335 b 657 338 642 331 649 332 b 688 319 675 350 688 343 b 454 46 688 246 556 93 z m 454 46 b 454 46 454 46 454 46 z m 575 538 b 644 613 603 569 635 603 b 697 668 654 622 678 647 b 851 872 833 817 849 836 b 835 914 853 908 849 921 b 383 475 799 894 475 581 b 76 58 286 364 136 161 b 28 -104 29 -21 10 -86 b 49 -106 36 -112 39 -112 b 53 -94 53 -103 56 -97 b 57 -90 50 -90 53 -89 b 181 58 65 -94 103 -49 b 213 100 196 79 210 97 b 231 132 221 106 239 136 b 243 147 226 129 232 136 b 282 190 254 158 272 178 b 399 338 299 215 388 326 b 456 404 415 357 442 386 b 496 450 465 415 483 436 b 515 482 508 464 517 478 b 517 485 513 486 513 486 b 575 538 519 482 546 507 z m 267 490 b 276 493 271 499 274 499 b 294 499 279 488 283 489 b 313 513 301 507 310 513 b 315 517 314 511 315 514 b 321 518 314 519 317 519 b 401 593 328 515 400 583 b 404 597 401 596 403 597 b 439 644 407 597 422 618 b 490 774 472 694 490 740 b 464 876 490 807 478 860 b 426 889 453 890 449 892 b 297 804 386 883 357 864 b 172 569 215 722 174 643 b 200 510 172 540 175 536 b 267 490 229 478 254 471 z m 269 663 b 354 761 282 683 319 728 b 451 801 433 839 460 850 b 272 576 442 743 339 614 b 219 565 251 564 219 558 b 269 663 219 572 247 626 z "},"&":{"ha":700,"x_min":0,"x_max":0,"o":"m 493 143 b 485 150 492 149 488 151 b 461 144 482 149 472 146 b 344 132 435 142 376 135 b 290 126 331 131 306 128 b 268 146 261 122 257 126 b 289 190 271 151 281 171 b 319 257 299 210 311 240 b 343 292 326 274 338 289 b 386 310 349 293 368 301 b 428 326 403 318 422 325 b 464 360 449 331 467 346 b 458 406 464 367 461 388 b 426 457 454 440 444 457 b 428 503 410 457 410 463 b 454 563 438 524 449 551 b 521 643 488 636 483 632 b 551 658 539 647 553 654 b 560 657 550 661 553 661 b 575 654 567 654 574 653 b 638 654 581 660 638 660 b 614 622 638 651 626 638 b 593 582 596 603 592 593 b 599 564 594 574 597 565 b 671 599 603 560 660 586 b 661 729 690 621 685 703 b 582 757 644 747 621 757 b 543 760 561 758 543 760 b 601 885 543 763 574 828 b 628 975 624 931 628 946 b 622 1011 628 997 626 1010 b 547 876 618 1013 588 958 b 471 739 503 786 476 739 b 439 729 465 739 451 733 b 415 718 428 724 417 718 b 308 661 400 715 339 682 b 201 568 251 624 224 599 b 167 461 179 539 161 479 b 240 376 175 435 218 386 l 264 367 l 208 333 b 10 93 86 260 11 168 b 39 33 10 65 11 61 b 93 3 64 10 72 4 b 125 4 107 1 121 3 b 157 8 131 8 157 11 b 138 -44 157 7 149 -17 b 88 -193 97 -146 88 -176 b 92 -210 88 -203 89 -210 b 118 -160 97 -210 118 -171 b 122 -151 118 -156 119 -151 b 136 -125 124 -151 131 -140 b 153 -99 143 -111 150 -99 b 157 -92 156 -99 157 -96 b 165 -69 157 -87 161 -78 b 192 -18 169 -61 182 -39 b 219 18 203 1 215 18 b 225 24 224 18 226 21 b 229 26 222 28 225 28 b 293 49 243 21 299 42 b 300 47 292 53 294 53 b 314 44 306 43 313 42 b 333 53 317 47 325 51 b 381 71 340 53 363 61 b 417 83 399 81 415 86 b 421 86 419 82 421 83 b 431 92 421 90 425 93 b 440 99 436 92 440 94 b 443 106 439 103 440 106 b 493 143 464 101 499 128 z m 250 483 l 278 510 b 306 542 293 525 306 539 b 308 543 304 543 306 544 b 338 557 311 540 325 547 b 385 586 350 565 371 579 b 381 536 413 600 413 604 b 356 482 369 514 358 490 b 317 469 351 471 347 469 b 267 476 299 469 275 474 l 250 483 z m 244 226 b 219 164 242 219 231 192 l 200 115 l 172 108 b 81 100 136 99 81 93 b 122 144 81 103 100 122 b 196 211 185 204 193 211 b 222 226 197 211 208 218 b 244 226 247 243 251 243 z "},"'":{"ha":150,"x_min":0,"x_max":0,"o":"m 43 865 b 63 849 53 856 63 849 b 63 869 64 849 64 858 b 65 904 61 881 63 897 b 64 919 69 915 69 919 b 64 922 58 919 58 921 b 72 932 68 924 72 929 b 107 990 72 936 88 963 b 138 1051 131 1025 140 1046 b 108 1089 131 1072 117 1089 b 42 1029 94 1089 61 1058 b 43 865 10 979 11 896 z "},"(":{"ha":785,"x_min":0,"x_max":0,"o":"m 731 1054 b 757 1064 736 1054 749 1058 b 775 1099 772 1074 775 1078 b 742 1142 775 1128 763 1142 b 556 1038 710 1142 614 1089 b 221 636 446 943 310 779 b 21 171 131 492 47 297 b 11 18 14 135 11 92 b 25 -132 10 -75 11 -89 b 90 -229 39 -176 42 -181 b 150 -281 119 -257 146 -281 b 167 -271 154 -281 163 -276 b 165 -265 174 -262 174 -261 b 165 -262 158 -269 158 -269 b 171 -239 176 -253 179 -239 b 165 -231 168 -239 165 -236 b 154 -225 165 -224 163 -222 b 79 -118 138 -231 85 -154 b 79 74 74 -81 74 38 b 324 624 103 217 199 435 b 422 761 357 675 413 753 b 449 792 425 764 436 776 b 488 838 460 807 478 828 b 506 857 497 847 506 856 b 694 1024 506 868 653 997 b 713 1043 707 1031 715 1040 b 719 1044 711 1046 714 1047 b 725 1047 726 1042 728 1043 b 731 1054 722 1051 725 1054 z "},")":{"ha":778,"x_min":0,"x_max":0,"o":"m 621 1142 b 593 1103 601 1142 590 1125 b 625 1054 596 1088 597 1086 b 713 882 682 990 699 957 b 657 489 731 779 706 599 b 204 -140 543 231 386 14 b 118 -217 183 -158 144 -192 b 10 -339 36 -293 10 -322 b 22 -347 10 -347 13 -349 b 33 -339 28 -344 33 -342 b 43 -331 33 -336 38 -333 b 49 -333 49 -329 50 -331 b 96 -304 44 -339 81 -317 b 118 -292 100 -300 110 -296 b 131 -281 126 -289 132 -283 b 135 -278 128 -278 131 -276 b 165 -260 139 -279 153 -271 b 211 -224 178 -249 199 -232 b 247 -196 224 -215 240 -203 b 276 -169 254 -190 268 -178 b 304 -140 286 -161 299 -149 b 315 -131 310 -132 315 -128 b 426 -7 315 -137 371 -76 b 557 171 451 24 553 163 b 572 197 558 175 565 188 b 679 393 592 228 664 360 b 768 808 747 540 768 642 b 729 1031 768 929 761 963 b 621 1142 706 1081 646 1142 z "},"*":{"ha":279,"x_min":0,"x_max":0,"o":"m 261 1136 b 185 1099 254 1136 206 1113 l 169 1089 l 171 1118 b 176 1151 171 1135 174 1150 b 160 1224 186 1163 171 1224 b 121 1088 153 1224 121 1111 b 76 1096 121 1074 113 1075 b 39 1113 60 1106 43 1113 b 33 1094 36 1113 33 1104 b 56 1057 33 1081 39 1071 b 81 1038 67 1046 79 1038 b 56 999 93 1038 82 1019 b 10 943 11 964 10 961 b 43 913 10 924 39 899 b 51 919 44 917 49 919 b 82 946 61 919 86 942 b 85 949 79 949 81 950 b 90 914 94 946 94 947 b 90 800 81 838 81 808 b 113 821 99 790 100 792 b 135 908 119 839 129 878 b 149 974 140 939 146 968 b 192 956 150 982 158 978 b 204 994 264 908 267 917 b 189 1025 186 1017 182 1025 b 251 1082 194 1025 236 1063 b 257 1096 257 1090 260 1096 b 260 1103 256 1096 257 1099 b 261 1136 269 1111 269 1136 z "},"+":{"ha":699,"x_min":0,"x_max":0,"o":"m 668 642 b 611 650 658 646 632 650 b 436 642 569 651 450 646 b 401 636 432 640 417 638 b 371 629 388 633 374 631 b 383 660 368 628 374 642 b 433 771 392 679 415 729 b 471 885 461 831 468 854 b 451 925 474 926 467 940 b 369 771 447 921 410 851 b 290 619 328 690 293 622 b 246 603 288 617 268 608 b 158 576 199 589 203 590 b 121 565 139 571 122 565 b 35 513 82 554 44 532 b 35 476 26 496 26 492 b 81 453 53 444 51 444 b 113 458 94 457 110 460 b 121 463 117 457 121 460 b 131 468 121 467 125 469 b 199 483 147 465 193 476 b 203 482 201 488 203 488 b 214 481 203 476 206 476 b 221 472 225 486 225 486 b 192 411 217 465 204 438 b 65 129 169 369 88 186 b 10 -46 42 72 10 -29 b 17 -65 10 -56 13 -64 b 25 -69 21 -68 24 -69 b 58 -18 25 -69 40 -47 b 253 372 111 67 135 115 b 340 506 313 504 318 514 b 349 508 344 504 349 506 b 368 514 349 511 357 513 b 401 518 378 514 393 517 b 431 525 410 519 422 524 b 478 536 439 526 460 532 b 524 549 496 542 515 547 b 536 558 531 551 536 554 b 542 560 536 561 539 561 b 592 572 544 558 567 564 b 663 590 617 579 649 588 b 689 614 688 593 689 594 b 668 642 689 631 686 635 z "},",":{"ha":281,"x_min":0,"x_max":0,"o":"m 65 -142 b 75 -136 69 -137 74 -133 b 110 -85 79 -140 100 -111 b 107 38 121 -58 118 18 b 57 24 99 49 79 43 b 43 -54 26 -4 22 -28 l 58 -74 l 43 -90 b 13 -144 21 -114 10 -136 b 65 -142 17 -157 56 -156 z "},"-":{"ha":510,"x_min":0,"x_max":0,"o":"m 471 386 b 401 394 454 390 424 394 b 185 378 350 396 204 385 b 150 372 179 376 164 374 b 119 367 135 371 122 368 b 90 360 117 364 104 363 b 21 321 57 356 33 343 b 22 283 10 303 10 303 b 61 267 35 264 36 263 b 117 272 75 268 100 271 b 178 282 133 275 160 279 b 231 292 196 286 219 290 b 393 318 331 303 386 313 b 400 319 397 321 400 322 b 410 322 400 317 404 318 b 418 321 417 328 418 328 b 422 321 419 315 419 315 b 436 328 424 325 431 328 b 458 333 443 328 453 331 b 485 344 464 336 475 342 b 500 365 496 350 500 356 b 471 386 500 378 496 381 z "},"­":{"ha":510,"x_min":0,"x_max":0,"o":"m 471 386 b 401 394 454 390 424 394 b 185 378 350 396 204 385 b 150 372 179 376 164 374 b 119 367 135 371 122 368 b 90 360 117 364 104 363 b 21 321 57 356 33 343 b 22 283 10 303 10 303 b 61 267 35 264 36 263 b 117 272 75 268 100 271 b 178 282 133 275 160 279 b 231 292 196 286 219 290 b 393 318 331 303 386 313 b 400 319 397 321 400 322 b 410 322 400 317 404 318 b 418 321 417 328 418 328 b 422 321 419 315 419 315 b 436 328 424 325 431 328 b 458 333 443 328 453 331 b 485 344 464 336 475 342 b 500 365 496 350 500 356 b 471 386 500 378 496 381 z "},".":{"ha":275,"x_min":0,"x_max":0,"o":"m 24 -74 b 65 -79 38 -92 53 -93 b 83 -62 71 -74 79 -67 b 132 0 92 -56 111 -31 b 139 44 143 15 144 22 b 117 86 133 72 126 86 b 33 3 107 86 47 26 b 24 -74 11 -35 10 -56 z "},"/":{"ha":824,"x_min":0,"x_max":0,"o":"m 738 853 b 636 718 724 833 678 772 b 474 499 564 624 544 597 b 311 240 439 451 368 338 b 218 82 288 200 246 129 b 19 -353 115 -90 10 -325 b 31 -362 22 -358 28 -362 b 56 -343 42 -362 60 -347 b 57 -339 53 -342 54 -339 b 93 -282 61 -339 76 -314 b 199 -82 136 -196 182 -111 b 221 -43 207 -67 218 -50 b 265 29 225 -37 244 -4 b 301 94 286 63 301 92 b 304 100 300 97 301 100 b 356 179 310 100 319 115 b 464 350 372 210 428 296 b 500 413 486 382 501 411 b 503 415 499 414 499 415 b 528 449 506 415 518 431 b 560 493 539 467 553 486 b 603 557 565 501 585 529 b 646 618 621 583 640 611 b 657 636 651 624 657 632 b 661 646 657 640 658 644 b 781 825 668 647 772 803 b 792 843 785 833 790 842 b 814 911 801 850 814 890 b 738 853 814 947 804 939 z "},":":{"ha":263,"x_min":0,"x_max":0,"o":"m 221 486 b 115 383 196 486 133 425 b 115 335 106 356 106 356 b 135 307 122 324 131 311 b 165 311 142 299 165 303 b 171 314 165 314 168 315 b 232 376 175 311 215 350 b 239 472 244 394 249 451 b 221 486 236 479 228 486 z m 68 68 b 78 74 74 74 78 75 b 114 103 78 69 90 81 b 128 167 131 119 131 121 b 121 218 125 192 122 215 b 28 154 108 238 47 194 b 33 82 14 125 15 110 b 68 68 51 56 54 54 z "},";":{"ha":275,"x_min":0,"x_max":0,"o":"m 246 385 b 243 471 261 415 260 467 b 143 382 218 479 156 425 b 150 338 138 361 138 357 b 167 317 158 326 165 317 b 193 329 179 317 196 325 b 196 333 192 332 193 333 b 246 385 204 333 235 365 z m 72 199 b 76 132 58 169 58 156 b 100 118 89 115 94 113 b 108 119 104 122 108 122 b 54 71 108 114 106 111 b 31 28 19 43 14 32 b 47 29 36 26 43 28 b 64 31 50 31 57 32 b 71 35 71 29 74 31 b 74 40 68 39 69 42 b 97 50 90 39 97 42 b 103 56 97 56 99 58 b 156 106 111 51 142 81 b 174 199 168 131 174 156 b 133 254 175 265 171 269 b 72 199 106 243 86 225 z "},";":{"ha":275,"x_min":0,"x_max":0,"o":"m 246 385 b 243 471 261 415 260 467 b 143 382 218 479 156 425 b 150 338 138 361 138 357 b 167 317 158 326 165 317 b 193 329 179 317 196 325 b 196 333 192 332 193 333 b 246 385 204 333 235 365 z m 72 199 b 76 132 58 169 58 156 b 100 118 89 115 94 113 b 108 119 104 122 108 122 b 54 71 108 114 106 111 b 31 28 19 43 14 32 b 47 29 36 26 43 28 b 64 31 50 31 57 32 b 71 35 71 29 74 31 b 74 40 68 39 69 42 b 97 50 90 39 97 42 b 103 56 97 56 99 58 b 156 106 111 51 142 81 b 174 199 168 131 174 156 b 133 254 175 265 171 269 b 72 199 106 243 86 225 z "},"<":{"ha":636,"x_min":0,"x_max":0,"o":"m 286 329 b 407 399 315 347 369 379 b 504 454 443 419 488 444 b 614 578 582 497 603 521 b 492 547 622 615 614 614 b 360 474 428 513 368 479 b 340 463 351 468 343 463 b 315 449 339 463 328 457 b 100 321 297 438 193 375 b 51 276 93 317 72 297 b 17 213 14 240 14 239 b 69 92 26 135 26 136 b 169 11 121 40 164 6 b 172 7 172 13 174 11 b 188 -10 171 3 178 -4 b 246 -57 206 -21 211 -25 b 272 -76 257 -68 269 -76 b 279 -82 276 -76 279 -79 b 288 -87 279 -85 282 -87 b 300 -94 292 -87 297 -92 b 335 -117 303 -99 318 -110 b 367 -135 350 -125 365 -133 b 383 -144 368 -136 376 -140 b 440 -137 407 -156 436 -151 b 403 -82 443 -128 433 -114 b 178 140 336 -8 261 64 b 97 217 133 179 97 214 b 161 257 97 218 126 238 b 222 300 199 278 224 297 b 225 303 219 304 221 304 b 286 329 229 300 256 311 z "},"=":{"ha":556,"x_min":0,"x_max":0,"o":"m 93 365 b 118 369 103 368 114 369 b 132 376 124 369 129 372 b 136 375 135 381 136 381 b 150 374 136 371 140 369 b 189 375 158 376 175 378 b 213 381 206 374 213 375 b 218 382 213 386 214 386 b 251 381 222 378 235 378 b 368 393 278 385 306 389 b 447 410 414 397 447 404 b 453 413 447 413 450 414 b 465 413 456 410 461 410 b 517 422 472 417 481 418 b 540 451 532 424 539 433 b 189 458 542 479 349 483 b 71 418 117 447 83 436 b 68 383 61 404 61 401 b 93 365 76 364 79 363 z m 382 408 b 388 403 385 408 388 407 b 386 397 388 400 388 397 b 379 403 385 397 382 400 b 382 408 378 407 379 408 z m 350 233 b 364 235 349 235 356 236 b 401 242 374 233 390 236 b 421 246 414 246 422 249 b 461 253 419 243 438 246 b 510 279 499 264 507 268 b 506 297 511 288 510 294 b 207 315 479 314 275 325 b 138 307 189 313 158 308 b 92 297 117 306 96 301 b 83 296 88 293 83 293 b 60 296 83 300 75 300 b 25 268 42 290 33 285 b 28 228 14 247 14 247 b 43 199 36 217 43 204 b 65 194 43 193 47 192 b 158 206 76 197 119 201 b 231 215 197 208 231 214 b 260 218 231 217 243 218 b 289 221 275 218 289 219 b 311 224 289 224 299 225 b 350 233 338 224 354 228 z "},">":{"ha":732,"x_min":0,"x_max":0,"o":"m 50 -211 b 224 -121 78 -201 203 -136 b 253 -103 228 -117 242 -108 b 481 50 276 -90 392 -12 b 560 106 514 75 550 100 b 654 201 583 121 647 185 b 611 401 718 336 714 350 b 563 429 586 414 564 426 b 553 435 560 432 556 435 b 442 486 550 435 500 458 b 332 539 383 515 335 539 b 294 554 331 539 314 546 b 250 575 276 563 256 572 b 171 590 215 590 179 597 b 138 542 147 571 135 553 b 144 514 140 536 143 524 b 183 471 149 497 161 483 b 296 415 214 454 293 415 b 318 404 297 415 308 411 b 374 379 342 390 358 382 b 388 375 379 379 385 376 b 506 321 397 363 499 317 b 508 318 510 322 510 321 b 556 290 506 314 525 303 b 613 263 583 278 610 265 b 449 125 619 256 611 249 b 264 -17 378 71 294 7 b 61 -172 176 -86 113 -136 b 15 -214 31 -193 14 -208 b 50 -211 18 -219 25 -219 z "},"?":{"ha":954,"x_min":0,"x_max":0,"o":"m 326 -151 b 335 -144 329 -151 333 -149 b 356 -133 336 -140 346 -135 b 371 -114 369 -131 372 -126 b 347 -101 371 -99 371 -99 b 319 -106 335 -103 322 -106 b 232 -131 286 -114 274 -117 b 21 -256 113 -171 26 -222 b 15 -278 18 -264 17 -274 b 32 -304 14 -281 21 -293 b 51 -328 43 -315 51 -326 b 101 -301 51 -335 67 -326 b 161 -261 117 -290 144 -272 b 193 -233 178 -250 193 -237 b 199 -229 193 -229 194 -226 b 236 -208 201 -231 218 -221 b 289 -172 254 -196 278 -179 b 308 -157 300 -165 308 -158 b 317 -147 307 -156 311 -150 b 325 -146 324 -143 326 -143 b 326 -151 322 -149 324 -151 z m 917 864 b 919 1010 925 915 928 990 b 869 1058 911 1031 879 1063 b 865 1061 865 1057 864 1058 b 725 1069 872 1072 772 1079 b 603 1039 665 1058 646 1053 b 339 911 489 1003 433 976 b 89 606 206 818 118 711 b 88 494 78 565 78 519 b 132 440 97 475 124 442 b 142 435 135 440 139 438 b 207 428 147 426 190 422 b 225 467 224 435 233 454 b 199 479 222 471 211 476 b 150 497 186 481 165 489 b 128 528 128 511 125 515 b 254 715 144 589 186 653 b 294 760 278 738 296 757 b 299 761 294 763 296 763 b 346 788 301 760 322 771 b 403 825 368 804 393 821 b 414 839 411 829 417 836 b 417 842 413 843 413 843 b 476 864 419 839 446 849 b 561 899 506 878 543 893 b 590 913 578 904 592 910 b 600 915 589 914 593 915 b 632 921 607 914 621 917 b 669 931 644 925 660 929 b 699 936 678 932 692 935 b 831 942 736 944 835 949 b 835 940 828 939 831 939 b 856 935 840 942 849 939 b 858 899 868 925 868 925 b 813 817 849 871 846 865 b 604 567 779 768 629 588 b 517 471 601 565 563 522 b 393 338 469 419 414 360 b 188 100 333 279 253 185 b 133 -33 133 29 114 -19 b 142 -49 138 -37 142 -44 b 174 -47 142 -58 150 -57 b 325 110 194 -37 235 4 b 404 197 356 146 392 185 b 732 563 456 246 638 449 b 917 864 853 707 901 786 z "},"@":{"ha":719,"x_min":0,"x_max":0,"o":"m 701 307 b 614 554 706 389 663 510 b 488 599 576 588 546 599 b 339 563 432 599 364 582 b 318 550 331 556 321 550 b 161 413 303 550 203 463 b 54 229 122 367 78 288 b 46 -76 17 131 14 7 b 194 -199 67 -126 146 -193 b 256 -192 221 -203 226 -201 b 300 -154 278 -183 306 -161 b 303 -154 299 -153 300 -151 b 329 -143 313 -160 329 -153 b 335 -135 329 -137 332 -135 b 340 -125 338 -135 340 -131 b 347 -118 340 -121 343 -118 b 353 -112 351 -119 354 -117 b 357 -107 353 -108 354 -106 b 372 -87 364 -112 378 -96 b 374 -82 371 -85 371 -82 b 388 -46 383 -82 393 -56 b 375 -44 383 -40 381 -40 b 332 -61 371 -49 351 -56 b 293 -75 313 -67 294 -74 b 256 -94 292 -78 275 -86 b 99 -65 190 -121 122 -108 b 99 89 89 -46 89 60 b 108 121 103 100 107 115 b 275 383 121 182 208 319 b 290 406 285 393 292 403 b 294 407 289 408 290 408 b 324 424 299 406 313 413 b 368 454 336 433 356 447 b 410 476 381 460 399 471 b 439 489 421 483 435 489 b 475 497 444 490 461 493 b 594 494 514 508 568 507 b 635 450 614 486 622 476 b 643 293 660 399 661 354 b 610 214 635 265 619 231 b 506 101 586 174 533 117 l 481 89 l 481 101 b 528 235 481 119 499 171 b 542 338 554 294 554 299 b 508 365 531 371 522 378 b 493 369 500 357 499 357 b 418 401 482 400 453 413 b 188 114 317 371 204 231 b 218 24 181 63 183 53 b 254 7 244 1 264 -7 b 257 10 253 11 253 13 b 281 14 261 7 271 10 b 394 122 299 24 363 83 l 415 147 l 417 99 l 419 51 l 451 22 b 507 0 483 -4 500 -11 b 518 3 508 3 514 4 b 549 21 522 1 536 8 b 574 42 560 32 572 42 b 628 108 578 42 628 104 b 639 129 628 111 632 121 b 647 153 646 139 650 150 b 649 157 644 157 646 158 b 701 307 661 149 697 256 z m 463 304 b 440 275 451 290 442 276 b 417 249 439 274 428 263 b 300 131 383 208 325 150 b 274 111 288 119 275 111 b 372 256 260 111 326 208 b 411 300 394 278 413 297 b 415 304 411 303 413 304 b 464 329 424 301 463 322 b 474 333 465 332 469 335 b 463 304 479 332 475 322 z "},"A":{"ha":1510,"x_min":0,"x_max":0,"o":"m 38 -278 b 74 -271 58 -289 64 -287 b 86 -256 78 -262 83 -256 b 90 -247 89 -256 90 -251 b 97 -239 90 -242 93 -239 b 100 -229 101 -239 103 -235 b 103 -224 99 -224 99 -222 b 108 -218 106 -226 108 -224 b 115 -210 108 -214 111 -210 b 118 -206 119 -210 121 -207 b 126 -193 117 -203 119 -197 b 138 -178 132 -189 138 -182 b 161 -137 138 -175 149 -157 b 185 -100 174 -119 185 -103 b 194 -85 185 -97 189 -90 b 196 -76 203 -75 203 -74 b 200 -71 192 -79 193 -76 b 374 193 215 -57 374 182 b 378 197 374 197 375 199 b 397 224 385 194 396 210 b 401 232 397 229 400 233 b 428 261 404 231 415 244 b 510 318 447 292 485 318 b 515 324 515 318 517 321 b 521 326 514 326 515 328 b 531 328 526 324 531 325 b 546 333 531 331 538 333 b 574 340 554 333 567 338 b 613 353 581 343 597 349 b 643 368 628 357 642 364 b 653 374 646 374 650 375 b 678 385 663 368 683 376 b 682 385 675 389 676 389 b 743 396 686 381 703 383 b 807 418 772 404 801 415 b 833 426 814 422 825 425 b 858 433 842 428 853 431 b 882 439 863 435 874 438 l 897 440 l 857 319 b 761 22 808 175 797 138 b 685 -212 736 -60 704 -156 b 692 -244 676 -237 678 -244 b 696 -235 696 -244 697 -240 b 699 -229 693 -228 694 -226 b 701 -224 703 -232 704 -231 b 706 -207 700 -218 701 -211 b 733 -149 719 -197 736 -158 b 738 -135 731 -143 733 -137 b 751 -106 744 -131 756 -107 b 758 -94 750 -106 753 -100 b 760 -89 764 -87 765 -85 b 778 -56 750 -94 768 -62 b 779 -46 781 -54 782 -50 b 783 -32 778 -43 779 -36 b 807 24 796 -19 810 15 b 810 29 804 29 806 32 b 818 38 813 26 817 31 b 815 49 821 43 818 49 b 818 54 811 49 813 51 b 829 71 824 58 829 65 b 833 88 829 76 831 83 b 849 125 836 90 843 107 b 864 163 854 142 861 160 b 913 297 868 168 908 278 b 922 321 914 300 918 311 b 931 347 926 331 931 342 b 933 357 932 351 933 357 b 932 361 933 358 933 360 b 939 372 932 363 935 367 b 943 390 943 378 946 386 b 946 400 942 396 943 400 b 950 408 950 400 951 404 b 954 422 947 413 950 419 b 969 449 957 424 965 436 b 988 474 974 461 982 472 b 1032 486 993 474 1013 481 b 1093 506 1050 493 1078 501 b 1121 518 1108 510 1121 515 b 1126 521 1121 521 1124 522 b 1153 526 1129 518 1142 521 b 1176 535 1164 531 1175 535 b 1194 540 1194 535 1197 535 b 1203 542 1193 543 1197 543 b 1215 544 1210 540 1215 542 b 1232 551 1215 547 1222 550 b 1288 564 1242 551 1267 557 b 1332 572 1310 569 1329 574 b 1338 576 1336 571 1338 572 b 1342 581 1338 581 1339 582 b 1367 582 1343 578 1354 579 b 1401 588 1378 586 1393 588 b 1414 592 1408 588 1414 589 b 1424 597 1414 594 1418 597 b 1453 599 1431 597 1443 599 b 1483 596 1461 600 1475 599 b 1492 603 1494 593 1496 594 b 1482 618 1490 608 1485 615 b 1306 608 1472 624 1372 618 b 1224 596 1274 603 1236 597 b 1131 578 1204 593 1151 583 b 1047 561 1124 576 1057 563 b 1036 556 1043 561 1038 558 b 1004 556 1031 551 1004 550 b 1013 576 1004 557 1008 567 b 1019 593 1018 585 1021 593 b 1028 619 1018 593 1021 606 b 1040 658 1033 633 1040 651 b 1047 679 1042 667 1044 675 b 1078 768 1051 686 1074 750 b 1097 847 1078 774 1088 810 b 1114 953 1113 901 1115 926 b 1047 1071 1107 1033 1082 1076 b 1035 1067 1042 1069 1036 1068 b 1028 1065 1035 1067 1031 1065 b 947 1008 1022 1064 978 1033 b 740 797 917 982 781 843 b 490 481 694 744 576 594 l 417 382 l 372 365 b 238 306 318 344 242 310 b 208 294 233 301 213 293 b 203 290 207 294 204 293 b 186 278 201 288 193 282 b 135 246 153 260 146 256 b 119 236 129 240 122 236 b 94 217 117 236 106 228 b 88 151 68 193 65 167 b 119 154 101 143 119 144 b 143 169 119 156 131 163 b 163 186 156 175 164 183 b 169 183 160 189 164 188 b 176 181 176 178 179 178 b 190 190 175 185 179 189 b 215 203 199 193 211 199 b 228 208 219 208 225 210 b 240 213 229 207 235 208 b 265 222 246 217 257 222 b 293 233 272 224 286 229 b 307 240 301 239 307 242 b 265 174 307 239 289 208 b 214 97 242 139 218 106 b 190 63 208 90 199 74 b 46 -183 149 1 108 -67 b 38 -278 15 -240 14 -265 z m 613 518 b 619 542 619 528 622 538 b 622 544 618 544 618 546 b 638 554 625 543 632 547 b 658 578 644 561 653 572 b 658 585 665 588 665 588 b 675 604 654 582 661 590 b 696 635 688 618 697 632 b 701 640 694 638 697 640 b 725 676 711 640 731 668 b 726 679 724 679 724 681 b 778 735 733 675 779 728 b 781 738 776 738 778 739 b 824 788 788 733 826 779 b 828 790 824 790 825 792 b 928 892 833 789 928 883 b 933 894 928 896 931 897 b 954 917 940 890 958 908 b 957 918 951 921 953 921 b 963 921 960 917 963 917 b 968 924 963 925 965 926 b 982 942 975 919 988 935 b 985 942 979 944 981 944 b 1042 981 992 939 1047 975 b 1056 983 1042 982 1047 983 b 1067 964 1069 985 1069 983 b 988 713 1063 935 1044 878 b 935 553 961 632 938 561 b 881 521 932 539 910 526 b 747 483 868 518 833 508 b 603 444 708 474 651 457 b 558 429 583 439 564 432 b 613 518 538 418 551 440 z "},"B":{"ha":1307,"x_min":0,"x_max":0,"o":"m 67 464 b 75 468 74 467 78 468 b 72 507 67 469 64 503 b 74 518 75 510 76 514 b 78 531 72 524 74 528 b 81 524 81 533 82 531 b 90 528 78 515 81 517 b 235 642 101 540 142 572 b 253 657 239 646 247 653 b 269 669 258 663 265 668 b 332 711 296 681 335 707 b 333 714 329 714 331 715 b 360 722 338 711 349 715 b 390 740 371 731 385 738 b 397 750 396 743 399 747 b 403 753 394 754 397 754 b 428 761 407 751 418 754 b 483 790 436 767 461 781 b 522 813 506 801 522 811 b 515 811 522 814 519 814 b 513 814 513 808 511 810 b 528 817 515 817 522 818 b 547 824 533 815 543 818 b 568 832 553 828 563 832 b 590 840 574 832 585 836 b 613 850 597 846 607 850 b 658 876 626 850 664 871 b 663 876 657 879 658 879 b 707 890 671 872 711 883 b 715 894 706 892 710 894 b 742 899 721 896 732 897 b 753 896 754 901 757 901 b 689 797 751 892 722 847 b 536 560 632 710 550 583 b 490 482 532 553 511 518 b 426 403 458 429 446 414 l 403 390 l 403 351 b 388 285 403 324 399 307 b 303 83 374 260 339 174 b 265 -35 289 46 274 -3 b 254 -72 261 -49 257 -65 b 239 -156 244 -93 236 -143 b 271 -174 243 -168 271 -185 b 279 -160 271 -171 275 -164 b 286 -146 285 -154 288 -149 b 292 -137 285 -143 288 -139 b 299 -125 297 -135 300 -131 b 301 -112 296 -121 297 -115 b 304 -115 306 -110 306 -111 b 301 -122 301 -119 300 -122 b 358 -33 306 -122 336 -72 b 369 10 378 1 381 17 b 367 11 365 7 364 7 b 376 15 369 15 374 17 b 406 60 379 14 392 35 b 422 114 425 99 428 110 b 425 115 417 118 417 118 b 435 128 433 113 436 115 b 439 135 435 129 436 133 b 453 158 442 138 449 147 b 494 244 458 171 476 208 b 593 319 529 315 525 311 b 633 325 604 321 622 324 b 678 332 646 328 665 331 b 922 304 758 346 907 328 b 765 33 947 265 876 143 b 633 -68 732 0 658 -56 b 622 -75 629 -69 624 -74 b 406 -167 613 -87 458 -153 b 306 -196 394 -169 343 -185 b 119 -237 232 -218 165 -233 b 79 -229 81 -240 78 -240 b 79 -207 79 -224 79 -214 b 69 -207 78 -196 78 -196 b 60 -235 64 -212 60 -225 b 124 -281 60 -254 79 -268 b 276 -286 149 -287 260 -292 b 300 -286 278 -285 289 -285 b 315 -281 313 -286 318 -285 b 318 -275 313 -278 314 -275 b 324 -282 321 -275 324 -278 b 329 -282 324 -287 325 -287 b 342 -278 331 -278 338 -275 b 376 -275 347 -279 363 -278 b 417 -265 392 -271 410 -267 b 436 -256 425 -264 433 -258 b 440 -256 439 -250 440 -250 b 449 -258 440 -261 443 -262 b 478 -251 451 -254 465 -251 b 507 -246 490 -251 503 -249 b 526 -239 511 -242 519 -239 b 543 -233 533 -239 542 -236 b 558 -231 544 -231 551 -229 b 569 -228 564 -232 569 -231 b 574 -222 569 -224 571 -222 b 582 -222 576 -222 579 -222 b 601 -218 583 -221 592 -219 b 628 -208 610 -218 622 -212 b 660 -193 632 -204 647 -197 b 706 -171 674 -189 693 -179 b 733 -157 718 -164 731 -157 b 739 -153 736 -157 739 -156 b 764 -135 739 -150 750 -142 b 911 7 788 -121 881 -32 b 982 150 935 38 971 110 b 938 404 1004 224 979 360 b 794 461 906 438 858 456 b 750 478 742 465 728 469 b 783 496 756 479 771 488 b 814 514 796 504 810 511 b 818 524 818 515 819 519 b 819 526 815 526 817 528 b 844 535 828 521 844 528 b 838 536 844 538 842 539 b 836 539 833 533 833 535 b 844 543 838 543 842 544 b 876 558 853 538 881 553 b 879 560 874 563 875 563 b 896 564 883 558 890 560 b 929 583 901 568 917 578 b 961 604 940 590 956 599 b 1004 633 967 610 986 622 b 1038 658 1022 644 1038 656 b 1044 663 1038 661 1040 663 b 1099 706 1053 663 1103 701 b 1100 707 1097 708 1099 708 b 1278 876 1114 696 1257 832 b 1293 961 1290 901 1292 914 b 1276 1039 1293 1014 1292 1019 b 1239 1067 1268 1050 1251 1063 b 1008 1061 1201 1081 1090 1076 b 871 1025 958 1051 878 1031 b 839 1017 868 1024 853 1019 b 656 956 813 1013 674 967 b 640 950 650 951 643 950 b 603 936 638 950 621 943 b 543 911 586 928 560 917 b 511 897 528 906 513 899 b 488 885 510 894 499 889 b 400 840 476 881 438 861 b 56 586 267 769 143 679 b 14 506 31 560 14 526 b 67 464 14 478 40 456 z m 775 778 b 779 786 775 782 776 785 b 808 838 782 788 794 811 b 829 906 828 878 833 892 b 858 935 826 924 826 925 b 888 951 879 942 890 947 b 892 951 885 957 886 957 b 953 958 901 944 904 944 b 1000 967 972 963 993 967 b 1028 981 1019 967 1032 974 b 1032 982 1025 986 1026 986 b 1053 976 1038 978 1046 976 b 1083 978 1060 976 1074 978 b 1099 986 1097 978 1101 981 b 1103 988 1096 992 1096 992 b 1132 983 1107 983 1121 982 b 1158 985 1143 983 1154 985 b 1228 975 1168 986 1217 978 b 1244 971 1235 972 1242 971 b 1249 965 1247 969 1249 968 b 1249 954 1249 963 1249 958 b 963 710 1249 935 1064 778 b 928 686 954 704 939 694 b 872 651 915 678 892 663 b 839 626 854 640 839 629 b 833 625 839 624 836 622 b 828 622 829 626 828 625 b 817 614 828 619 822 615 b 749 575 811 611 781 594 b 675 533 715 556 683 536 b 650 518 667 529 656 522 b 656 551 635 504 638 519 b 694 621 664 565 681 597 b 767 756 739 706 758 742 b 775 778 771 764 775 774 z "},"C":{"ha":1078,"x_min":0,"x_max":0,"o":"m 126 -237 b 213 -243 165 -250 206 -254 b 235 -236 215 -240 225 -237 b 303 -204 256 -233 308 -210 b 308 -203 301 -201 303 -201 b 333 -192 313 -206 324 -200 b 361 -174 343 -183 356 -175 b 372 -165 367 -172 372 -168 b 376 -160 372 -161 374 -160 b 424 -133 385 -162 410 -149 b 446 -118 432 -125 442 -118 b 518 -67 457 -118 518 -75 b 526 -60 518 -62 522 -60 b 547 -47 532 -60 540 -54 b 564 -36 554 -42 561 -36 b 582 -19 568 -36 575 -29 b 592 -12 589 -11 593 -7 b 639 22 589 -17 610 -1 b 689 67 694 68 701 74 b 685 68 683 63 682 64 b 697 75 686 72 692 75 b 706 81 701 75 706 78 b 713 85 706 85 708 86 b 719 93 717 85 719 88 b 728 100 721 97 724 101 b 735 107 732 99 735 103 b 742 114 735 113 738 115 b 747 121 746 114 749 117 b 751 125 747 125 749 126 b 763 131 756 124 760 125 b 772 140 765 135 769 139 b 815 174 779 142 789 150 b 822 183 824 182 828 186 b 818 183 818 181 815 181 b 824 185 819 185 822 186 b 881 228 826 182 881 222 b 904 246 881 231 892 239 b 921 275 931 260 931 261 b 878 263 914 283 910 282 b 836 233 858 249 840 236 b 825 228 832 231 828 228 b 789 204 824 228 807 217 b 679 133 718 157 682 133 b 660 122 676 133 668 129 b 600 86 651 117 624 100 b 553 57 576 72 554 60 b 500 28 551 56 528 42 b 443 -6 474 14 447 -1 b 422 -17 439 -8 431 -14 b 388 -35 415 -18 400 -26 b 208 -124 346 -61 218 -124 b 193 -129 201 -124 196 -126 b 169 -139 192 -132 181 -136 b 140 -146 158 -140 144 -143 b 135 -129 133 -149 132 -144 b 168 -32 136 -110 156 -58 b 169 -12 171 -25 172 -17 b 172 -10 167 -8 168 -7 b 178 3 178 -12 179 -10 b 182 10 178 4 179 8 b 199 38 185 13 193 24 b 247 122 206 50 226 89 b 283 192 267 157 283 188 b 289 199 283 194 286 197 b 365 304 294 201 364 299 b 376 319 365 307 371 314 b 419 381 397 340 421 375 b 424 383 419 383 421 385 b 439 394 426 381 433 386 b 458 419 444 403 453 414 b 482 447 464 425 475 438 b 658 639 507 478 583 563 b 729 717 700 679 731 715 b 733 719 728 718 731 719 b 768 746 738 719 753 731 b 992 906 843 817 992 924 b 968 849 992 903 982 876 b 960 756 933 774 931 742 b 975 767 968 758 975 764 b 982 768 975 769 978 771 b 985 774 986 765 988 767 b 986 781 982 781 983 783 b 1018 810 992 778 1021 806 b 1031 828 1017 811 1022 819 b 1054 869 1038 836 1049 856 b 1057 932 1064 893 1064 900 b 1044 974 1053 951 1047 971 b 1039 989 1042 976 1039 983 b 996 1035 1039 1004 1015 1029 b 908 1018 976 1040 918 1028 b 894 1013 904 1014 899 1013 b 778 939 888 1013 796 954 b 749 915 774 936 761 925 b 444 622 647 833 532 724 b 396 567 419 593 397 568 b 217 329 375 547 256 390 b 190 292 204 310 192 293 b 133 201 186 288 149 229 b 35 -142 44 43 14 -61 b 126 -237 50 -203 61 -214 z "},"D":{"ha":1411,"x_min":0,"x_max":0,"o":"m 39 314 l 54 300 l 69 313 b 78 331 81 321 82 325 b 86 358 72 335 75 343 b 231 513 108 392 193 482 b 268 544 247 528 264 542 b 386 636 300 572 347 610 b 506 711 431 668 444 676 b 535 729 521 719 533 728 b 756 826 544 740 751 832 b 699 708 757 826 731 774 b 510 249 611 531 561 408 b 433 -62 465 107 451 54 b 457 -136 425 -118 431 -133 b 469 -135 467 -137 472 -136 b 474 -121 468 -132 469 -126 b 479 -107 479 -117 481 -110 b 483 -103 478 -104 479 -103 b 490 -92 489 -104 492 -100 b 494 -82 490 -85 493 -81 b 510 -65 497 -83 504 -76 b 526 -37 515 -56 522 -43 b 583 92 538 -24 582 78 b 594 113 585 100 589 108 b 599 121 599 117 600 121 b 603 136 596 121 597 128 b 656 279 607 146 631 210 b 714 446 679 347 706 422 b 731 499 724 468 731 492 b 736 510 731 506 733 511 b 743 538 742 506 747 529 b 744 540 740 542 742 542 b 756 578 751 536 761 568 b 758 582 753 581 754 582 b 778 615 763 581 771 596 b 796 658 785 636 793 654 b 792 665 797 663 796 665 b 796 672 788 665 789 668 b 803 688 801 678 804 683 b 806 696 800 690 801 694 b 813 714 808 696 813 706 b 821 735 814 724 818 732 b 831 753 824 736 828 744 b 825 763 835 764 833 765 b 826 771 815 760 817 761 b 836 789 835 776 839 785 b 839 792 833 793 835 794 b 846 793 843 789 846 790 b 839 800 846 797 843 800 b 839 808 835 800 835 801 b 840 819 844 814 844 817 b 833 829 836 822 833 826 b 840 832 833 833 836 833 b 844 844 844 829 846 833 b 849 861 843 853 846 861 b 889 869 851 861 871 865 b 935 878 908 874 929 878 b 949 883 940 879 947 881 b 981 888 951 886 965 888 b 1015 894 994 888 1011 890 b 1019 894 1021 900 1022 900 b 1024 892 1017 890 1018 889 b 1029 901 1029 893 1031 897 b 1033 901 1026 906 1028 906 b 1104 890 1039 897 1068 893 b 1217 876 1172 888 1193 885 b 1232 872 1225 872 1232 871 b 1263 860 1232 874 1246 868 b 1296 813 1293 843 1293 843 b 1193 596 1299 763 1268 697 b 1147 538 1175 572 1154 546 b 1071 449 1140 528 1106 489 b 919 279 1007 375 993 358 b 278 -340 572 -96 388 -275 b 260 -361 268 -346 260 -356 b 269 -371 260 -367 264 -371 b 278 -365 274 -371 278 -369 b 286 -364 278 -362 282 -361 b 292 -356 293 -367 294 -364 b 297 -353 288 -347 289 -346 b 313 -350 304 -360 307 -358 b 322 -340 315 -344 319 -340 b 326 -336 325 -340 326 -339 b 333 -335 325 -333 329 -332 b 358 -326 339 -336 350 -332 b 388 -311 368 -319 381 -312 b 404 -296 394 -308 401 -301 b 417 -287 406 -287 410 -285 b 421 -283 424 -290 425 -289 b 424 -281 418 -279 418 -278 b 443 -262 431 -285 449 -269 b 446 -262 440 -260 442 -260 b 458 -257 450 -264 456 -262 b 468 -249 461 -251 465 -247 b 588 -161 472 -250 563 -183 b 622 -133 596 -154 611 -142 b 638 -112 632 -125 639 -115 b 639 -110 635 -108 636 -108 b 669 -92 643 -112 657 -104 b 696 -71 683 -79 694 -69 b 721 -49 697 -72 708 -62 b 744 -26 733 -35 743 -25 b 767 -8 744 -28 754 -19 b 783 17 778 1 785 14 b 786 19 782 19 783 21 b 836 64 794 17 840 57 b 838 65 833 67 835 68 b 876 106 846 61 882 99 b 879 107 874 108 875 108 b 1004 221 883 104 929 146 b 1226 468 1122 342 1189 415 b 1257 510 1238 485 1251 503 b 1340 686 1274 528 1331 649 b 1343 899 1353 732 1354 863 b 1306 956 1338 917 1325 936 b 1168 1015 1274 986 1236 1004 b 925 1001 1121 1024 1003 1017 b 857 983 918 1000 888 992 b 786 965 826 975 794 967 b 772 957 776 964 771 960 b 765 953 774 954 771 953 b 669 919 754 953 694 932 b 653 914 660 914 653 913 b 608 893 653 915 633 907 b 565 872 585 881 565 871 b 351 749 565 879 401 785 b 72 488 236 668 122 561 b 14 361 39 440 14 385 b 39 314 14 338 17 335 z "},"E":{"ha":1333,"x_min":0,"x_max":0,"o":"m 51 264 b 69 274 56 268 65 272 b 110 289 75 274 93 281 b 153 307 128 299 146 306 b 190 322 160 308 176 315 b 217 333 206 331 217 335 b 236 335 217 331 225 332 b 251 324 256 340 256 339 b 232 279 249 315 239 294 b 147 47 207 231 161 103 b 129 -132 132 -12 126 -71 b 207 -250 133 -186 149 -210 b 290 -278 246 -276 254 -279 b 344 -269 313 -278 338 -274 b 360 -267 350 -267 357 -265 b 440 -246 364 -272 407 -261 b 469 -235 454 -240 467 -235 b 479 -229 472 -235 476 -232 b 499 -225 482 -226 490 -224 b 517 -219 507 -225 515 -222 b 568 -204 521 -212 558 -203 b 574 -199 571 -206 574 -203 b 579 -194 574 -193 576 -192 b 597 -189 582 -197 590 -194 b 621 -179 604 -183 615 -178 b 632 -174 628 -179 632 -176 b 663 -156 633 -169 646 -162 b 689 -136 679 -149 690 -140 b 699 -135 688 -133 692 -132 b 713 -131 706 -137 711 -136 b 718 -126 713 -126 715 -124 b 738 -119 721 -128 729 -125 b 797 -83 746 -112 772 -97 b 846 -53 821 -71 843 -57 b 854 -46 847 -49 851 -46 b 875 -32 864 -47 878 -39 b 881 -31 872 -29 875 -28 b 899 -25 885 -32 893 -31 b 926 -7 904 -19 917 -12 b 942 8 936 -3 943 4 b 949 11 939 14 942 14 b 956 11 956 8 958 8 b 968 32 954 15 960 24 b 968 64 986 46 986 68 b 908 43 961 63 935 53 b 829 15 881 32 846 19 b 781 -1 813 11 790 3 b 597 -53 763 -10 728 -19 b 525 -74 579 -57 546 -67 b 228 -136 435 -104 250 -143 b 258 15 213 -131 221 -92 b 290 108 275 63 289 104 b 338 218 294 121 303 142 b 369 300 354 258 369 296 b 378 318 369 306 374 314 b 388 333 383 324 386 331 b 401 367 388 336 393 351 b 446 404 413 386 424 396 b 482 421 461 411 478 418 b 493 422 486 425 492 425 b 499 428 496 419 497 421 b 504 426 499 436 500 436 b 511 424 508 418 510 418 b 524 433 511 429 517 433 b 540 438 529 432 538 435 b 551 444 543 440 547 443 b 558 446 554 444 557 444 b 576 450 560 447 568 449 b 603 457 585 451 597 454 b 619 463 608 458 615 461 b 685 483 633 465 678 479 b 700 490 688 486 696 489 b 718 493 706 490 714 492 b 731 500 722 494 728 497 b 744 504 733 503 739 504 b 771 511 749 504 760 507 b 803 521 781 515 796 519 b 842 533 811 521 828 528 b 882 546 856 540 874 546 b 904 557 890 546 900 550 b 910 560 907 563 910 564 b 918 561 910 556 914 557 b 938 569 922 567 931 569 b 950 576 944 569 949 572 b 958 579 950 581 954 582 b 992 585 964 576 978 579 b 1032 594 1006 590 1024 596 b 1047 601 1040 594 1047 597 b 1057 604 1047 606 1051 607 b 1067 606 1063 601 1067 601 b 1085 613 1067 610 1075 613 b 1115 617 1094 614 1108 615 b 1136 619 1122 618 1132 618 b 1140 633 1140 619 1142 625 b 1099 647 1139 646 1133 647 b 950 632 1049 647 1014 643 b 875 622 921 628 888 622 b 676 588 819 617 731 601 b 596 568 618 572 614 572 b 499 543 581 565 531 553 b 554 681 485 539 492 556 l 626 824 l 658 832 b 704 843 676 838 697 842 b 863 886 740 849 860 881 b 875 886 864 889 869 889 b 881 890 882 882 883 883 b 882 894 876 897 878 899 b 901 899 886 892 894 893 b 907 899 908 906 911 906 b 926 897 900 888 903 888 b 950 904 936 901 947 904 b 972 910 951 903 963 906 b 1036 924 992 917 1014 922 b 1047 935 1043 925 1049 929 b 1054 936 1046 943 1049 943 b 1094 939 1063 928 1099 929 b 1110 944 1093 942 1100 944 b 1163 951 1125 943 1153 947 b 1171 951 1164 953 1168 953 b 1190 958 1174 951 1182 954 b 1197 956 1201 964 1203 964 b 1203 956 1193 947 1194 947 b 1214 958 1210 961 1215 963 b 1221 964 1214 956 1217 957 b 1228 964 1226 971 1228 971 b 1233 958 1228 958 1231 957 b 1279 961 1238 961 1257 963 b 1318 974 1311 960 1317 961 b 1161 1007 1319 997 1288 1004 b 1011 1006 1018 1011 1011 1011 b 974 1003 1011 1003 994 1001 b 911 1000 954 1003 925 1001 b 853 994 897 999 871 996 b 801 989 836 993 813 990 b 735 979 790 988 761 982 l 689 972 l 689 993 b 685 1019 690 1004 688 1017 b 679 1038 681 1022 679 1031 b 672 1060 679 1046 676 1056 b 619 1001 661 1071 654 1063 b 585 953 606 978 590 956 b 513 938 579 950 547 943 b 406 913 479 932 431 921 b 339 894 381 906 350 896 b 317 882 328 892 318 886 b 311 881 317 878 314 878 b 151 808 303 886 194 838 b 117 699 106 778 90 731 l 131 682 l 189 701 b 368 756 239 718 333 747 b 478 788 435 772 472 783 b 485 786 482 790 486 789 b 410 640 485 782 451 717 l 336 500 l 282 479 b 178 436 224 458 193 446 b 140 417 172 433 156 424 b 46 360 113 401 71 378 b 31 340 38 354 31 346 b 24 332 31 335 28 331 b 17 306 21 332 17 319 b 51 264 14 274 35 250 z "},"F":{"ha":1542,"x_min":0,"x_max":0,"o":"m 1247 986 b 1181 979 1240 983 1210 982 b 1101 974 1151 978 1117 975 b 861 944 1017 964 896 949 b 818 939 853 943 833 940 b 757 929 801 936 774 932 b 725 940 721 924 715 925 b 750 981 729 946 740 964 b 764 1053 765 1008 767 1014 b 732 1099 761 1107 750 1122 b 628 954 701 1061 657 999 b 581 903 606 919 593 906 b 513 892 550 897 536 894 b 208 822 460 885 275 843 b 164 810 186 815 167 810 b 144 801 163 808 154 806 b 97 783 135 797 114 789 b 46 754 81 776 58 764 b 28 678 19 731 14 707 b 61 664 40 653 44 650 b 86 672 68 668 79 672 b 107 679 93 672 103 675 b 126 686 111 683 119 686 b 165 696 133 686 150 690 b 210 710 181 701 200 708 b 247 721 228 714 233 715 b 349 746 258 725 300 735 b 399 761 372 751 394 758 b 401 760 406 767 406 767 b 404 757 399 754 399 753 b 428 764 408 760 419 763 b 479 774 436 764 460 768 l 515 781 l 506 763 b 388 547 467 697 421 614 l 349 471 l 282 449 b 99 361 204 425 114 382 b 85 329 93 353 88 339 b 99 292 82 314 85 307 b 132 276 113 276 119 274 b 147 286 140 279 147 283 b 151 290 147 289 149 290 b 174 296 163 289 176 292 b 194 301 172 299 182 300 b 222 307 208 301 221 304 b 232 313 225 310 229 313 b 263 318 235 313 249 315 l 286 321 l 258 246 b 224 160 242 206 226 167 b 179 39 217 144 182 51 b 150 -51 178 35 165 -6 b 90 -319 90 -229 72 -312 b 99 -324 94 -321 97 -322 b 135 -246 100 -324 129 -262 b 161 -193 139 -236 150 -212 b 182 -151 174 -175 182 -156 b 188 -140 182 -146 185 -142 b 272 33 193 -139 242 -40 b 338 176 294 85 306 107 b 364 236 351 208 364 235 b 407 335 364 240 393 307 b 467 368 419 358 421 358 b 635 411 504 376 568 393 b 656 417 640 413 649 415 b 764 451 735 436 768 447 b 767 453 761 456 763 456 b 879 486 774 449 836 468 b 915 499 890 492 907 497 b 929 508 925 501 931 504 b 932 517 926 511 929 515 b 935 514 938 519 938 519 b 940 510 931 508 932 507 b 956 514 946 513 953 514 b 957 521 958 514 960 517 b 968 525 954 525 958 526 b 981 528 978 522 982 524 b 986 529 978 531 981 532 b 994 544 994 526 996 529 l 993 564 l 935 563 b 710 546 867 561 744 553 b 639 535 678 542 642 535 b 613 529 638 533 625 532 b 543 515 600 526 568 521 b 494 510 518 510 497 508 b 614 743 492 513 543 615 b 665 813 646 801 654 813 b 682 818 672 813 681 815 b 693 821 685 821 689 822 b 729 825 697 819 714 821 b 806 839 771 833 774 833 b 843 846 822 840 839 844 b 857 849 849 847 854 849 b 881 861 868 846 885 854 b 885 861 878 867 879 867 b 911 860 889 857 899 857 b 932 861 922 863 932 863 b 939 863 932 860 935 861 b 964 869 943 865 954 868 b 996 875 974 869 988 872 b 1044 883 1022 882 1028 883 b 1057 889 1053 885 1058 886 b 1063 890 1056 892 1058 893 b 1072 892 1068 889 1072 889 b 1089 899 1072 894 1079 897 b 1125 903 1097 899 1114 900 b 1153 906 1136 904 1149 906 b 1157 911 1157 906 1160 908 b 1163 919 1156 914 1158 918 b 1168 917 1169 922 1171 921 b 1175 914 1165 913 1168 911 b 1232 924 1182 915 1207 919 b 1276 938 1257 928 1276 935 b 1281 939 1276 940 1279 942 b 1292 942 1283 938 1288 939 b 1303 942 1297 946 1300 946 b 1319 942 1306 938 1311 938 b 1349 949 1326 946 1340 949 b 1363 953 1360 947 1364 949 b 1374 953 1360 957 1363 957 b 1392 953 1383 950 1389 950 b 1401 958 1393 957 1399 958 b 1428 963 1417 957 1429 958 b 1449 967 1426 965 1436 968 b 1479 969 1463 967 1476 968 b 1500 971 1482 972 1492 972 b 1519 993 1515 969 1528 985 b 1247 986 1513 1000 1294 994 z "},"G":{"ha":1057,"x_min":0,"x_max":0,"o":"m 969 1082 b 882 1117 951 1103 914 1117 b 743 1056 847 1117 778 1086 b 719 1039 732 1047 722 1039 b 461 793 699 1039 536 883 b 303 579 414 736 329 622 b 161 336 232 467 201 415 b 57 -128 49 119 14 -36 b 79 -169 65 -146 75 -165 b 243 -193 111 -201 222 -217 b 256 -185 247 -187 253 -185 b 347 -115 265 -185 308 -151 b 389 -79 368 -96 388 -79 b 406 -62 392 -79 400 -72 b 494 31 413 -54 453 -12 b 571 114 536 72 571 110 b 575 117 571 118 572 119 b 594 133 579 115 588 122 b 626 169 601 143 617 160 b 643 192 638 178 644 189 b 644 194 640 194 642 196 b 654 197 649 192 653 193 b 661 200 656 201 658 203 b 647 147 664 199 657 174 b 610 44 636 121 619 75 b 588 -24 600 14 590 -17 b 553 -143 585 -31 569 -83 b 519 -325 524 -250 513 -312 b 529 -331 522 -328 526 -331 b 543 -283 536 -331 547 -290 b 546 -278 542 -281 543 -278 b 553 -269 550 -278 553 -274 b 558 -264 553 -264 556 -261 b 564 -260 561 -265 564 -264 b 576 -228 564 -256 569 -242 b 588 -199 582 -215 588 -203 b 593 -190 588 -194 590 -190 b 603 -172 596 -190 600 -182 b 611 -156 604 -162 608 -156 b 617 -147 615 -156 617 -151 b 654 -72 617 -137 647 -78 b 657 -68 658 -69 660 -68 b 664 -47 654 -68 658 -58 b 676 -11 671 -35 676 -19 b 681 0 678 -4 679 1 b 719 79 683 -3 714 58 b 733 111 719 81 726 94 b 778 208 742 128 761 171 b 836 333 794 244 821 301 l 863 392 l 914 419 b 988 461 942 433 975 453 b 1017 479 1000 469 1013 478 b 1015 497 1022 481 1022 485 b 960 510 1007 514 1007 514 b 807 478 917 507 835 490 b 743 454 801 475 772 464 b 436 311 636 417 492 349 b 414 274 414 296 411 293 b 442 239 415 254 419 250 l 468 226 l 493 239 b 514 257 506 246 515 253 b 517 258 511 260 513 261 b 597 283 522 256 563 268 b 640 301 603 288 622 294 b 686 322 658 308 679 318 b 654 286 713 340 692 315 b 524 174 611 251 561 208 b 465 121 510 160 483 136 b 325 -8 432 92 415 76 b 236 -86 292 -39 253 -74 b 139 -136 207 -108 144 -140 b 143 -42 133 -131 136 -69 b 153 3 147 -25 151 -6 b 161 28 154 10 158 21 b 169 49 164 33 168 43 b 225 188 174 68 194 119 b 256 263 243 226 257 260 b 258 267 254 264 256 267 b 275 289 261 267 268 276 b 313 357 281 300 299 332 b 338 411 328 383 339 407 b 343 418 336 415 339 418 b 397 504 353 418 401 494 b 401 511 396 508 399 511 b 436 550 406 510 421 528 b 471 599 451 572 467 594 b 476 610 474 603 476 607 b 488 625 476 611 482 618 b 531 676 494 632 514 656 b 735 888 585 743 689 850 b 863 974 764 911 842 963 b 950 997 903 992 938 1001 b 915 772 975 988 967 929 b 915 626 879 660 879 615 b 1021 811 938 633 997 738 b 1028 961 1040 872 1043 914 b 969 1082 1014 1004 985 1064 z "},"H":{"ha":1406,"x_min":0,"x_max":0,"o":"m 599 835 b 610 847 600 832 606 839 b 606 907 625 883 625 888 b 589 931 596 918 589 928 b 551 919 589 943 565 935 b 460 760 531 894 460 771 b 454 749 460 754 457 749 b 421 685 453 747 436 718 b 331 493 365 571 331 499 b 303 458 331 486 308 460 b 271 446 301 458 286 453 b 232 431 257 439 239 432 b 219 421 225 428 219 424 b 213 417 219 419 217 417 b 167 396 201 418 167 401 b 160 392 167 394 164 392 b 49 321 147 392 76 347 b 18 271 28 301 21 290 b 35 231 14 249 15 246 b 71 221 54 217 58 215 b 82 235 79 225 83 231 b 83 238 79 239 79 240 b 146 263 90 233 140 253 b 161 269 149 267 156 269 b 174 279 168 269 172 274 b 176 282 174 285 175 286 b 211 293 179 278 189 281 b 249 288 247 313 257 311 b 211 169 246 279 229 226 b 158 -10 181 79 167 29 b 150 -47 157 -15 153 -33 b 117 -237 133 -111 114 -225 b 132 -253 119 -247 125 -253 b 140 -247 139 -253 143 -250 b 147 -232 139 -244 142 -237 b 153 -214 151 -226 154 -218 b 154 -208 151 -208 151 -206 b 164 -199 158 -210 163 -206 b 178 -165 167 -192 172 -176 b 186 -139 182 -153 186 -142 b 190 -135 185 -137 186 -135 b 203 -108 193 -135 199 -124 b 215 -82 207 -94 213 -82 b 217 -72 218 -82 219 -78 b 217 -67 215 -67 215 -64 b 244 -19 219 -68 232 -47 b 275 50 257 8 271 40 b 283 78 281 61 283 74 b 289 88 283 83 286 88 b 293 101 292 88 294 94 b 296 114 292 110 293 115 b 321 179 301 110 321 161 b 325 189 321 186 324 190 b 339 217 329 188 339 207 b 346 231 338 218 342 225 b 354 253 350 238 354 247 b 360 263 354 258 357 263 b 365 272 364 263 365 267 b 376 306 365 278 371 292 b 397 354 382 319 392 342 b 443 393 406 374 414 381 b 486 410 461 403 481 410 b 497 415 490 410 496 413 b 518 424 499 418 508 422 b 532 433 528 426 535 431 b 539 435 531 436 533 438 b 544 439 547 432 549 433 b 546 443 542 443 542 444 b 660 481 551 439 635 467 b 681 486 665 483 675 486 b 682 492 689 486 689 486 b 690 496 675 496 678 497 b 707 501 701 494 708 497 b 718 504 707 506 711 507 b 736 507 724 503 732 504 b 769 521 740 510 756 517 b 804 538 785 525 800 533 b 807 539 808 544 810 544 b 808 533 806 535 806 532 b 836 544 811 535 824 539 b 858 557 847 549 858 554 b 863 560 858 560 860 561 b 897 572 871 554 900 567 b 914 578 896 575 903 576 l 932 578 l 913 528 b 819 272 876 436 826 299 b 758 90 815 253 764 103 b 685 -140 751 75 713 -47 b 621 -361 651 -251 632 -322 b 603 -417 615 -379 607 -406 b 604 -444 596 -437 596 -440 b 624 -442 619 -453 624 -453 b 629 -436 624 -437 626 -435 b 632 -425 632 -437 633 -433 b 635 -412 631 -417 632 -411 b 651 -385 639 -415 651 -396 b 658 -375 651 -382 654 -378 b 667 -358 663 -374 665 -365 b 671 -349 667 -353 669 -347 b 679 -321 678 -353 683 -329 b 679 -318 676 -317 676 -315 b 724 -233 685 -324 724 -249 b 728 -222 724 -228 725 -222 b 750 -172 733 -222 746 -196 b 758 -156 751 -161 756 -154 b 764 -150 761 -158 764 -156 b 772 -126 764 -146 768 -135 b 778 -104 778 -117 779 -107 b 783 -89 776 -101 778 -94 b 807 -31 794 -76 804 -50 b 813 -24 807 -28 810 -24 b 817 -17 814 -24 817 -21 b 838 40 817 -12 826 13 b 851 90 860 96 860 96 b 856 101 843 85 844 92 b 867 118 861 107 865 114 b 881 153 867 122 874 138 b 894 190 888 167 893 185 b 910 231 896 197 903 214 b 922 263 917 246 922 261 b 932 286 922 265 926 275 b 943 319 936 296 942 311 b 961 367 944 326 953 349 b 978 410 968 385 976 404 b 989 440 978 414 983 428 b 999 465 994 451 999 464 b 1013 507 999 467 1006 486 b 1043 583 1021 528 1035 563 b 1096 646 1058 622 1082 651 b 1107 649 1100 644 1104 646 b 1121 656 1108 653 1115 656 b 1139 664 1126 656 1135 660 b 1150 671 1143 669 1147 672 b 1197 686 1157 667 1197 681 b 1210 690 1197 689 1203 690 b 1235 697 1217 690 1228 693 b 1258 706 1242 701 1253 704 b 1292 714 1265 706 1279 710 b 1340 728 1325 726 1329 728 b 1350 738 1347 729 1351 732 b 1357 739 1349 743 1351 743 b 1369 736 1361 735 1367 733 b 1381 740 1372 739 1376 740 b 1389 751 1385 740 1389 744 b 1343 758 1392 761 1388 761 b 1146 721 1293 754 1222 740 b 1101 714 1122 715 1103 711 b 1172 890 1099 717 1114 756 b 1200 957 1186 924 1199 954 b 1214 989 1200 960 1207 975 b 1258 1097 1231 1026 1257 1089 b 1271 1126 1260 1100 1265 1114 b 1274 1208 1282 1151 1285 1197 b 1268 1224 1271 1211 1268 1218 b 1239 1222 1268 1243 1251 1242 b 1017 782 1225 1199 1035 822 b 990 717 1010 765 997 736 b 963 678 979 692 972 681 b 904 661 954 676 929 668 b 819 636 881 654 842 643 b 774 625 797 629 776 624 b 769 621 772 625 769 624 b 765 615 769 617 768 615 b 538 544 756 618 663 589 b 471 528 501 532 471 525 b 508 614 471 532 482 557 b 521 643 515 629 521 642 b 528 661 522 646 525 653 b 536 682 532 669 535 679 b 546 701 538 685 542 694 b 549 722 550 710 551 718 b 551 724 547 725 549 726 b 589 807 557 721 589 792 b 594 814 589 811 592 814 b 599 826 599 814 600 818 b 599 835 596 832 597 836 z "},"I":{"ha":893,"x_min":0,"x_max":0,"o":"m 403 513 b 378 449 392 485 381 456 b 371 431 375 442 372 435 b 349 367 371 428 360 399 b 243 18 311 257 263 96 b 222 -67 235 -15 225 -54 b 207 -129 214 -97 210 -111 b 165 -160 204 -142 197 -147 b 118 -176 143 -168 122 -176 b 111 -182 114 -176 111 -179 b 104 -186 111 -185 108 -186 b 46 -228 97 -186 81 -199 b 42 -308 17 -254 14 -294 b 86 -297 60 -317 56 -318 b 121 -281 100 -289 115 -281 b 129 -275 125 -281 129 -278 b 140 -268 129 -271 135 -268 b 163 -257 147 -268 157 -264 b 178 -249 168 -251 174 -247 b 239 -221 182 -253 236 -228 b 249 -219 240 -218 244 -218 b 258 -217 254 -222 258 -219 b 264 -212 258 -212 260 -211 b 286 -204 267 -215 276 -211 b 313 -193 296 -199 307 -193 b 322 -186 318 -193 322 -190 b 328 -183 322 -183 325 -182 b 342 -178 331 -185 338 -182 b 351 -172 347 -172 351 -169 b 358 -171 351 -175 354 -174 b 383 -161 363 -168 374 -162 b 414 -147 392 -158 406 -153 b 438 -136 422 -142 433 -136 b 451 -128 443 -135 449 -132 b 458 -122 453 -124 457 -121 b 483 -117 474 -124 486 -121 b 490 -112 482 -114 485 -112 b 490 -92 506 -114 507 -94 b 368 -103 478 -90 400 -97 b 335 -107 358 -104 344 -106 b 292 -118 326 -108 307 -114 l 264 -126 l 272 -111 b 290 -72 276 -103 285 -85 b 317 -14 296 -60 307 -33 b 453 343 338 32 438 293 b 458 358 454 346 457 353 b 499 467 460 363 478 411 b 538 572 518 521 536 568 b 542 583 540 575 542 581 b 600 736 543 589 583 693 b 624 797 604 746 615 772 b 651 872 632 821 644 854 b 660 911 657 889 661 906 b 665 919 657 917 660 919 b 674 926 669 919 674 922 b 679 929 674 929 676 931 b 736 956 686 925 726 943 b 743 956 743 963 743 963 b 753 957 744 949 746 949 b 775 968 757 964 767 968 b 786 974 785 968 789 971 b 790 976 785 978 786 979 b 806 979 793 974 800 975 b 819 982 810 982 817 983 b 825 983 822 979 825 981 b 840 990 825 988 832 990 b 851 997 850 990 854 993 b 854 1000 849 1001 850 1003 b 875 1014 863 994 879 1007 b 829 1017 874 1017 853 1018 b 732 1004 789 1014 779 1013 b 703 999 721 1001 707 999 b 586 968 685 996 633 983 b 531 951 558 960 533 953 b 513 947 526 951 519 950 b 422 914 468 929 428 914 b 415 908 418 914 415 911 b 401 899 415 906 410 901 b 361 856 383 894 365 875 b 396 818 357 836 381 811 b 410 824 403 821 408 822 b 443 836 436 829 444 833 b 460 842 442 839 449 842 b 500 856 469 843 488 849 b 533 867 511 861 526 867 b 544 874 539 867 544 869 b 553 879 544 876 549 879 b 563 874 558 879 563 876 b 515 774 563 871 542 826 b 403 513 468 675 439 606 z "},"J":{"ha":1578,"x_min":0,"x_max":0,"o":"m 1524 1042 b 1535 1040 1529 1044 1535 1043 b 1550 1042 1535 1038 1542 1038 b 1563 1061 1560 1046 1564 1053 b 1540 1072 1561 1071 1557 1072 b 1435 1061 1511 1072 1440 1064 b 1414 1056 1432 1060 1422 1057 b 1381 1050 1404 1054 1389 1051 b 1333 1043 1371 1049 1350 1046 b 1293 1038 1318 1042 1300 1039 b 1207 1021 1268 1032 1221 1022 b 1178 1014 1199 1019 1186 1017 b 1151 1008 1169 1011 1158 1008 b 1117 1000 1136 1006 1117 1001 b 1101 997 1117 999 1110 997 b 853 939 1079 993 911 954 b 613 872 724 904 618 875 b 599 867 610 869 604 868 b 582 861 594 867 588 864 b 546 851 569 857 571 857 b 517 842 535 849 521 844 b 467 824 511 839 489 831 b 418 804 444 817 422 808 b 403 797 413 800 407 797 b 364 782 388 796 364 788 b 354 778 364 779 360 778 b 325 765 349 778 335 772 b 303 726 310 757 306 750 b 319 679 299 700 300 699 b 379 660 340 660 367 651 b 400 665 385 663 388 664 b 403 672 403 665 404 668 b 408 674 400 675 403 676 b 415 676 415 671 417 672 b 422 679 413 681 415 682 b 443 683 429 678 439 679 b 451 686 449 688 451 689 b 467 692 451 685 458 686 b 489 701 474 697 485 701 b 518 710 494 701 507 704 b 613 744 567 729 603 743 b 663 760 619 746 642 753 b 821 813 751 790 796 806 b 851 826 835 817 849 824 b 856 825 854 831 856 829 b 826 757 856 821 843 790 b 744 569 811 725 774 640 b 563 224 607 232 619 254 b 350 93 513 197 432 147 b 265 36 308 65 271 40 b 189 -19 260 33 225 8 b 36 -237 57 -118 14 -181 b 114 -279 43 -257 86 -281 b 136 -283 126 -279 136 -282 b 143 -285 136 -286 139 -287 b 174 -281 147 -283 161 -282 b 214 -274 186 -279 204 -276 b 240 -268 224 -271 235 -268 b 276 -251 260 -265 276 -258 b 285 -250 276 -249 281 -247 b 313 -243 289 -251 301 -249 b 340 -232 324 -237 336 -232 b 351 -225 346 -231 350 -228 b 361 -218 353 -221 357 -218 b 394 -204 365 -218 381 -212 b 428 -172 436 -182 436 -183 b 429 -169 421 -164 421 -164 b 450 -165 436 -175 440 -175 b 465 -157 457 -160 464 -156 b 524 -100 469 -161 525 -106 b 528 -97 522 -97 525 -96 b 556 -74 531 -100 543 -89 b 586 -36 568 -58 582 -42 b 632 29 604 -15 610 -7 b 739 244 663 79 715 185 b 772 307 749 271 764 300 b 788 314 789 322 794 325 b 801 319 786 310 792 313 b 824 332 811 326 821 332 b 849 346 825 332 836 339 b 875 360 861 354 872 360 b 900 375 892 361 903 367 b 874 372 896 385 874 382 b 868 369 874 369 871 368 b 821 356 865 372 844 365 b 776 339 797 346 778 339 b 799 408 775 340 786 374 b 814 453 800 413 807 433 b 888 653 836 518 872 617 b 900 700 896 672 901 693 b 904 711 899 707 900 713 b 946 807 911 710 944 785 b 954 829 946 814 950 825 b 961 849 958 833 961 842 b 967 857 961 854 964 858 b 975 863 969 854 974 857 b 985 868 978 868 982 869 b 1049 881 989 865 1022 872 b 1069 886 1054 883 1063 885 b 1083 893 1075 888 1082 890 b 1094 897 1086 896 1090 897 b 1114 899 1099 899 1107 899 b 1122 906 1121 900 1124 903 b 1126 908 1121 910 1122 910 b 1161 914 1132 907 1147 910 b 1206 926 1175 918 1196 924 b 1221 936 1217 929 1224 933 b 1224 939 1218 940 1219 942 b 1347 978 1231 935 1343 969 b 1358 978 1347 979 1353 979 b 1364 979 1363 976 1365 976 b 1369 986 1361 983 1365 986 b 1411 1000 1389 988 1410 994 b 1426 1006 1413 1003 1419 1006 b 1444 1011 1435 1006 1442 1008 b 1453 1014 1446 1015 1450 1015 b 1472 1018 1457 1013 1464 1014 b 1497 1026 1479 1022 1490 1025 b 1515 1035 1517 1028 1518 1029 b 1524 1042 1513 1038 1517 1040 z m 531 107 b 285 -143 461 -4 378 -89 b 172 -199 246 -165 186 -194 b 139 -206 167 -199 151 -203 b 89 -206 108 -214 89 -214 b 94 -204 89 -203 92 -201 b 100 -201 99 -206 100 -204 b 139 -156 100 -197 118 -176 b 169 -108 172 -122 176 -117 b 172 -107 163 -99 163 -99 b 196 -103 182 -114 185 -112 b 236 -64 221 -81 244 -58 b 232 -61 231 -67 229 -65 b 244 -57 235 -57 240 -56 b 253 -54 249 -58 253 -57 b 258 -51 253 -50 256 -49 b 289 -18 263 -54 292 -25 b 297 -17 289 -15 292 -15 b 306 -11 303 -19 306 -17 b 314 -1 306 -6 310 -1 b 372 40 328 -1 376 33 b 376 44 369 44 371 46 b 394 60 386 40 401 53 b 400 60 393 61 394 63 b 422 71 404 58 414 63 b 444 86 431 79 440 86 b 451 92 449 86 451 89 b 461 99 451 96 456 99 b 468 106 465 99 469 101 b 474 111 467 110 469 113 b 481 115 478 110 481 113 b 488 121 481 119 483 121 b 504 132 492 121 499 126 b 510 136 508 138 513 139 b 518 140 508 132 513 135 b 532 151 522 146 529 151 b 535 157 535 151 536 154 b 543 158 535 160 538 161 b 551 165 549 157 551 158 b 557 174 551 169 554 174 b 531 107 569 174 563 157 z "},"K":{"ha":1139,"x_min":0,"x_max":0,"o":"m 621 -33 b 747 -31 656 -33 711 -32 b 861 -14 844 -29 861 -26 b 836 4 861 -6 854 0 b 803 14 822 8 807 13 b 779 19 799 17 788 18 b 721 31 771 21 744 25 b 551 60 618 51 610 53 b 478 69 536 61 504 65 b 399 78 451 72 417 76 b 363 85 381 81 365 83 b 383 142 360 88 369 113 l 408 194 l 461 226 b 515 261 489 244 514 260 b 554 285 518 264 535 275 b 679 368 611 318 679 363 b 685 371 679 371 682 372 b 700 376 688 368 694 371 b 711 385 704 381 710 385 b 782 432 721 385 785 428 b 786 436 779 436 782 438 b 832 463 796 435 832 456 b 838 464 832 465 835 465 b 843 467 842 461 843 463 b 851 472 843 469 847 472 b 876 488 856 472 867 479 b 900 501 886 496 896 501 b 1078 621 908 501 1049 596 b 1108 644 1086 628 1100 638 b 1125 693 1124 654 1125 657 b 1117 733 1125 721 1122 732 b 1038 696 1108 736 1046 706 b 1000 674 1035 693 1019 683 b 967 653 982 665 967 656 b 961 649 967 650 964 649 b 915 624 958 649 938 638 b 786 547 881 601 851 586 b 754 528 775 542 760 532 b 499 376 728 510 499 374 b 685 750 499 381 601 586 b 738 919 746 868 753 890 b 726 940 733 926 729 936 b 717 951 725 946 721 950 b 567 731 711 953 619 818 b 335 301 497 613 390 417 b 299 253 322 275 310 258 b 275 238 290 249 279 242 b 251 221 271 233 260 225 b 163 142 222 204 172 160 b 153 67 150 117 146 82 b 176 40 157 60 168 47 b 179 -15 197 24 197 22 b 144 -92 172 -32 157 -67 b 32 -382 88 -217 44 -326 b 24 -407 31 -389 26 -401 b 21 -418 21 -412 19 -418 b 18 -432 22 -418 21 -424 b 18 -458 14 -443 14 -451 b 35 -471 22 -465 29 -471 b 78 -421 47 -471 81 -432 b 79 -418 76 -418 78 -417 b 114 -376 86 -425 113 -390 b 119 -365 114 -369 117 -365 b 140 -339 126 -365 140 -347 b 135 -339 142 -337 138 -336 b 132 -336 131 -342 129 -340 b 142 -333 135 -332 139 -331 b 158 -312 144 -335 151 -325 b 183 -264 165 -299 176 -278 b 196 -232 190 -250 196 -236 b 200 -228 196 -228 197 -226 b 211 -214 201 -229 207 -222 b 210 -193 217 -203 217 -197 b 213 -192 204 -189 206 -189 b 228 -169 222 -194 229 -183 b 233 -161 228 -167 231 -162 b 286 -64 239 -157 250 -137 l 308 -19 l 340 -21 b 378 -24 358 -21 375 -22 b 467 -28 381 -25 419 -28 b 556 -32 513 -29 553 -31 b 621 -33 558 -33 588 -33 z "},"L":{"ha":972,"x_min":0,"x_max":0,"o":"m 893 918 b 901 929 894 917 899 921 b 903 960 908 950 908 957 b 897 976 900 961 897 969 b 892 994 897 985 894 993 b 886 989 889 997 886 994 b 881 981 886 985 883 981 b 839 924 875 981 839 931 b 831 910 839 921 835 915 b 819 890 825 904 819 894 b 810 871 818 886 814 876 b 718 699 801 861 771 806 b 686 640 703 668 688 642 b 551 375 681 636 590 458 b 363 -140 458 174 374 -56 b 356 -162 361 -149 358 -158 b 353 -194 354 -165 353 -179 b 340 -221 353 -217 350 -221 b 319 -225 335 -221 325 -222 b 289 -235 314 -229 300 -232 b 233 -250 278 -236 253 -243 b 189 -264 214 -256 193 -262 b 86 -310 171 -268 117 -293 b 19 -376 47 -332 26 -353 b 25 -414 14 -393 14 -399 b 43 -431 32 -424 40 -431 b 88 -411 46 -431 65 -422 b 140 -387 110 -400 133 -390 b 150 -378 149 -385 153 -381 b 153 -375 149 -374 149 -372 b 239 -356 160 -379 243 -361 b 261 -350 238 -353 247 -351 b 289 -344 274 -350 286 -347 b 310 -339 290 -343 300 -339 b 329 -332 319 -337 328 -335 b 339 -329 329 -329 335 -328 b 354 -325 344 -332 351 -329 b 358 -324 357 -321 358 -319 b 392 -319 358 -331 386 -328 b 403 -318 393 -317 399 -317 b 411 -317 408 -319 411 -319 b 436 -310 411 -314 422 -311 b 464 -303 450 -310 463 -307 b 469 -299 464 -299 468 -297 b 521 -293 472 -301 496 -299 b 582 -281 546 -287 574 -282 b 599 -274 589 -279 597 -276 b 608 -271 599 -271 604 -269 b 629 -264 613 -274 622 -269 b 638 -261 636 -257 640 -257 b 643 -265 633 -267 635 -268 b 676 -258 650 -262 664 -260 b 760 -231 714 -256 764 -239 b 765 -232 757 -226 758 -226 b 775 -232 774 -237 775 -237 b 779 -231 775 -225 776 -225 b 786 -232 781 -237 783 -237 b 822 -222 789 -229 804 -225 b 861 -210 840 -221 857 -215 b 865 -207 865 -204 868 -203 b 882 -210 861 -215 875 -218 b 892 -206 885 -208 889 -206 b 899 -203 896 -204 899 -204 b 926 -199 900 -203 913 -200 b 957 -189 942 -197 956 -193 b 963 -190 961 -185 963 -185 b 969 -192 963 -196 964 -197 b 994 -189 975 -187 986 -186 b 1013 -181 1010 -192 1013 -190 b 822 -158 1015 -157 947 -150 b 733 -165 800 -160 761 -162 b 546 -186 679 -168 604 -176 b 497 -193 525 -189 503 -193 b 442 -203 490 -194 465 -199 b 396 -207 418 -207 397 -208 b 414 -174 394 -204 403 -190 b 435 -142 425 -157 435 -143 b 450 -117 435 -140 442 -129 b 543 75 468 -90 528 33 b 560 111 550 92 557 108 b 561 125 563 115 564 121 b 563 131 560 128 560 131 b 607 249 571 131 613 240 b 608 253 606 253 606 254 b 640 313 615 249 640 296 b 644 324 640 319 642 324 b 660 374 651 324 664 365 b 661 375 657 376 658 378 b 676 393 664 372 671 381 b 682 417 682 406 685 415 b 690 433 679 418 682 425 b 704 460 699 442 704 454 b 708 472 704 465 707 471 b 728 521 718 475 733 517 b 731 535 724 524 725 528 b 740 550 735 539 739 546 b 746 554 742 553 744 556 b 747 564 749 554 749 558 b 753 579 746 571 747 578 b 754 604 763 583 763 592 b 763 606 751 611 753 611 b 768 617 776 599 779 604 b 769 622 761 622 761 624 b 776 631 775 621 776 624 b 783 650 775 636 778 644 b 792 668 788 654 792 663 b 797 674 792 672 794 675 b 803 697 806 668 811 688 b 804 704 799 703 799 704 b 807 711 807 704 808 708 b 813 714 803 717 806 717 b 819 714 819 713 822 713 b 822 726 818 717 818 722 b 825 743 826 731 828 738 b 828 751 824 747 825 751 b 832 756 831 751 833 754 b 843 775 831 768 835 775 b 846 779 850 776 851 778 b 839 788 843 781 839 785 b 849 790 839 792 843 792 b 854 792 853 789 856 789 b 857 801 853 796 853 799 b 857 815 861 804 861 808 b 860 825 847 832 850 838 b 864 824 868 814 868 814 b 868 831 861 833 863 835 b 872 832 874 828 875 828 b 896 900 868 840 883 885 b 897 906 903 908 904 910 b 889 910 890 900 889 900 b 893 918 889 915 890 919 z m 625 293 b 617 292 621 292 617 290 b 625 301 617 293 621 297 b 635 303 631 306 635 306 b 625 293 635 299 631 294 z m 718 497 b 710 493 714 488 710 485 b 717 503 710 497 713 501 b 718 497 719 504 721 503 z "},"M":{"ha":2247,"x_min":0,"x_max":0,"o":"m 185 490 b 149 458 181 486 164 472 b 38 344 86 406 64 382 b 43 263 14 311 17 278 b 64 260 57 254 61 253 b 79 269 65 265 72 269 b 89 279 89 269 92 272 b 150 347 85 292 104 314 b 178 378 167 360 179 374 b 189 385 176 382 181 386 b 200 394 197 385 201 389 b 206 399 200 399 201 401 b 211 403 208 397 211 399 b 219 406 211 407 215 408 b 222 414 225 401 225 404 b 225 419 218 424 219 425 b 239 417 229 414 235 413 b 299 461 243 421 271 440 b 347 503 328 482 350 500 b 356 507 346 506 349 507 b 403 538 369 506 403 528 b 408 540 403 542 404 542 b 469 585 415 535 474 578 b 479 588 468 589 472 589 b 497 590 486 585 494 586 b 517 606 499 593 508 600 b 553 628 525 611 540 621 b 579 643 564 636 576 642 b 606 656 589 644 603 651 b 646 681 607 658 625 669 b 678 707 667 692 681 703 b 681 710 675 711 676 713 b 760 750 690 703 756 736 b 772 761 763 757 768 761 b 771 754 778 761 778 758 b 832 776 750 739 774 747 b 875 793 847 783 867 790 b 896 804 885 796 893 801 b 911 811 897 808 904 811 b 924 815 918 811 924 813 b 944 822 924 818 933 822 b 994 826 956 822 978 825 b 1032 793 1026 829 1032 825 b 882 372 1032 754 978 601 b 801 171 853 299 817 208 b 764 75 788 133 771 90 b 740 -108 722 -29 715 -79 b 761 -125 749 -118 757 -125 b 778 -136 764 -125 772 -131 b 801 -128 788 -146 790 -146 b 828 -79 808 -117 819 -94 b 856 -25 835 -64 847 -40 b 943 128 894 44 933 113 b 951 151 950 136 953 147 b 954 153 949 156 950 157 b 969 168 958 150 965 156 b 990 203 974 178 983 194 b 1015 238 997 210 1008 226 b 1061 304 1022 249 1043 278 b 1094 358 1081 329 1094 354 b 1101 364 1094 364 1099 367 b 1108 365 1106 361 1108 363 b 1124 392 1108 369 1115 381 b 1135 419 1132 403 1138 415 b 1138 421 1133 422 1135 424 b 1156 431 1142 419 1150 424 b 1163 444 1163 439 1165 444 b 1233 531 1158 444 1189 482 b 1267 576 1251 550 1267 571 b 1274 585 1267 581 1269 585 b 1317 619 1278 585 1297 601 b 1367 663 1336 639 1358 657 b 1378 676 1375 667 1381 674 b 1390 686 1376 679 1382 683 b 1410 683 1400 688 1408 686 b 1353 517 1413 679 1386 606 b 1210 60 1251 254 1210 119 b 1267 -12 1210 43 1254 -12 b 1325 60 1271 -12 1296 19 b 1403 165 1353 99 1389 147 b 1426 207 1417 185 1428 203 b 1431 210 1426 211 1428 211 b 1446 221 1435 207 1442 213 b 1474 258 1451 231 1464 247 b 1574 390 1529 322 1578 386 b 1578 396 1571 393 1574 396 b 1711 557 1589 396 1711 543 b 1717 563 1711 561 1714 564 b 1826 674 1724 560 1743 581 b 1929 781 1863 715 1910 764 b 1961 821 1950 799 1964 815 b 1963 822 1960 825 1960 826 b 1994 842 1965 819 1979 828 b 2075 901 2025 869 2069 901 b 2074 883 2078 901 2076 893 b 2064 849 2071 872 2065 857 b 1849 382 2057 829 1876 436 b 1674 -1 1824 335 1674 4 b 1658 -42 1674 -4 1667 -22 b 1600 -250 1633 -104 1604 -206 b 1631 -361 1594 -303 1604 -336 l 1651 -381 l 1656 -339 b 1719 -133 1658 -300 1704 -154 b 1722 -125 1722 -129 1724 -125 b 1740 -76 1721 -125 1729 -103 b 1763 -22 1753 -49 1763 -25 b 1833 140 1763 -21 1794 53 b 2121 914 2083 706 2124 815 b 2078 1000 2119 972 2106 1000 b 1788 738 2049 1000 1938 900 b 1347 229 1649 586 1360 251 b 1340 244 1338 210 1332 221 b 1350 274 1346 257 1350 271 b 1357 293 1350 276 1353 286 b 1454 603 1390 383 1442 546 b 1419 796 1475 690 1456 796 b 1018 376 1361 796 1229 658 b 964 304 990 339 965 306 b 971 329 961 301 965 313 b 1086 722 1035 494 1081 653 b 1067 882 1089 757 1076 856 b 1021 940 1054 914 1044 926 b 806 889 981 963 933 953 b 417 658 717 846 454 690 b 393 642 406 650 396 642 b 363 622 392 642 378 633 b 329 600 347 611 333 601 b 200 504 321 596 211 515 b 185 490 196 500 189 494 z "},"N":{"ha":1606,"x_min":0,"x_max":0,"o":"m 844 318 b 850 324 846 318 849 321 b 849 329 853 326 851 329 b 842 324 844 329 842 326 b 844 318 842 321 843 318 z m 1371 211 b 1476 522 1374 222 1453 458 b 1578 931 1569 781 1592 869 b 1435 978 1551 1044 1522 1053 b 1179 710 1390 939 1233 775 b 1121 640 1160 686 1133 656 b 1064 572 1108 626 1083 596 b 1014 513 1046 549 1024 522 b 974 464 1006 503 988 481 b 936 418 961 446 943 426 b 888 358 929 411 907 383 b 822 281 867 333 838 299 b 785 235 807 264 790 243 b 669 94 776 221 749 188 l 643 64 l 649 86 b 657 115 653 99 657 113 b 674 168 661 131 668 156 b 688 232 685 197 692 226 b 690 235 686 236 686 238 b 714 289 693 233 704 257 b 739 354 724 319 735 350 b 738 360 743 363 743 363 b 738 372 726 353 728 361 b 743 396 743 378 746 388 b 747 406 740 406 742 408 b 754 413 751 403 754 406 b 763 433 754 419 757 429 b 763 444 768 440 768 443 b 754 454 757 447 754 451 b 764 456 754 457 758 458 b 771 465 772 453 774 454 b 774 479 769 474 771 479 b 776 486 776 479 778 482 b 778 494 774 489 775 493 b 792 526 781 496 786 510 b 793 564 800 551 800 557 b 800 585 785 574 788 585 b 799 579 804 585 804 583 b 796 569 793 576 793 572 b 813 610 804 564 815 592 b 815 622 811 618 813 624 b 828 649 818 619 824 632 b 844 707 833 667 840 692 b 856 753 850 722 854 743 b 861 779 857 764 858 775 b 863 806 863 782 864 794 b 867 828 863 818 864 828 b 869 853 871 828 872 838 b 846 921 861 897 851 925 b 844 925 842 919 840 921 b 800 1006 851 938 822 992 b 756 1014 788 1015 775 1017 b 699 990 725 1010 699 999 b 692 989 699 988 694 986 b 688 982 686 992 685 990 b 683 978 692 972 690 971 b 635 960 676 983 667 981 b 590 928 614 944 593 931 b 564 910 586 925 575 917 b 543 893 553 903 543 894 b 531 885 543 890 538 886 b 522 872 522 882 519 878 b 521 869 525 868 524 867 b 499 860 517 871 507 868 b 478 842 492 853 482 844 b 461 832 475 839 467 835 b 450 821 456 831 450 825 b 444 818 450 817 447 815 b 438 815 440 819 438 818 b 428 808 438 811 433 808 b 421 803 422 808 419 806 b 403 785 424 801 415 793 b 381 764 389 776 379 768 b 365 750 381 760 374 754 b 332 726 356 747 340 736 b 313 710 324 718 315 710 b 293 693 310 710 301 701 b 271 676 285 685 275 676 b 267 672 267 676 264 675 b 232 635 268 671 253 654 b 182 589 210 617 188 596 b 136 538 176 581 156 558 b 72 447 101 499 72 458 b 68 440 72 443 71 440 b 31 369 61 440 42 403 b 78 249 14 318 33 269 b 140 238 114 231 126 229 b 153 236 150 242 153 242 b 156 232 153 232 154 231 b 151 253 158 233 156 243 b 129 269 147 265 140 269 b 88 289 114 271 74 289 b 81 307 90 289 88 297 b 81 317 71 324 71 325 b 99 315 89 308 93 308 b 97 319 104 322 104 324 b 100 325 92 317 93 319 b 103 346 110 333 110 336 b 106 351 97 354 97 354 b 115 356 111 349 115 350 b 119 360 115 360 118 363 b 150 401 125 354 154 394 b 160 410 149 404 153 408 b 171 424 165 411 171 418 b 178 433 171 429 174 433 b 190 469 189 433 197 460 b 197 475 185 476 186 478 b 207 478 206 472 210 474 b 211 493 204 482 207 489 b 221 494 218 497 221 499 b 214 485 221 490 218 486 b 214 481 207 482 207 481 b 228 496 218 481 224 488 b 242 513 231 506 238 513 b 254 521 247 513 253 517 b 258 521 257 526 257 526 b 246 508 258 515 253 510 b 233 494 239 506 233 500 b 251 503 233 486 239 489 b 271 531 263 513 271 525 b 276 539 271 535 274 539 b 283 546 281 539 283 542 b 276 549 283 550 279 550 b 274 551 271 544 271 546 b 286 553 276 557 281 557 b 301 556 292 547 296 549 b 303 565 307 563 307 565 b 296 557 299 565 296 561 b 292 554 296 553 293 551 b 318 574 283 563 303 578 b 329 578 328 572 332 574 b 332 585 328 582 329 585 b 346 600 336 585 342 592 b 364 614 351 608 358 614 b 371 622 368 614 372 618 b 379 635 371 628 374 633 b 385 644 385 638 388 640 b 393 658 383 647 388 653 b 396 656 403 665 403 665 b 394 644 389 647 389 644 b 404 654 399 644 403 649 b 413 660 407 658 411 663 b 422 672 415 658 419 664 b 431 678 425 682 426 683 b 446 683 435 672 438 674 b 449 696 453 692 454 696 b 446 700 446 696 444 699 b 458 697 449 703 454 701 b 472 696 464 692 469 692 b 468 706 474 699 472 703 b 474 708 463 707 467 708 b 507 725 482 710 497 717 b 514 744 522 739 524 742 b 518 747 507 747 508 747 b 546 756 546 747 550 749 b 550 763 544 758 546 763 b 553 774 554 763 556 767 b 571 788 549 788 565 799 b 564 782 574 785 569 782 b 561 775 556 782 554 781 b 625 818 571 769 617 800 b 640 824 628 824 635 825 b 647 831 647 821 649 822 b 653 846 647 838 649 844 b 661 840 658 847 661 844 b 654 838 661 836 658 836 b 651 835 650 840 649 840 b 669 853 658 824 674 839 b 676 854 665 863 667 863 b 686 851 682 849 686 847 b 686 867 685 854 685 861 b 692 864 686 874 689 874 b 697 863 697 851 697 851 b 704 871 699 869 701 872 b 711 872 708 868 711 869 b 744 888 711 879 735 890 b 739 896 749 888 746 890 b 742 904 728 906 728 906 b 754 899 749 904 754 901 b 768 903 754 896 761 897 b 775 825 797 922 799 907 b 633 424 750 738 671 513 b 518 56 600 349 526 110 b 557 -97 507 -22 522 -83 b 589 -111 568 -101 582 -108 b 611 -117 594 -114 604 -117 b 651 -76 628 -117 657 -87 b 654 -74 649 -72 650 -71 b 682 -44 663 -79 688 -53 b 685 -42 679 -39 681 -39 b 703 -28 689 -43 696 -37 b 733 14 708 -18 724 1 b 758 49 744 26 756 42 b 767 60 760 54 764 60 b 789 88 769 60 779 72 b 819 129 799 103 813 121 b 838 153 826 138 835 149 b 871 196 842 158 856 178 b 889 233 888 218 894 231 b 892 236 885 235 885 236 b 950 304 900 238 949 292 b 953 314 950 307 951 311 b 953 325 953 317 953 322 b 956 328 951 329 954 331 b 983 342 961 322 983 333 b 994 360 983 346 989 354 b 1053 442 1019 388 1054 436 b 1057 444 1053 446 1054 446 b 1075 460 1061 442 1068 449 b 1090 479 1081 471 1088 479 b 1094 488 1093 479 1094 483 b 1115 515 1094 490 1104 503 b 1169 581 1143 544 1169 576 b 1192 607 1169 582 1179 594 b 1208 633 1203 618 1211 631 b 1211 635 1206 638 1207 638 b 1246 678 1218 631 1249 667 b 1250 682 1244 681 1246 682 b 1322 757 1254 681 1300 728 b 1350 783 1325 761 1338 774 b 1363 797 1361 794 1367 800 b 1358 800 1357 794 1356 796 b 1369 808 1361 804 1365 808 b 1399 829 1374 808 1388 818 b 1442 869 1411 842 1431 860 b 1463 890 1454 881 1464 889 b 1463 892 1461 892 1461 893 b 1513 929 1465 889 1507 921 b 1517 925 1515 933 1517 931 b 1468 786 1517 910 1492 839 b 1368 549 1446 738 1368 551 b 1353 510 1368 547 1361 529 b 1210 60 1318 429 1225 139 b 1203 -319 1175 -114 1172 -256 b 1253 -372 1213 -339 1233 -360 b 1271 -365 1272 -383 1276 -381 b 1264 -292 1269 -357 1265 -324 b 1350 139 1261 -206 1293 -40 b 1371 211 1360 174 1369 206 z m 339 599 b 329 589 339 596 335 590 b 322 593 324 586 321 588 b 339 599 325 603 339 608 z "},"O":{"ha":1054,"x_min":0,"x_max":0,"o":"m 699 82 b 719 111 708 97 718 110 b 767 192 726 117 767 186 b 772 200 767 196 769 199 b 831 297 779 203 831 288 b 836 306 831 300 833 304 b 947 526 840 308 925 475 b 1013 926 1019 697 1040 819 b 954 1026 997 985 985 1007 b 829 1057 914 1054 881 1061 b 772 1049 804 1056 778 1051 b 751 1042 767 1044 757 1042 b 656 1004 738 1042 683 1021 b 615 983 644 997 626 988 b 597 971 606 979 597 974 b 592 967 597 968 594 967 b 515 919 585 967 519 926 b 493 904 514 917 503 910 b 292 728 456 882 358 796 b 71 426 197 632 110 513 b 21 197 35 349 14 256 b 96 67 26 142 57 88 b 117 53 107 61 117 54 b 142 38 117 50 128 43 b 207 31 168 28 211 22 b 214 32 206 33 208 33 b 218 -11 221 28 222 22 b 224 -197 210 -79 213 -164 b 294 -261 236 -231 246 -240 b 386 -264 325 -275 358 -275 b 472 -199 410 -254 457 -218 b 486 -183 479 -187 486 -181 b 513 -160 486 -186 497 -175 b 621 -26 547 -122 622 -32 b 635 -7 621 -25 626 -15 b 664 43 653 11 668 38 b 665 44 663 46 663 46 b 699 82 669 40 681 51 z m 632 132 b 369 -150 574 44 433 -107 b 296 -182 329 -176 300 -189 b 294 -150 293 -178 293 -164 b 301 -103 297 -137 300 -115 b 339 50 304 -79 329 25 b 350 64 342 58 347 64 b 367 76 353 64 360 69 b 381 85 375 83 381 88 b 438 128 381 81 421 110 b 457 138 444 135 454 139 b 461 139 461 135 463 136 b 474 154 458 142 464 149 b 488 176 486 161 489 167 b 460 179 483 189 475 190 b 376 149 442 168 381 144 b 378 163 375 150 375 157 b 381 178 381 168 382 175 b 386 182 381 179 383 182 b 390 186 389 182 392 183 b 431 276 390 192 410 238 b 442 304 439 292 443 304 b 447 317 439 304 442 310 b 454 328 453 322 457 328 b 465 349 453 328 457 338 b 492 394 472 360 485 381 b 515 439 499 408 510 428 b 557 513 522 450 542 483 b 613 604 574 542 599 583 b 638 658 626 626 638 650 b 617 703 638 678 626 703 b 521 600 607 703 549 640 b 476 538 515 593 496 565 b 293 214 418 457 329 300 b 263 142 282 188 268 156 l 251 115 l 197 119 b 92 147 136 124 100 133 b 140 342 78 169 103 264 b 271 540 161 382 251 519 b 340 628 301 574 342 624 b 344 631 340 631 342 632 b 382 676 351 629 386 671 b 386 676 379 678 382 678 b 422 701 392 675 406 683 b 476 750 438 717 461 739 b 507 781 490 761 504 775 b 514 788 508 786 511 789 b 546 810 521 785 551 806 b 551 814 544 813 546 814 b 576 831 556 814 568 821 b 601 844 586 839 597 846 b 608 847 606 843 608 844 b 629 863 608 850 618 857 b 650 878 640 868 650 875 b 654 883 650 882 651 883 b 703 908 660 882 699 901 b 710 914 704 913 708 914 b 764 931 713 913 736 921 b 829 951 792 940 821 950 b 928 949 853 957 911 956 b 944 947 935 946 943 944 b 949 944 946 949 949 947 b 957 938 949 940 951 938 b 978 858 969 938 978 904 b 956 738 978 817 975 800 b 692 222 919 615 804 389 b 632 132 664 179 636 139 z "},"P":{"ha":1413,"x_min":0,"x_max":0,"o":"m 118 439 b 128 440 117 442 121 443 b 131 456 139 438 139 438 b 110 474 125 467 117 474 b 97 479 103 474 97 476 b 236 604 97 486 190 569 b 408 721 293 647 401 721 b 418 729 411 721 415 725 b 426 738 421 735 425 739 b 444 751 433 735 449 746 b 447 753 443 754 444 756 b 622 838 453 750 626 833 b 632 842 621 839 625 840 b 681 858 639 842 661 850 b 724 876 700 868 719 875 b 786 896 729 876 757 886 b 850 917 814 906 843 915 b 900 928 863 919 876 922 b 953 938 908 929 932 933 b 1218 940 1065 956 1132 956 b 1301 907 1238 936 1293 914 b 1315 904 1306 903 1313 903 b 1319 904 1319 907 1321 907 b 1329 882 1319 901 1324 892 b 1275 697 1354 846 1331 764 b 1025 468 1222 635 1089 513 b 993 444 1010 457 994 446 b 982 438 992 443 986 439 b 938 411 976 435 957 424 b 789 331 918 399 851 363 b 658 265 725 300 667 269 b 647 272 643 257 638 261 b 665 314 650 275 658 294 b 689 372 672 332 683 358 b 724 454 694 385 710 422 b 800 624 756 531 758 535 b 867 819 853 740 871 793 b 836 878 863 843 844 878 b 763 758 831 878 800 829 b 714 671 750 736 728 696 b 550 346 686 621 568 389 b 519 275 543 331 529 300 b 460 175 483 190 479 185 b 208 63 415 153 279 92 b 163 42 188 53 167 44 b 131 36 157 39 143 36 b 111 21 101 35 97 31 b 156 19 122 13 143 13 b 165 22 160 22 164 24 b 188 25 168 19 178 21 b 219 32 197 28 211 31 b 263 44 226 33 246 39 b 306 56 279 50 300 56 b 339 67 313 57 328 61 b 400 85 363 76 381 82 b 422 93 407 86 418 89 b 432 96 428 97 432 99 b 438 100 432 93 435 94 b 419 32 449 117 443 94 b 392 -40 406 -3 394 -36 b 347 -197 385 -60 351 -176 b 338 -299 329 -293 329 -293 b 368 -294 350 -307 371 -303 b 374 -287 368 -290 369 -287 b 376 -281 376 -287 378 -285 b 381 -275 374 -278 376 -275 b 404 -244 389 -275 404 -256 b 421 -224 406 -242 413 -233 b 478 -119 438 -206 478 -132 b 483 -110 478 -115 481 -111 b 515 -28 490 -107 519 -35 b 517 -25 514 -25 514 -24 b 531 -10 519 -26 526 -19 b 572 90 538 8 563 68 b 633 174 597 153 611 171 b 671 186 640 175 657 181 b 703 197 686 192 700 196 b 710 199 704 197 708 199 b 717 201 711 200 714 201 b 776 225 724 204 743 211 b 828 246 794 232 818 242 b 847 258 839 250 847 256 b 854 263 847 261 850 264 b 892 274 871 261 882 264 b 904 282 897 279 903 283 b 914 288 908 278 918 282 b 919 289 913 290 914 292 b 1067 363 929 286 1011 326 b 1171 447 1158 424 1176 439 b 1175 449 1169 450 1171 451 b 1244 507 1179 446 1204 467 b 1397 817 1358 621 1393 693 b 1374 968 1399 879 1390 935 b 1236 1076 1347 1018 1292 1063 b 1038 1086 1194 1088 1083 1093 b 990 1081 1028 1086 1007 1082 b 943 1072 975 1078 953 1075 b 890 1060 933 1069 910 1064 b 569 939 806 1043 693 1001 b 351 819 468 889 371 836 b 297 782 346 815 321 797 b 250 750 272 765 251 751 b 215 721 249 747 232 735 b 29 468 68 601 14 528 b 96 432 35 446 67 429 b 118 439 110 433 119 436 z "},"Q":{"ha":1185,"x_min":0,"x_max":0,"o":"m 31 -296 b 93 -304 42 -311 56 -312 b 149 -296 104 -303 129 -299 b 183 -287 167 -293 182 -289 b 199 -285 183 -285 190 -285 b 286 -278 217 -287 286 -281 b 315 -276 286 -276 300 -276 b 347 -272 332 -278 346 -275 b 360 -269 349 -268 354 -267 b 396 -268 365 -271 381 -271 b 478 -262 419 -264 432 -264 b 492 -256 483 -262 489 -260 b 496 -257 496 -251 497 -251 b 558 -249 496 -264 513 -261 b 561 -251 568 -246 569 -247 b 558 -257 556 -254 554 -257 b 575 -250 563 -258 569 -254 b 588 -247 581 -246 586 -244 b 610 -250 589 -251 599 -251 b 658 -246 621 -249 642 -246 b 699 -239 674 -244 692 -242 b 715 -237 704 -236 713 -236 b 732 -239 718 -240 726 -240 b 760 -233 744 -233 749 -233 b 765 -228 765 -233 768 -231 b 779 -228 764 -224 768 -224 b 797 -231 789 -233 796 -233 b 807 -228 799 -226 803 -226 b 815 -226 811 -231 815 -229 b 839 -225 817 -224 826 -224 b 863 -224 853 -226 863 -225 b 892 -222 864 -222 876 -221 b 925 -222 907 -224 921 -224 b 1001 -219 935 -219 958 -218 b 1049 -219 1024 -221 1044 -221 b 1065 -218 1051 -218 1060 -217 b 1075 -211 1071 -219 1075 -217 b 1057 -196 1076 -203 1071 -199 b 772 -176 1033 -192 814 -176 b 599 -175 744 -178 617 -175 b 590 -178 594 -174 590 -175 b 551 -179 590 -179 572 -181 l 511 -178 l 554 -144 b 593 -107 576 -126 594 -110 b 599 -103 592 -104 594 -101 b 625 -79 608 -103 629 -85 b 625 -78 624 -76 624 -76 b 650 -53 632 -82 654 -60 b 653 -50 647 -49 649 -47 b 756 50 660 -54 711 -4 b 776 72 764 61 774 71 b 779 85 781 75 781 79 b 779 88 776 89 776 90 b 900 235 783 83 839 149 b 1044 471 946 297 1006 394 b 1076 526 1060 499 1074 524 b 1085 547 1079 531 1083 539 b 1096 572 1088 556 1092 567 b 1154 740 1111 596 1139 676 b 1165 947 1164 783 1171 908 b 1086 1076 1156 1006 1129 1050 b 915 1085 1051 1099 983 1101 b 582 893 811 1058 693 992 b 304 515 446 775 351 646 b 276 301 285 461 269 343 b 304 231 278 285 290 254 l 326 189 l 304 139 b 249 -54 278 76 251 -12 b 274 -169 244 -108 251 -143 l 294 -193 l 243 -203 b 185 -210 215 -207 189 -211 b 156 -218 182 -210 168 -214 b 121 -226 142 -222 126 -226 b 71 -242 115 -228 92 -235 b 31 -296 25 -260 14 -275 z m 335 346 b 379 500 342 394 369 488 b 401 540 382 503 392 521 b 422 579 410 560 419 578 b 425 590 425 581 426 585 b 428 599 424 594 425 599 b 483 675 435 599 483 664 b 488 679 485 679 486 681 b 507 699 489 678 497 686 b 618 810 528 725 568 765 b 650 847 638 828 653 846 b 651 850 647 850 649 851 b 713 894 660 847 717 888 b 719 899 711 897 714 899 b 771 925 724 899 747 910 b 914 992 817 954 889 986 b 928 999 924 993 929 996 b 942 1001 926 1001 933 1001 b 971 1003 950 1000 964 1000 b 1076 993 996 1010 1056 1004 b 1128 915 1111 974 1124 954 b 1040 603 1138 838 1104 721 b 719 144 936 411 861 303 b 485 -68 664 82 525 -43 b 406 -112 435 -100 411 -112 b 378 -121 401 -114 389 -117 b 331 -128 367 -125 346 -128 l 306 -126 l 313 -90 b 368 75 321 -46 343 22 b 382 122 378 97 383 118 b 385 124 379 126 381 126 b 392 125 388 121 392 122 b 411 126 392 128 400 129 b 440 132 425 122 432 125 b 431 169 453 144 447 168 b 429 193 417 171 417 172 b 436 219 435 201 438 214 b 439 225 433 226 435 229 b 454 236 443 222 449 226 b 583 419 469 264 551 381 b 606 453 600 440 610 456 b 613 461 600 450 603 454 b 647 496 621 468 636 483 b 696 549 657 508 679 532 b 724 582 713 565 725 581 b 733 589 722 585 726 588 b 746 600 740 590 746 596 b 753 608 747 604 750 608 b 756 615 757 608 758 611 b 758 618 754 618 754 619 b 774 633 765 613 779 626 b 775 635 772 636 772 636 b 824 668 779 632 800 647 b 863 706 847 688 865 706 b 872 710 860 707 864 708 b 886 731 885 713 888 715 b 815 743 885 775 871 778 b 393 303 672 654 494 468 b 351 249 374 272 356 247 b 338 271 349 249 342 260 b 335 346 329 289 329 300 z "},"R":{"ha":1288,"x_min":0,"x_max":0,"o":"m 1215 682 b 1254 892 1261 747 1274 815 b 1172 981 1242 940 1221 963 b 967 971 1138 992 1018 986 b 938 963 957 967 944 964 b 622 847 849 946 738 904 b 436 744 506 790 478 774 b 406 725 421 733 407 725 b 346 683 404 725 376 707 b 22 354 186 571 46 426 b 32 272 14 326 18 285 b 97 249 53 256 79 244 b 108 267 114 251 114 253 b 92 281 106 274 97 281 b 81 286 86 281 81 283 b 108 329 81 294 99 322 b 108 340 118 335 118 346 b 106 342 104 339 103 339 b 114 346 107 343 111 346 b 136 369 122 346 139 364 b 138 372 133 372 135 374 b 193 429 146 369 197 422 b 194 431 192 432 192 433 b 274 490 199 428 265 478 b 429 608 278 496 425 608 b 486 644 431 608 457 624 b 493 656 492 649 494 653 b 499 657 492 658 494 658 b 508 660 504 656 508 657 b 513 664 508 664 510 665 b 539 685 521 660 544 678 b 543 688 538 689 539 690 b 576 699 546 685 561 690 b 608 714 592 707 606 714 b 572 653 611 714 594 686 b 532 589 550 618 532 590 b 500 533 532 588 518 563 b 357 254 457 461 407 364 b 282 133 314 161 297 133 b 274 128 278 133 274 131 b 263 119 274 125 268 121 b 236 71 247 114 242 103 b 244 33 233 50 235 44 l 258 21 l 243 -24 b 204 -181 222 -83 204 -157 b 215 -200 204 -196 206 -200 b 229 -190 221 -200 228 -196 b 232 -179 232 -185 233 -179 b 243 -165 231 -179 236 -174 b 304 -49 254 -153 275 -114 b 344 -17 319 -12 331 -4 b 374 -26 350 -21 363 -25 b 397 -31 385 -26 396 -29 b 447 -44 399 -32 421 -39 b 508 -60 472 -50 500 -57 b 597 -81 526 -65 581 -78 b 699 -101 614 -83 633 -87 b 818 -126 765 -117 800 -124 b 860 -133 826 -128 844 -131 b 894 -137 874 -135 890 -137 b 999 -140 988 -153 996 -153 b 971 -121 1000 -133 992 -128 b 933 -110 954 -115 938 -111 b 910 -101 931 -108 919 -106 b 778 -56 878 -87 828 -71 b 519 17 704 -35 543 11 b 425 40 508 19 465 29 b 358 67 363 56 351 60 b 369 75 363 71 368 75 b 443 121 374 75 439 117 b 461 132 446 124 453 128 b 506 157 469 136 489 147 b 553 183 521 167 543 178 b 568 200 564 189 571 196 b 569 203 567 204 567 206 b 601 213 572 200 586 206 b 714 278 664 247 690 263 b 768 313 728 288 753 303 b 801 333 785 321 799 331 b 821 346 803 335 811 340 b 965 444 843 357 888 388 b 1039 497 997 468 1031 492 b 1064 518 1047 503 1058 511 b 1110 561 1069 524 1090 543 b 1146 599 1131 578 1146 596 b 1158 613 1146 603 1151 608 b 1167 626 1165 617 1168 624 b 1168 629 1164 631 1165 632 b 1215 682 1175 625 1182 635 z m 1018 621 b 824 479 976 588 858 500 b 728 417 819 476 776 447 b 594 333 679 385 619 347 b 549 303 569 319 549 306 b 543 297 549 300 546 297 b 511 281 539 297 525 290 b 476 263 497 271 482 263 b 467 258 471 263 467 260 b 450 243 467 256 460 249 b 431 243 429 231 425 231 b 519 424 458 306 475 340 b 560 497 533 449 551 482 b 593 558 567 511 582 539 b 626 619 604 578 619 606 b 643 649 633 635 642 647 b 713 765 646 651 703 749 b 719 772 714 769 717 772 b 814 808 725 769 810 803 b 821 813 815 811 818 814 b 874 825 825 811 860 819 b 892 831 881 826 889 829 b 913 838 894 831 904 835 b 944 846 919 840 935 844 b 997 857 954 847 978 851 b 1035 863 1017 861 1033 864 b 1044 869 1036 861 1040 864 b 1050 874 1050 875 1053 878 b 1111 869 1049 871 1071 868 b 1211 844 1179 869 1211 863 b 1018 621 1211 811 1115 701 z "},"S":{"ha":1000,"x_min":0,"x_max":0,"o":"m 846 389 b 850 400 850 393 851 399 b 843 393 849 401 844 399 b 846 389 840 385 840 383 z m 479 -143 b 482 -140 476 -139 478 -139 b 542 -83 489 -146 506 -131 b 600 28 575 -37 583 -22 b 610 96 610 57 611 75 b 567 221 606 128 581 201 b 564 251 557 235 556 257 b 569 256 568 249 569 251 b 581 268 569 260 575 265 b 628 299 593 272 608 282 b 646 311 635 306 643 311 b 660 315 647 311 654 313 b 663 325 668 318 669 321 b 668 329 657 328 658 329 b 692 339 676 329 686 333 b 711 347 696 343 704 347 b 722 356 717 347 722 351 b 600 326 722 378 683 368 b 532 288 550 303 535 294 b 513 297 529 285 522 288 b 392 357 490 317 433 346 b 286 371 372 361 325 368 b 85 392 168 381 88 389 b 100 421 83 393 90 406 b 124 460 108 436 119 453 b 144 488 126 465 136 478 b 157 507 154 496 158 506 b 160 511 154 510 156 511 b 163 518 164 511 165 514 b 164 521 160 522 161 524 b 200 549 168 519 183 532 b 353 693 251 603 347 693 b 356 703 357 693 357 697 b 358 708 353 708 354 711 b 439 760 361 707 397 729 b 518 815 479 790 515 815 b 524 821 519 815 524 818 b 589 861 526 826 568 853 b 601 875 600 865 604 871 b 604 878 599 879 600 881 b 657 904 611 874 653 896 b 667 906 658 907 663 907 b 682 911 671 904 678 907 b 693 919 686 915 692 919 b 728 929 696 919 722 926 b 857 958 765 946 821 958 b 922 942 903 958 910 957 b 867 767 946 917 928 863 b 828 710 847 738 831 713 b 810 688 826 708 818 699 b 793 664 803 676 794 665 b 725 565 779 651 731 582 b 735 525 717 540 718 535 b 746 526 744 518 746 518 b 751 532 746 532 749 533 b 776 567 757 528 782 561 b 782 569 775 568 776 569 b 836 633 793 569 826 607 b 850 650 842 643 847 651 b 919 728 857 646 892 686 b 958 969 975 813 986 878 b 782 1047 939 1036 876 1064 b 757 1040 771 1046 760 1042 b 742 1035 754 1039 747 1036 b 660 1006 725 1032 681 1015 b 636 997 650 1001 639 997 b 628 993 632 997 629 996 b 581 965 626 990 606 978 b 424 863 529 938 424 869 b 408 850 424 861 417 856 b 385 836 399 846 389 839 b 353 810 382 833 367 821 b 175 649 268 739 247 719 b 14 411 44 518 15 474 b 67 326 14 371 24 356 b 279 275 117 294 185 278 b 307 271 294 275 307 272 b 332 268 307 269 318 268 b 363 264 346 268 360 267 b 389 258 365 263 378 260 b 453 244 410 256 438 249 b 447 228 458 242 457 239 b 426 213 439 219 431 213 b 232 22 418 213 250 49 b 192 -31 225 13 207 -11 b 143 -147 154 -79 143 -106 b 204 -243 143 -199 154 -217 b 269 -265 232 -257 254 -265 b 294 -262 283 -265 294 -264 b 311 -258 294 -260 303 -258 b 329 -251 319 -257 328 -254 b 340 -249 331 -247 335 -246 b 346 -246 346 -250 349 -250 b 356 -240 344 -243 349 -240 b 467 -167 369 -239 442 -192 b 479 -143 475 -157 481 -147 z m 453 21 b 447 13 450 19 447 15 b 335 -99 447 4 361 -81 b 317 -118 322 -107 314 -115 b 315 -121 319 -119 318 -121 b 274 -137 313 -119 293 -126 b 236 -151 253 -147 236 -153 b 251 -125 236 -149 243 -136 b 263 -103 258 -112 264 -103 b 274 -87 261 -103 267 -96 b 289 -68 282 -79 289 -69 b 315 -31 289 -67 301 -49 b 339 8 329 -12 340 6 b 340 13 336 11 338 14 b 375 46 343 11 358 26 b 408 88 390 65 406 83 b 429 113 413 92 422 103 b 458 147 438 124 451 139 b 481 175 467 157 476 169 b 485 178 485 182 488 182 b 497 186 483 172 488 176 b 521 193 513 203 513 204 b 518 121 532 176 531 150 b 453 21 504 92 460 24 z "},"T":{"ha":1265,"x_min":0,"x_max":0,"o":"m 763 393 b 763 393 763 393 763 393 b 763 393 763 393 763 393 z m 1207 990 b 1247 1006 1238 993 1246 996 b 1186 1029 1251 1024 1231 1032 b 924 994 1104 1025 978 1008 b 856 981 917 993 886 986 b 765 960 825 974 785 964 b 715 947 746 954 724 949 b 331 814 615 925 414 856 b 294 799 314 806 299 799 b 288 793 290 799 288 796 b 272 783 288 790 281 786 b 240 768 264 782 249 775 b 221 757 232 763 222 757 b 193 742 218 757 206 750 b 150 717 179 732 160 721 b 124 699 140 711 129 704 b 86 669 118 694 101 681 b 17 581 49 640 21 606 b 32 546 14 561 15 557 b 57 543 49 533 50 533 b 67 549 61 547 65 550 b 75 554 69 547 72 549 b 83 561 76 560 81 563 b 103 572 85 560 94 565 b 121 583 111 581 119 585 b 131 586 122 582 126 583 b 199 622 135 590 165 606 b 254 660 233 640 257 656 b 258 661 253 663 254 664 b 285 669 267 656 289 663 b 294 671 283 672 288 674 b 306 675 300 669 306 671 b 311 679 306 679 308 681 b 322 686 314 676 319 679 b 329 688 326 693 329 693 b 338 686 329 682 331 682 b 379 704 342 690 360 699 b 419 722 397 711 415 718 b 451 735 422 725 438 731 b 519 758 488 744 496 747 b 674 807 539 767 671 810 b 628 733 674 807 654 774 b 404 307 557 622 476 468 b 306 81 363 214 306 83 b 297 58 306 79 301 69 b 226 -124 285 31 235 -97 b 206 -182 222 -136 213 -162 b 203 -229 194 -212 194 -217 b 215 -232 214 -247 219 -249 b 218 -221 214 -225 215 -221 b 240 -185 221 -221 231 -204 b 292 -93 251 -165 274 -124 b 429 163 346 -1 354 15 b 542 401 539 379 546 394 b 543 404 540 404 540 407 b 599 499 546 403 571 446 b 669 635 625 553 657 614 b 765 811 689 671 726 740 b 808 854 781 840 786 846 b 851 867 824 860 843 865 b 868 875 860 868 868 872 b 874 876 868 879 871 879 b 893 879 878 875 886 876 b 925 892 900 882 914 889 b 943 904 935 896 943 901 b 958 906 943 906 950 907 b 974 908 967 904 974 906 b 986 914 974 911 979 914 b 1017 922 993 914 1007 918 b 1039 929 1026 926 1036 929 b 1047 935 1040 931 1044 932 b 1061 939 1049 938 1056 939 b 1078 947 1067 939 1074 943 b 1093 953 1082 951 1089 954 b 1103 960 1099 950 1101 953 b 1106 965 1103 967 1104 968 b 1146 971 1108 957 1138 961 b 1164 978 1149 974 1157 978 b 1193 985 1189 979 1196 981 b 1207 990 1192 986 1197 989 z "},"U":{"ha":1129,"x_min":0,"x_max":0,"o":"m 1064 911 b 988 804 1054 897 1021 849 b 919 711 954 760 924 718 b 742 478 907 693 796 547 b 629 340 694 417 669 386 b 579 281 617 325 594 299 b 372 65 529 222 379 65 b 340 38 371 65 357 53 b 153 -75 281 -17 201 -64 b 119 -19 118 -83 115 -79 b 219 360 128 85 154 188 b 408 726 249 438 340 617 b 417 751 415 738 419 749 b 419 754 415 756 417 756 b 474 828 422 753 447 786 l 522 906 l 518 940 b 444 925 513 1000 506 999 b 390 861 421 899 397 869 b 271 697 365 833 307 753 b 85 328 226 632 115 408 b 19 28 40 206 14 85 b 181 -187 32 -110 53 -137 b 232 -185 207 -197 218 -197 b 243 -183 236 -182 242 -181 b 292 -151 247 -187 279 -167 b 296 -150 296 -147 297 -146 b 301 -154 293 -156 294 -157 b 311 -137 306 -151 310 -144 b 314 -133 311 -131 313 -129 b 406 -62 318 -142 346 -119 b 494 43 469 1 499 35 b 496 44 492 46 493 47 b 526 72 500 43 513 54 b 568 124 540 89 558 113 b 644 224 586 146 604 171 b 689 281 658 243 679 268 b 708 307 700 292 708 304 b 717 321 708 310 713 315 b 722 335 722 325 725 332 b 725 339 721 338 722 340 b 744 356 728 338 736 346 b 793 435 789 418 796 429 b 794 438 790 439 790 440 b 801 439 799 435 801 436 b 807 446 801 443 804 446 b 778 364 815 446 808 429 b 743 288 764 336 749 301 b 710 211 738 272 722 239 b 556 -175 676 140 556 -162 b 568 -193 556 -182 561 -189 b 579 -190 576 -197 579 -197 b 586 -181 579 -185 582 -181 b 589 -176 589 -181 590 -179 b 597 -161 588 -174 590 -167 b 606 -144 603 -157 607 -149 b 619 -122 603 -139 610 -129 b 682 -29 629 -114 657 -72 b 740 89 742 74 744 81 b 742 92 738 93 739 94 b 831 261 747 89 833 253 b 836 269 831 264 833 267 b 961 522 842 272 875 342 b 1025 653 974 546 1001 606 b 1108 864 1115 843 1111 833 b 1064 911 1101 944 1092 956 z "},"V":{"ha":1288,"x_min":0,"x_max":0,"o":"m 757 413 b 758 413 756 414 756 415 b 778 431 765 408 782 424 b 781 438 775 435 776 438 b 783 444 785 438 786 440 b 786 449 781 450 782 451 b 835 506 794 443 835 490 b 853 525 835 513 843 521 b 874 544 861 529 871 539 b 925 607 878 557 903 588 b 938 624 932 614 938 621 b 968 661 938 626 950 643 b 996 696 985 679 997 694 b 1013 718 994 697 1001 707 b 1028 747 1024 731 1031 742 b 1031 750 1025 751 1026 753 b 1051 764 1033 749 1043 754 b 1061 781 1060 772 1064 781 b 1068 788 1058 781 1061 783 b 1075 801 1074 792 1078 797 b 1078 806 1074 806 1074 807 b 1086 811 1081 806 1085 807 b 1111 839 1088 815 1099 828 b 1133 865 1124 851 1133 863 b 1151 888 1133 868 1142 878 b 1165 904 1161 896 1168 904 b 1174 918 1163 904 1167 910 b 1188 939 1182 926 1188 936 b 1196 943 1188 942 1192 944 b 1204 953 1201 942 1204 947 b 1213 965 1203 960 1207 965 b 1236 989 1218 965 1229 976 b 1260 1017 1243 1001 1254 1014 b 1264 1047 1269 1019 1274 1047 b 733 508 1253 1047 901 690 b 501 250 665 435 544 300 b 172 -96 367 93 221 -58 b 142 -122 158 -107 144 -118 b 161 135 128 -140 142 39 b 174 204 167 164 172 194 b 186 263 175 214 181 239 b 200 321 192 285 199 311 b 268 592 211 385 218 411 b 308 739 285 651 303 718 b 346 857 314 760 331 813 b 369 960 367 917 372 943 b 335 1025 364 988 346 1022 b 111 489 310 1035 206 788 b 92 428 106 469 96 443 b 17 35 56 326 24 160 b 25 -108 14 -37 15 -64 b 121 -246 46 -208 64 -233 b 147 -256 133 -249 144 -253 b 208 -250 153 -265 178 -262 b 369 -76 250 -232 381 -93 b 372 -72 367 -72 368 -71 b 406 -42 375 -75 390 -61 b 639 256 463 36 589 196 b 689 317 651 271 675 299 b 724 357 704 335 719 353 b 757 413 740 375 760 408 z "},"W":{"ha":1474,"x_min":0,"x_max":0,"o":"m 1368 844 b 1376 864 1368 850 1372 858 b 1411 926 1382 868 1397 897 b 1440 983 1426 956 1439 982 b 1456 1029 1451 994 1460 1024 b 1425 999 1451 1033 1440 1022 b 1399 958 1413 978 1400 960 b 1374 922 1396 956 1386 940 b 1240 717 1326 847 1272 765 b 1153 579 1222 689 1183 626 b 703 -64 908 186 792 19 l 686 -79 l 690 -50 b 700 24 692 -35 696 -1 b 715 119 703 49 710 92 b 729 197 721 147 728 182 b 747 283 732 211 740 250 b 757 460 767 382 769 417 b 740 507 751 481 744 503 b 739 515 738 511 736 515 b 714 550 746 515 724 546 b 643 500 701 554 663 528 b 614 463 635 489 621 472 b 581 421 606 453 590 435 b 550 383 569 407 556 390 b 496 315 543 376 519 346 b 450 258 472 286 453 260 b 411 207 449 256 431 233 b 301 67 347 124 314 81 b 265 24 294 60 279 40 b 232 -15 251 7 236 -11 b 128 -101 213 -35 132 -101 b 131 -71 126 -101 126 -89 b 260 353 163 96 196 206 b 274 390 268 371 274 389 b 417 688 274 394 385 625 b 454 790 450 756 457 774 b 426 856 450 815 433 856 b 404 828 424 856 414 843 b 383 797 394 813 385 799 b 331 717 381 796 357 760 b 119 313 250 589 193 479 b 40 -131 46 146 14 -35 b 118 -208 53 -174 68 -189 b 196 -208 157 -222 176 -224 b 276 -126 222 -190 279 -132 b 281 -122 275 -124 276 -122 b 296 -108 285 -124 292 -117 b 304 -99 301 -100 304 -94 b 347 -50 304 -104 347 -56 b 360 -32 347 -47 353 -39 b 368 -11 368 -25 371 -17 b 368 -7 365 -7 365 -4 b 401 26 374 -12 382 -4 b 424 57 410 39 419 53 b 444 89 428 61 438 75 b 465 119 453 103 461 117 b 518 197 486 139 522 193 b 521 197 517 200 518 200 b 536 208 526 194 532 199 b 556 236 540 215 549 229 b 563 258 563 244 565 254 b 564 263 560 263 560 264 b 643 347 569 258 594 286 b 663 338 681 396 682 396 b 600 53 643 278 610 126 b 597 -161 589 -26 588 -129 b 649 -218 607 -190 619 -204 b 678 -237 663 -225 676 -233 b 729 -231 685 -249 717 -244 b 746 -218 736 -224 743 -218 b 811 -137 750 -218 769 -193 b 846 -90 826 -117 842 -94 b 981 150 886 -39 986 140 b 982 154 979 154 979 156 b 1040 243 986 150 1040 232 b 1076 307 1040 244 1056 272 b 1113 369 1096 340 1113 368 b 1142 422 1113 371 1126 394 b 1190 508 1158 450 1179 489 b 1226 578 1200 528 1217 558 b 1242 611 1238 596 1244 611 b 1243 615 1239 611 1240 614 b 1274 676 1256 625 1278 668 b 1275 679 1271 681 1271 682 b 1303 721 1278 678 1290 696 b 1321 765 1315 744 1324 765 b 1322 769 1318 765 1319 768 b 1351 817 1335 779 1356 811 b 1356 824 1350 821 1351 824 b 1358 829 1360 824 1361 826 b 1361 836 1357 833 1358 836 b 1368 844 1365 836 1368 840 z "},"X":{"ha":1354,"x_min":0,"x_max":0,"o":"m 215 -39 b 225 -32 222 -42 225 -39 b 228 -25 225 -26 226 -24 b 250 -10 231 -28 240 -21 b 321 56 261 0 293 29 b 399 126 350 81 385 113 l 422 151 l 429 135 b 538 -62 472 18 489 -12 b 629 -128 568 -92 592 -110 b 726 -144 681 -154 706 -158 b 742 -139 733 -139 740 -137 b 756 -133 744 -142 750 -139 b 789 -106 761 -128 776 -115 b 897 1 843 -64 928 19 b 900 10 893 0 894 3 b 918 22 907 17 914 22 b 913 14 921 22 918 19 b 914 11 901 6 901 4 b 929 32 921 14 928 24 b 942 46 932 40 938 46 b 951 53 947 46 951 49 b 953 65 951 56 953 61 b 961 71 954 69 957 72 b 971 82 964 71 969 75 b 993 111 974 88 983 101 b 1006 136 1003 121 1008 131 b 1006 139 1004 140 1004 142 b 1035 175 1013 133 1031 156 b 1032 199 1036 183 1036 194 b 1011 190 1028 206 1024 204 b 863 79 990 168 950 138 b 786 26 825 56 790 31 b 774 17 783 21 776 17 b 749 4 769 17 760 11 b 600 -28 703 -32 635 -46 b 549 26 583 -18 557 8 b 507 153 538 46 518 106 b 547 246 493 206 492 201 b 582 275 564 260 581 274 b 617 304 583 276 599 289 b 651 335 635 318 650 332 b 661 339 653 338 657 339 b 667 344 667 339 669 342 b 669 351 665 349 667 351 b 751 417 679 351 751 408 b 757 418 751 419 754 419 b 767 424 761 417 765 418 b 776 433 769 429 774 433 b 847 493 786 433 844 482 b 858 500 849 499 854 501 b 878 511 864 497 871 501 b 907 536 882 518 896 529 b 928 554 918 542 928 550 b 932 560 928 558 929 561 b 992 603 936 558 953 571 b 999 611 1000 610 1003 614 b 992 611 994 610 992 610 b 1011 624 992 613 1000 618 b 1081 688 1036 635 1086 682 b 1086 689 1078 690 1081 690 b 1122 717 1096 685 1117 700 b 1131 724 1125 722 1128 725 b 1182 761 1136 718 1186 754 b 1189 763 1181 764 1183 765 b 1196 764 1194 761 1197 761 b 1221 788 1192 768 1213 788 b 1239 803 1224 788 1232 794 b 1272 828 1247 811 1263 822 b 1290 843 1282 833 1290 840 b 1296 846 1290 846 1293 847 b 1301 851 1300 843 1301 846 b 1314 861 1301 856 1307 861 b 1339 872 1338 863 1340 864 b 1292 875 1335 890 1325 890 b 1256 854 1274 865 1257 857 b 1229 840 1254 853 1242 846 b 1132 781 1217 833 1172 807 b 1003 699 1092 756 1035 718 b 944 661 972 679 946 663 b 932 653 943 660 938 656 b 761 533 915 642 824 578 b 669 468 729 510 688 481 b 629 436 651 456 633 442 b 617 426 625 431 619 426 b 599 415 613 426 606 422 b 563 388 592 408 575 396 b 515 353 549 379 528 363 b 486 333 503 342 489 333 b 483 389 483 333 482 357 b 482 442 485 418 483 443 b 478 447 481 440 478 443 b 483 453 478 451 481 454 b 486 474 486 451 488 460 b 490 497 485 488 488 497 b 489 501 494 497 493 500 b 486 508 485 503 483 506 b 503 606 492 511 497 544 b 508 625 503 613 506 621 b 504 632 511 629 510 632 b 504 638 499 632 499 633 b 514 668 508 639 513 654 b 519 692 514 683 517 693 b 524 700 522 690 524 694 b 524 714 522 706 522 713 b 531 753 525 721 529 742 b 536 767 532 761 533 767 b 539 774 538 767 539 769 b 550 818 540 781 543 792 b 546 828 554 829 553 832 b 547 832 542 826 542 828 b 567 878 557 840 567 863 b 572 894 567 882 569 890 b 569 901 575 899 574 901 b 574 911 567 901 568 906 b 578 924 578 917 581 922 b 572 933 575 926 574 931 b 538 985 571 963 551 990 b 519 951 531 982 519 963 b 513 943 518 949 517 944 b 436 740 499 933 450 807 b 393 439 401 586 393 533 b 396 304 392 386 393 325 b 385 256 400 267 400 265 b 347 226 375 250 358 238 b 294 182 336 217 313 196 b 133 29 240 138 125 29 b 114 7 135 29 126 19 b 40 -89 94 -14 40 -82 b 26 -111 40 -90 33 -100 b 19 -181 15 -131 14 -144 b 39 -190 19 -182 28 -186 b 61 -200 49 -196 60 -199 b 121 -132 68 -200 125 -136 b 124 -131 118 -131 119 -129 b 179 -69 133 -133 185 -76 b 182 -67 178 -65 179 -65 b 210 -40 190 -72 214 -49 b 215 -39 208 -37 211 -37 z "},"Y":{"ha":963,"x_min":0,"x_max":0,"o":"m 367 -156 b 372 -146 367 -150 369 -146 b 390 -115 375 -146 383 -132 b 456 19 399 -99 428 -37 b 525 165 482 75 514 142 b 614 349 536 189 576 272 b 724 575 651 426 701 528 b 828 790 746 621 793 718 b 892 922 864 861 892 921 b 915 974 892 925 903 947 b 943 1043 929 1000 942 1032 b 933 1119 949 1082 943 1119 b 650 753 928 1119 822 982 b 586 671 621 714 592 678 b 540 615 581 664 560 639 b 172 275 417 467 244 308 b 94 272 143 263 110 261 b 85 339 85 279 83 288 b 90 399 86 372 89 399 b 94 418 92 399 94 407 b 106 474 94 428 100 453 b 113 510 113 493 115 510 b 115 518 110 510 111 514 b 128 551 119 524 125 538 b 136 583 129 565 133 579 b 147 618 146 594 156 622 b 146 622 143 615 143 617 b 154 644 151 631 153 633 b 160 647 154 649 157 650 b 167 674 165 644 168 656 b 172 676 165 678 168 679 b 176 685 178 674 179 675 b 178 697 175 692 175 697 b 186 707 181 697 183 701 b 179 708 189 715 189 715 b 175 708 171 701 171 701 b 190 725 178 714 185 721 b 196 751 204 735 208 756 b 201 761 190 750 193 754 b 211 774 210 768 214 774 b 218 786 208 774 211 779 b 226 807 225 793 228 803 b 229 813 224 814 225 815 b 238 836 236 808 239 817 b 243 843 238 840 240 843 b 244 853 246 843 246 849 b 250 860 240 861 243 863 b 258 864 258 857 260 857 b 264 882 256 868 258 876 b 268 890 268 886 269 890 b 272 897 265 890 267 893 b 283 911 279 900 283 907 b 292 926 283 915 288 922 b 299 940 297 931 300 936 b 303 954 297 944 299 950 b 293 1051 322 974 314 1060 b 243 982 288 1049 249 997 b 232 968 242 979 238 972 b 103 739 204 935 138 818 b 58 621 85 697 60 631 b 54 607 58 617 56 610 b 22 469 49 597 32 529 b 15 351 15 432 14 392 b 81 196 18 274 31 244 b 156 147 121 157 135 147 b 256 200 174 147 222 172 b 443 393 306 242 403 342 b 479 436 451 404 468 424 b 564 550 522 488 564 543 b 571 557 564 554 567 557 b 581 567 574 557 578 561 b 593 588 582 572 589 582 b 638 649 599 593 618 621 b 711 747 681 711 711 753 b 679 686 711 744 696 718 b 301 -85 529 417 394 140 b 246 -258 261 -186 250 -219 b 258 -324 243 -287 250 -325 b 265 -328 263 -322 265 -324 b 275 -332 265 -331 269 -333 b 321 -247 286 -331 325 -258 b 324 -242 319 -242 321 -240 b 367 -156 329 -246 367 -169 z "},"Z":{"ha":953,"x_min":0,"x_max":0,"o":"m 819 982 b 754 976 786 981 756 978 b 703 964 751 975 729 969 b 93 696 496 921 133 763 b 88 633 76 671 75 650 b 97 611 93 625 97 615 b 115 613 97 601 103 603 b 451 758 132 626 422 753 b 475 767 456 760 465 763 b 749 839 547 793 724 840 b 760 844 754 839 760 842 b 767 847 760 847 763 849 b 815 850 771 846 793 846 b 858 853 838 853 857 854 b 801 771 863 847 846 824 b 335 271 686 633 582 522 b 167 97 260 194 185 117 b 118 44 149 78 126 54 b 25 -85 90 15 33 -64 b 15 -140 17 -103 14 -121 b 38 -174 15 -146 25 -161 b 86 -196 58 -196 61 -197 b 136 -187 100 -194 122 -190 b 193 -175 149 -185 174 -178 b 229 -162 211 -171 228 -165 b 247 -157 232 -160 239 -157 b 275 -150 256 -157 268 -154 b 301 -144 282 -146 294 -144 b 314 -140 308 -146 314 -143 b 319 -136 314 -136 317 -135 b 394 -110 325 -140 382 -119 b 400 -108 401 -104 403 -103 b 401 -117 397 -112 399 -117 b 408 -111 406 -117 408 -114 b 438 -99 408 -108 421 -103 b 469 -86 453 -94 468 -89 b 479 -87 472 -82 475 -83 b 483 -87 483 -94 483 -94 b 490 -83 483 -83 486 -82 b 496 -82 493 -86 496 -85 b 500 -76 496 -78 497 -75 b 533 -62 511 -78 536 -68 b 540 -62 531 -58 533 -58 b 578 -51 551 -68 578 -61 b 588 -50 578 -49 582 -47 b 593 -47 593 -53 596 -51 b 600 -43 590 -43 593 -42 b 615 -40 606 -43 613 -42 b 625 -35 619 -37 624 -35 b 650 -21 646 -29 653 -26 b 653 -19 647 -17 649 -17 b 700 -3 661 -24 700 -11 b 713 -3 700 0 707 0 b 722 0 721 -4 724 -4 b 725 7 719 4 721 7 b 744 11 729 7 738 8 b 763 14 751 13 760 14 b 767 26 767 14 768 19 b 704 33 764 38 760 38 b 643 28 672 32 644 29 b 610 22 640 26 626 24 b 569 15 594 19 575 17 b 543 10 563 14 550 11 b 478 -4 535 8 506 1 b 414 -19 451 -11 422 -18 b 319 -43 400 -24 336 -39 b 232 -67 315 -44 276 -54 b 128 -87 133 -93 125 -94 b 288 86 131 -81 224 21 b 613 419 363 163 551 356 b 853 700 703 513 814 643 b 929 890 907 779 918 808 b 819 982 939 967 915 986 z "},"[":{"ha":574,"x_min":0,"x_max":0,"o":"m 25 -425 b 128 -426 47 -429 81 -431 b 210 -421 167 -424 203 -421 b 224 -415 215 -421 222 -419 b 236 -414 226 -412 231 -411 b 290 -407 240 -415 265 -412 b 394 -393 317 -401 364 -394 b 454 -387 426 -390 453 -389 b 440 -375 456 -386 449 -381 b 186 -356 417 -360 301 -351 b 72 -362 133 -358 82 -361 b 54 -344 53 -367 53 -365 b 65 -297 54 -333 60 -312 b 71 -271 69 -282 72 -271 b 74 -262 68 -271 69 -267 b 81 -244 78 -258 81 -250 b 90 -203 81 -239 85 -219 b 135 -46 114 -119 128 -75 b 154 24 139 -28 147 3 b 160 65 160 43 163 63 b 164 72 158 68 160 72 b 171 88 167 74 171 81 b 179 108 172 94 176 104 b 181 126 182 113 182 121 b 183 135 178 131 179 135 b 188 140 186 135 189 138 b 190 154 188 143 189 149 b 203 199 192 160 199 179 b 269 414 235 306 249 354 b 288 492 281 450 290 485 b 289 500 286 499 286 501 b 300 519 292 497 296 507 b 392 788 304 533 346 653 b 481 1050 438 921 478 1040 b 492 1082 483 1061 489 1075 b 521 1143 496 1089 508 1117 b 540 1193 532 1169 542 1193 b 551 1197 539 1194 544 1196 b 626 1208 560 1197 593 1203 b 701 1221 658 1214 693 1219 b 733 1267 740 1226 744 1233 b 611 1303 722 1296 708 1300 b 446 1229 488 1307 483 1304 b 406 1132 431 1197 413 1153 b 347 968 399 1111 372 1038 b 268 731 322 899 288 792 b 206 538 250 669 221 582 b 144 335 190 492 164 401 b 99 174 126 268 106 196 b 85 119 92 150 86 126 b 25 -96 81 100 31 -82 b 10 -143 21 -103 15 -125 b -17 -236 4 -162 -8 -204 b -33 -379 -37 -310 -43 -351 b 25 -425 -24 -408 -15 -415 z "},"\\":{"ha":554,"x_min":0,"x_max":0,"o":"m 163 1158 b 174 1097 167 1139 172 1111 b 218 889 179 1069 193 1006 b 225 858 221 879 224 867 b 233 822 228 851 231 835 b 257 717 236 810 246 763 b 279 608 267 671 276 622 b 294 540 282 594 288 564 b 308 476 300 517 306 488 b 315 442 310 465 313 449 b 322 408 317 435 321 419 b 331 379 325 397 328 385 b 336 351 332 374 335 361 b 372 199 346 306 367 215 b 379 167 374 193 376 179 b 411 33 390 108 410 31 b 415 15 413 35 414 26 b 431 -64 417 -4 422 -36 b 450 -142 433 -76 449 -135 b 456 -156 451 -143 453 -149 b 463 -179 458 -161 461 -172 b 486 -246 471 -214 474 -222 b 506 -279 492 -260 501 -275 b 521 -289 511 -285 517 -289 b 529 -254 529 -287 535 -264 b 528 -237 526 -249 526 -242 b 517 -150 532 -229 522 -150 b 508 -104 515 -150 510 -121 b 499 -82 508 -93 504 -85 b 496 -76 493 -79 492 -76 b 494 -54 499 -75 499 -69 b 483 6 492 -43 486 -15 b 472 58 481 28 476 51 b 467 83 463 75 460 86 b 471 89 468 81 471 83 b 465 97 469 93 468 97 b 460 118 464 97 461 107 b 453 167 460 129 456 151 b 443 219 450 182 446 206 b 408 344 428 297 417 339 b 410 349 400 351 400 351 b 397 447 419 346 421 342 b 382 519 392 476 385 510 b 368 581 379 531 374 558 b 350 664 363 604 354 642 b 336 725 346 688 339 715 b 325 769 332 736 328 756 b 310 836 322 783 315 814 b 296 906 304 860 299 890 b 286 938 293 921 289 935 b 283 950 283 940 282 946 b 260 1064 285 957 264 1056 b 251 1104 258 1067 254 1085 b 243 1144 247 1124 244 1142 b 236 1172 242 1146 239 1158 b 208 1300 233 1192 219 1251 b 199 1346 206 1310 201 1331 b 190 1375 196 1363 192 1375 b 186 1399 189 1375 188 1386 b 142 1494 183 1450 169 1481 b 114 1450 111 1511 107 1506 b 163 1158 121 1388 143 1256 z "},"]":{"ha":829,"x_min":0,"x_max":0,"o":"m -175 -328 b -99 -336 -154 -337 -139 -339 b 104 -311 -7 -331 57 -324 b 161 -299 125 -306 150 -300 b 196 -290 171 -297 188 -294 b 217 -287 206 -287 215 -286 b 215 -253 222 -293 222 -276 b 214 -236 211 -242 211 -233 b 224 -208 221 -240 226 -224 b 226 -194 222 -200 224 -194 b 257 -119 232 -194 253 -142 b 290 -11 257 -114 272 -65 b 325 93 308 42 324 89 b 331 111 325 96 328 104 b 346 150 333 118 340 136 b 357 185 350 164 356 179 b 378 247 358 189 368 218 b 394 310 389 276 396 304 b 399 313 393 314 394 315 b 401 319 404 310 404 313 b 403 329 400 325 400 329 b 414 347 407 329 411 338 b 426 383 419 368 419 368 b 472 513 431 394 446 436 b 514 639 500 590 517 639 b 525 668 513 639 518 653 b 549 740 532 685 543 717 b 583 857 556 763 571 815 b 615 968 596 899 610 949 b 660 1142 619 986 640 1065 b 686 1333 693 1272 697 1300 b 679 1364 685 1339 682 1353 b 606 1397 672 1394 654 1403 b 508 1382 571 1393 528 1386 b 471 1375 504 1381 488 1378 b 403 1343 422 1368 406 1360 b 417 1315 400 1331 404 1324 b 515 1306 432 1304 442 1303 b 614 1311 560 1307 604 1310 b 622 1260 635 1314 636 1306 b 597 1176 617 1243 606 1206 b 501 867 554 1024 532 956 b 461 756 482 813 464 763 b 439 693 458 749 449 721 b 414 624 429 665 418 633 b 344 433 404 600 346 443 b 339 418 343 431 340 424 b 206 24 326 386 261 194 b 143 -233 175 -74 142 -207 l 144 -250 l 71 -250 b -117 -262 1 -249 -60 -253 b -161 -268 -131 -264 -151 -267 b -192 -269 -172 -268 -185 -269 b -203 -293 -200 -271 -203 -276 b -175 -328 -203 -314 -200 -317 z "},"^":{"ha":385,"x_min":0,"x_max":0,"o":"m 89 961 b 107 951 96 956 104 951 b 114 946 111 951 114 949 b 118 942 114 943 117 942 b 213 1025 128 942 214 1018 b 215 1026 211 1028 213 1028 b 228 1033 218 1025 224 1029 b 240 1043 233 1039 239 1043 b 247 1003 242 1043 246 1025 b 271 914 251 954 258 928 b 282 904 276 908 282 903 b 289 975 283 904 286 936 b 274 1119 296 1049 293 1075 b 211 1129 257 1156 242 1158 b 94 1031 179 1101 115 1047 b 75 994 78 1018 76 1014 b 89 961 75 975 78 969 z "},"_":{"ha":356,"x_min":0,"x_max":0,"o":"m -193 -182 b -179 -179 -189 -181 -185 -179 b -169 -179 -174 -179 -171 -179 b -161 -176 -167 -179 -164 -178 b -156 -174 -158 -176 -157 -175 b -151 -174 -153 -169 -151 -169 b -137 -175 -151 -178 -147 -178 b -121 -174 -133 -174 -128 -174 b -100 -174 -114 -174 -107 -174 b -76 -169 -83 -176 -76 -175 b -71 -168 -76 -165 -75 -164 b -37 -169 -67 -172 -56 -172 b 6 -164 -26 -168 -11 -167 b 76 -158 24 -162 47 -161 b 132 -151 100 -157 118 -154 b 154 -144 147 -150 154 -147 b 156 -142 154 -143 156 -143 b 160 -143 157 -142 158 -142 b 167 -144 161 -143 164 -144 b 172 -143 168 -144 171 -143 b 181 -139 175 -142 178 -140 b 196 -137 185 -139 189 -137 b 222 -135 201 -136 211 -135 b 246 -110 238 -133 244 -125 b 192 -94 244 -103 226 -97 b 60 -92 157 -90 113 -90 b -100 -104 7 -93 -46 -97 b -215 -137 -167 -112 -206 -124 b -224 -151 -219 -143 -222 -149 b -218 -167 -224 -156 -222 -160 b -208 -182 -214 -175 -211 -179 b -193 -182 -204 -183 -200 -183 z "},"`":{"ha":313,"x_min":0,"x_max":0,"o":"m 171 996 b 193 975 178 985 188 976 b 207 975 200 975 206 975 b 208 1035 214 978 214 1014 b 161 1169 183 1126 172 1157 b 149 1186 154 1176 149 1185 b 143 1190 149 1189 146 1190 b 126 1200 139 1190 132 1194 b 103 1185 108 1217 99 1210 b 171 996 110 1133 146 1033 z "},"a":{"ha":603,"x_min":0,"x_max":0,"o":"m 26 -36 b 90 18 40 -36 97 13 b 93 22 88 21 89 22 b 100 31 97 22 100 26 b 107 43 100 36 103 42 b 110 42 111 46 111 46 b 108 35 107 38 106 35 b 169 114 113 35 169 108 b 185 133 169 118 176 126 b 196 154 193 142 197 150 b 196 156 193 157 194 158 b 207 157 199 153 204 154 b 214 108 213 160 214 146 b 251 7 215 49 224 24 b 279 -14 260 1 272 -8 b 339 -25 292 -25 324 -31 b 346 -14 343 -24 346 -19 b 353 -11 346 -7 347 -6 b 378 -6 357 -17 364 -15 b 399 11 388 1 397 8 b 411 18 400 13 406 17 b 421 29 417 21 421 25 b 426 36 419 33 422 36 b 439 46 431 35 436 40 b 454 58 443 53 450 58 b 460 64 460 58 461 61 b 464 68 457 68 458 69 b 518 110 469 67 488 79 b 540 132 521 114 532 124 b 553 153 549 140 554 150 b 556 154 550 157 551 157 b 567 163 561 151 564 154 b 588 185 568 169 578 179 b 601 201 597 190 603 196 b 606 208 600 206 601 210 b 611 214 608 207 611 210 b 621 225 610 218 615 222 b 632 243 628 226 632 233 b 604 243 632 260 629 260 b 531 200 568 218 536 200 b 521 190 528 200 524 194 b 507 181 517 185 511 181 b 499 175 501 181 499 178 b 492 169 499 172 494 169 b 458 149 488 169 472 160 b 321 64 381 90 328 57 b 308 58 319 65 314 63 b 285 54 303 54 293 51 b 274 79 271 57 269 60 b 326 249 281 132 297 182 b 369 385 378 363 376 358 b 353 421 367 397 358 414 l 342 435 l 313 389 b 272 328 296 363 278 336 l 263 314 l 247 342 b 181 382 229 371 204 388 b -1 231 124 369 54 310 b -62 75 -50 158 -60 133 b -53 10 -65 31 -64 24 b -12 -21 -46 0 -28 -14 b 26 -36 3 -29 21 -36 z m 125 224 b 143 251 138 238 144 249 b 160 265 140 257 156 269 b 190 283 161 264 175 271 b 239 299 215 303 244 311 b 188 240 239 294 215 269 b 103 151 160 213 122 172 b 35 92 63 107 35 83 b 125 224 35 100 103 199 z "},"b":{"ha":474,"x_min":0,"x_max":0,"o":"m -58 -99 b -31 -67 -56 -107 -46 -97 b 17 7 -15 -36 3 -8 b 25 33 24 14 26 22 b 29 36 25 35 26 36 b 36 40 31 35 35 38 b 56 61 38 43 46 53 b 71 81 64 69 71 79 b 106 124 71 83 86 103 b 138 167 125 144 139 164 b 140 171 136 169 138 171 b 185 208 143 169 164 186 b 218 249 206 231 221 249 b 228 254 217 249 221 251 b 238 267 236 257 240 263 b 239 269 235 271 236 272 b 256 278 243 268 250 271 b 283 299 263 285 275 294 b 300 315 292 303 300 311 b 306 325 300 321 301 325 b 365 347 318 326 350 339 b 375 347 372 351 375 351 b 340 283 375 342 347 289 b 319 257 339 282 329 269 b 214 154 294 224 261 190 b 165 113 192 138 169 118 b 36 8 150 96 42 8 b 44 -12 26 8 35 -11 b 229 74 72 -17 229 58 b 235 75 229 76 232 78 b 368 188 246 68 318 129 b 431 321 414 240 431 278 b 385 428 429 365 407 418 b 247 372 358 440 288 411 b 208 339 242 367 225 351 b 119 254 193 326 153 289 b 60 199 86 221 60 196 b 64 210 60 203 61 207 b 69 229 65 211 68 221 b 81 253 71 238 75 247 b 82 268 90 263 92 274 b 101 303 72 263 88 290 b 110 336 108 310 111 319 b 113 356 108 349 110 357 b 115 343 117 354 117 347 b 121 344 113 335 114 336 b 126 360 125 350 128 357 b 131 368 125 363 126 365 b 131 375 138 371 138 372 b 124 383 126 376 124 381 b 129 386 124 386 126 388 b 150 418 138 381 156 410 b 151 422 147 422 147 424 b 188 499 157 418 188 483 b 194 506 188 503 192 506 b 199 518 199 506 200 511 b 201 533 196 524 197 531 b 203 529 206 535 206 533 b 204 526 200 522 200 522 b 213 540 208 529 211 536 b 221 557 214 546 217 553 b 225 579 225 560 226 571 b 229 592 222 589 224 593 b 250 614 233 592 243 601 b 257 643 265 640 268 649 b 258 647 253 642 254 643 b 265 665 264 651 267 660 b 271 679 264 669 267 676 b 274 676 275 682 276 681 b 275 669 271 672 272 669 b 282 674 279 669 282 672 b 294 717 285 700 288 713 b 296 728 297 719 299 724 b 299 732 293 733 294 735 b 314 760 306 728 314 743 b 313 797 313 767 313 783 b 282 801 311 828 301 829 b 261 774 274 789 264 776 b 153 596 243 751 176 642 b 133 565 144 581 136 567 b 129 556 132 564 129 560 b 125 546 129 551 128 547 b 81 465 122 544 103 508 b 38 381 58 422 39 383 b -40 201 28 365 -14 268 b -108 -22 -87 79 -106 18 l -112 -61 l -86 -78 b -58 -99 -72 -87 -60 -96 z m 164 471 b 171 465 168 471 171 468 b 168 458 171 461 169 458 b 161 465 167 458 164 461 b 164 471 160 468 161 471 z m 135 406 b 142 400 139 406 142 404 b 139 394 142 397 140 394 b 132 400 138 394 135 397 b 135 406 131 404 132 406 z "},"c":{"ha":443,"x_min":0,"x_max":0,"o":"m -60 115 b -69 31 -65 97 -69 60 b -26 -76 -71 -33 -62 -53 b 4 -99 -12 -85 0 -94 b 18 -108 7 -103 14 -107 b 92 -83 38 -114 99 -93 b 100 -82 90 -81 94 -79 b 128 -68 107 -83 117 -79 b 149 -51 138 -58 146 -51 b 158 -44 151 -51 156 -49 b 172 -35 160 -42 167 -36 b 181 -26 178 -32 182 -29 b 185 -22 181 -24 182 -22 b 194 -11 188 -22 192 -17 b 206 -4 199 -6 203 -3 b 211 -3 210 -6 211 -6 b 232 15 211 0 221 8 b 249 39 246 25 251 32 b 251 40 246 47 247 47 b 272 46 257 32 260 33 b 283 65 281 53 286 61 b 288 67 282 68 283 69 b 307 82 296 61 313 74 b 311 85 306 86 307 86 b 326 88 314 82 322 83 b 328 100 333 93 333 96 b 329 103 322 104 322 104 b 364 126 336 100 349 108 b 393 153 378 142 392 153 b 396 161 394 151 396 156 b 406 169 396 168 400 171 b 419 181 411 169 418 174 b 432 192 422 186 426 192 b 436 201 436 192 439 196 b 439 208 433 208 435 210 b 454 218 442 206 449 211 b 469 231 460 226 467 232 b 483 253 476 225 488 242 b 476 263 482 258 478 263 b 433 239 475 263 456 251 b 390 215 413 226 393 215 b 332 181 389 215 363 200 b 272 146 301 161 275 146 b 247 128 271 146 260 138 b 219 110 235 118 222 110 b 200 96 218 110 208 104 b 25 1 175 71 42 0 b 38 79 6 3 7 8 b 178 299 72 160 118 231 b 211 313 207 331 211 332 b 222 289 211 304 217 294 b 236 292 231 279 232 279 b 243 313 240 300 243 308 b 249 325 244 315 246 321 b 204 433 264 349 232 425 b 114 394 185 440 149 425 b -60 115 53 342 -35 200 z "},"d":{"ha":585,"x_min":0,"x_max":0,"o":"m 529 601 b 607 742 540 621 565 664 b 628 803 619 764 628 789 b 611 871 629 833 621 871 b 335 439 588 871 406 588 b 299 399 313 393 304 385 b 271 422 297 404 285 414 b 36 301 203 463 110 414 b -51 64 -26 204 -58 117 b -3 -14 -44 15 -35 -1 b 33 -29 13 -21 29 -28 b 89 8 44 -31 89 -1 b 94 19 89 11 92 17 b 96 15 97 22 99 21 b 103 18 93 11 96 13 b 126 39 108 25 119 33 b 132 51 135 44 136 49 b 135 56 126 54 128 56 b 142 63 140 57 144 58 b 143 67 140 65 140 68 b 178 101 151 64 176 92 b 186 110 178 108 182 111 b 199 121 192 110 197 114 b 217 67 207 150 214 128 b 267 -47 219 -10 222 -18 b 336 -51 296 -68 319 -69 b 353 -43 340 -47 349 -43 b 361 -35 358 -43 361 -39 b 368 -29 361 -29 364 -26 b 372 -22 371 -31 374 -28 b 376 -11 371 -17 374 -11 b 460 75 386 -11 461 68 b 465 82 458 79 461 82 b 486 99 469 81 479 89 b 511 128 494 110 506 122 b 519 142 515 133 519 140 b 550 178 519 146 531 160 b 564 196 560 186 565 194 b 576 211 563 197 568 204 b 583 228 586 221 588 226 b 585 232 578 231 578 231 b 615 258 592 232 606 243 b 614 272 617 263 617 268 b 474 163 608 281 603 275 b 406 101 453 144 422 117 b 310 26 349 50 335 39 b 282 17 296 19 283 15 b 339 214 272 26 303 131 b 529 601 397 346 497 550 z m 271 299 b 224 228 257 265 243 246 b 69 86 194 201 85 100 b 44 67 64 81 53 72 b 69 163 18 50 24 72 b 188 322 103 231 168 318 b 221 336 192 324 207 329 b 288 349 251 350 283 356 b 271 299 290 347 282 324 z "},"e":{"ha":471,"x_min":0,"x_max":0,"o":"m 326 88 b 331 89 325 90 326 92 b 329 75 336 85 335 82 b 357 94 325 69 338 78 b 408 135 376 110 400 129 b 421 151 417 142 422 149 b 424 153 418 156 419 156 b 438 161 426 151 433 154 b 453 174 442 168 449 174 b 460 179 456 174 460 176 b 478 199 460 188 476 206 b 489 215 478 196 483 204 b 504 238 496 228 503 238 b 503 231 506 238 506 235 b 513 238 500 226 506 229 b 521 272 526 253 532 272 b 494 260 518 272 506 267 b 442 229 483 253 460 239 b 403 206 424 219 407 210 b 358 174 392 194 374 182 b 294 132 350 168 322 150 b 135 51 213 78 189 67 b 67 51 103 43 94 43 l 35 60 l 36 83 b 61 161 38 107 56 161 b 83 144 63 161 74 154 b 113 132 97 132 107 128 b 133 133 118 135 126 135 b 142 138 142 132 144 132 b 146 140 139 142 140 143 b 206 175 154 138 199 163 b 217 186 208 181 214 185 b 249 218 228 189 249 211 b 254 226 249 222 251 226 b 267 254 260 226 269 250 b 274 261 265 256 269 258 b 265 364 286 269 282 329 b 154 397 243 410 211 419 b 71 343 118 383 103 374 b -26 144 21 294 -14 226 b -8 31 -35 97 -29 65 b 79 -43 4 8 61 -39 b 122 -42 101 -49 126 -49 b 129 -37 121 -39 124 -37 b 174 -25 151 -40 161 -37 b 182 -18 181 -17 185 -14 b 199 -12 175 -31 189 -26 b 204 -7 204 -6 207 -3 b 207 -14 203 -11 204 -14 b 214 -7 211 -14 214 -11 b 218 -4 214 -4 215 -3 b 238 8 219 -7 229 0 b 257 24 246 18 256 25 b 283 43 261 18 283 35 b 293 50 283 47 288 50 b 326 88 304 50 332 79 z m 94 224 b 204 322 121 261 165 301 b 249 326 219 331 249 333 b 146 208 249 299 185 226 b 94 224 89 183 71 189 z "},"f":{"ha":371,"x_min":0,"x_max":0,"o":"m 371 197 b 381 207 376 197 381 201 b 389 213 381 213 383 214 b 399 222 396 210 399 213 b 397 238 399 231 399 238 b 325 211 393 238 350 222 b 281 193 308 206 289 197 b 146 129 264 188 167 140 b 107 107 139 125 122 115 b 78 96 93 99 79 93 b 222 392 71 103 125 213 b 358 669 358 640 363 650 b 332 729 350 699 339 725 b 311 721 329 732 319 728 b 186 551 297 708 210 590 b 171 528 179 540 174 529 b 128 460 168 525 165 521 b 7 250 74 375 7 258 b -10 215 7 249 0 233 b -56 106 -19 197 -39 147 b -114 -225 -115 -51 -133 -151 b -46 -306 -101 -274 -89 -287 b 8 -314 -6 -321 -7 -321 b 118 -186 39 -299 113 -215 b 129 -169 119 -181 124 -174 b 143 -83 138 -164 147 -106 b 113 -36 142 -76 128 -54 l 83 -3 l 97 10 b 133 33 106 17 122 26 b 153 50 146 39 154 47 b 156 53 151 54 151 54 b 179 63 158 50 169 54 b 204 75 189 69 200 76 b 208 81 208 75 210 78 b 224 92 207 83 213 89 b 242 107 233 94 242 101 b 246 110 242 115 243 115 b 264 114 250 104 254 106 b 275 132 271 121 276 128 b 279 133 272 135 275 136 b 310 150 283 132 297 139 b 332 168 322 161 332 169 b 343 174 332 165 338 168 b 353 188 350 178 354 185 b 360 188 351 190 354 190 b 365 190 367 185 368 186 b 371 197 363 194 365 197 z m 93 -71 b 17 -182 92 -90 56 -143 b -22 -203 -18 -215 -28 -221 b -7 -144 -17 -187 -11 -165 b 25 -51 0 -107 19 -51 b 47 -50 29 -50 39 -50 b 93 -71 78 -47 93 -56 z "},"g":{"ha":608,"x_min":0,"x_max":0,"o":"m 543 163 b 558 175 550 171 557 176 b 579 192 560 175 569 182 b 604 207 590 201 601 208 b 613 218 607 207 611 211 b 622 226 615 224 618 228 b 635 235 625 224 631 228 b 651 247 639 242 646 247 b 663 256 658 247 663 250 b 653 260 663 261 658 263 b 363 69 628 251 371 82 b 356 65 360 65 357 64 b 396 197 353 68 372 126 b 439 363 436 313 440 329 b 418 411 438 401 425 429 b 294 294 413 396 297 288 b 254 394 285 338 267 382 b 197 417 240 408 210 421 b 179 414 193 417 186 415 b 83 350 157 411 101 374 b 65 329 79 344 71 335 b -35 186 49 314 -15 222 b -90 -44 -76 108 -97 24 b -32 -126 -86 -86 -76 -100 b 29 -126 -4 -143 3 -143 b 138 -10 65 -104 144 -19 b 139 -7 135 -6 136 -6 b 188 54 146 -11 188 42 b 192 57 188 58 190 60 b 213 85 196 53 215 78 b 217 86 213 88 214 88 b 231 108 224 82 236 103 b 232 111 228 111 229 113 b 240 115 235 110 239 111 b 250 125 240 118 246 122 b 258 136 254 128 258 132 b 279 164 258 139 268 151 b 315 213 290 175 307 197 b 332 240 322 228 331 240 b 317 197 333 240 331 232 b 279 85 314 190 297 140 b 231 -26 251 1 243 -18 b 153 -87 215 -36 160 -81 b 113 -122 151 -89 133 -104 b -107 -360 -3 -217 -85 -304 b -117 -411 -112 -371 -117 -394 b -89 -465 -117 -439 -114 -442 b -44 -496 -75 -479 -54 -492 b 13 -496 -18 -503 13 -504 b 18 -494 13 -493 15 -492 b 54 -482 21 -496 38 -490 b 161 -379 88 -465 168 -389 b 164 -374 160 -376 161 -374 b 301 -96 183 -374 263 -212 b 322 -25 314 -61 322 -29 b 383 32 322 -17 379 36 b 393 43 385 31 390 35 b 406 56 397 53 403 57 b 411 60 408 54 411 56 b 414 64 411 64 413 65 b 425 67 417 61 421 63 b 444 82 429 71 438 78 b 453 96 451 88 456 93 b 457 99 451 100 453 100 b 474 104 460 96 468 99 b 496 122 481 110 490 118 b 506 135 503 125 507 132 b 514 142 506 139 508 142 b 518 147 518 142 521 144 b 522 151 517 151 518 153 b 543 163 526 150 536 156 z m 183 165 b 14 -10 108 79 51 21 b -11 -14 -4 -25 -11 -26 b 44 111 -11 -3 21 69 b 61 147 56 131 63 147 b 68 156 60 147 63 151 b 114 224 83 172 115 219 b 117 228 113 226 114 228 b 161 276 124 225 165 271 b 165 285 160 279 161 283 b 168 283 169 288 171 288 b 182 285 163 272 174 275 b 207 303 186 290 197 299 b 221 315 217 308 222 314 b 238 319 219 318 226 319 b 260 288 254 319 256 318 l 264 257 l 183 165 z m 193 -139 b -7 -394 149 -243 54 -364 b -64 -406 -33 -407 -64 -414 b -49 -379 -64 -404 -57 -393 b -35 -354 -40 -367 -35 -356 b -22 -339 -35 -351 -29 -346 b -14 -321 -15 -332 -12 -324 b -11 -315 -15 -318 -15 -315 b 21 -279 -3 -315 24 -285 b 25 -275 19 -276 21 -275 b 100 -197 32 -275 100 -204 b 104 -194 100 -194 103 -193 b 111 -189 107 -194 110 -193 b 125 -179 113 -186 118 -182 b 132 -168 132 -176 135 -172 b 133 -165 129 -164 131 -162 b 165 -131 140 -169 172 -137 b 174 -132 164 -129 167 -129 b 181 -129 181 -135 183 -133 b 185 -122 178 -125 179 -122 b 192 -117 190 -122 193 -119 b 196 -111 189 -112 192 -111 b 193 -139 204 -111 204 -115 z "},"h":{"ha":631,"x_min":0,"x_max":0,"o":"m 93 175 b 135 278 101 197 121 243 b 222 472 161 342 179 381 b 351 761 286 607 347 744 b 349 836 357 782 356 829 b 347 849 346 839 346 844 b 326 867 350 857 333 871 b 236 721 321 863 261 768 b 149 567 221 694 185 631 b -39 146 82 451 -12 238 b -49 53 -47 115 -50 92 b 3 -36 -46 -4 -47 -1 b 60 -35 31 -54 39 -54 b 68 -25 69 -26 72 -22 b 89 0 64 -26 74 -15 b 138 54 104 15 126 40 b 181 103 150 67 168 89 b 199 132 193 115 201 129 b 201 136 197 135 199 136 b 275 204 210 133 278 197 b 275 206 272 207 274 208 b 297 217 278 204 288 208 b 318 229 307 225 317 231 b 304 186 318 228 313 208 b 283 31 286 136 276 65 b 315 -17 288 13 296 0 b 351 -44 329 -29 346 -42 b 390 -32 364 -49 390 -40 b 397 -28 390 -29 393 -28 b 407 -24 401 -29 406 -28 b 425 -10 407 -21 415 -14 b 486 50 451 4 490 43 b 489 53 483 54 485 56 b 549 101 494 49 514 67 b 596 154 576 131 599 154 b 611 172 594 154 601 163 b 628 190 622 182 629 190 b 643 208 626 190 633 199 b 661 238 654 219 663 232 b 656 249 660 243 657 249 b 571 194 651 249 576 201 b 554 183 569 193 563 188 b 533 171 546 179 538 174 b 469 119 531 168 501 144 b 403 67 436 93 407 69 b 390 61 400 64 394 61 b 378 51 388 61 382 57 b 357 43 374 47 365 43 b 353 71 343 43 343 43 b 388 243 379 158 390 211 b 350 333 385 278 365 328 b 269 285 340 336 299 311 b 203 225 260 276 229 249 b 126 154 175 200 140 169 b 83 114 113 140 93 121 l 67 99 l 71 117 b 93 175 74 126 83 153 z m 158 101 b 165 108 161 106 164 108 b 167 101 167 108 167 106 b 161 96 167 99 164 96 b 158 101 158 96 157 99 z "},"i":{"ha":331,"x_min":0,"x_max":0,"o":"m 113 444 b -29 176 86 426 -7 251 b -43 25 -47 115 -53 54 b 36 -67 -35 0 17 -58 b 61 -64 53 -74 57 -72 b 74 -58 63 -60 68 -57 b 118 -24 86 -61 124 -32 b 121 -22 115 -19 117 -19 b 142 -7 129 -26 146 -14 b 143 -3 139 -4 140 -3 b 179 24 147 -4 163 8 b 206 51 196 39 207 51 b 210 60 203 51 206 56 b 221 65 213 64 218 67 b 235 76 224 64 229 68 b 268 114 239 83 254 100 b 285 139 281 128 289 139 b 282 143 281 139 279 140 b 289 146 285 146 288 147 b 332 188 292 144 311 164 b 339 200 340 197 343 203 b 339 208 333 197 333 199 b 350 219 343 215 347 219 b 365 229 351 218 358 224 b 372 250 376 239 378 242 b 372 254 365 257 367 257 b 379 256 376 251 379 253 b 343 246 379 265 365 263 b 125 68 272 192 192 126 b 94 49 119 63 106 53 b 72 35 83 43 74 38 b 18 36 67 26 22 26 b 110 279 11 54 54 167 b 136 415 143 344 149 374 b 113 444 129 440 121 450 z m 161 472 b 235 540 169 472 236 533 b 240 544 235 544 236 547 b 279 583 246 542 279 575 b 174 576 279 608 211 604 b 133 511 151 561 133 531 b 146 488 133 507 139 496 b 161 472 151 479 160 472 z "},"j":{"ha":278,"x_min":0,"x_max":0,"o":"m 256 199 b 268 208 257 204 263 208 b 276 217 272 208 276 211 b 285 225 276 221 281 225 b 307 251 294 225 313 246 b 314 251 306 253 308 254 b 324 257 321 249 324 250 b 314 263 324 263 321 265 b 81 106 299 257 140 150 b 25 74 51 85 26 69 b 36 122 25 76 29 99 b 56 185 43 144 53 174 b 54 304 65 214 64 293 b 38 306 49 311 44 313 b -85 14 22 293 -51 119 b -139 -67 -101 -37 -99 -35 b -312 -228 -186 -106 -214 -131 b -472 -456 -443 -358 -472 -400 b -418 -525 -472 -489 -460 -506 b -332 -529 -394 -536 -332 -539 b -321 -528 -332 -526 -328 -526 b -308 -524 -314 -531 -308 -528 b -306 -519 -308 -519 -307 -518 b -244 -490 -301 -525 -244 -496 b -229 -478 -244 -487 -237 -482 b -190 -436 -222 -472 -204 -454 b -162 -401 -176 -418 -164 -403 b -94 -281 -146 -385 -90 -285 b -90 -269 -96 -278 -94 -274 b -21 -69 -83 -262 -25 -94 b -8 -28 -19 -64 -14 -44 b 14 3 0 -6 6 3 b 25 8 19 3 25 6 b 39 21 25 11 32 17 b 47 33 50 26 53 29 b 50 38 42 36 42 38 b 64 44 54 38 61 42 b 60 47 67 49 65 50 b 57 49 54 43 54 44 b 67 51 58 53 64 54 b 79 57 71 50 76 51 b 100 72 83 61 92 68 b 113 89 107 76 113 83 b 118 94 113 93 115 96 b 175 135 124 90 140 103 b 197 151 186 146 196 153 b 221 169 197 150 208 158 b 247 190 232 181 244 190 b 256 199 250 190 253 194 z m -249 -347 b -339 -432 -275 -381 -325 -426 b -350 -442 -344 -433 -350 -439 b -354 -447 -350 -446 -351 -447 b -382 -453 -357 -446 -369 -449 b -404 -429 -425 -465 -431 -461 b -397 -415 -396 -419 -392 -412 b -397 -410 -404 -421 -404 -419 b -381 -393 -392 -403 -385 -396 b -374 -381 -376 -390 -374 -385 b -368 -375 -374 -375 -371 -372 b -354 -360 -365 -376 -360 -369 b -340 -343 -350 -350 -343 -343 b -325 -328 -336 -343 -329 -336 b -314 -314 -322 -319 -317 -314 b -311 -304 -310 -314 -310 -310 b -304 -300 -314 -299 -311 -297 b -299 -299 -300 -301 -297 -301 b -290 -281 -300 -296 -296 -287 b -283 -278 -283 -275 -281 -274 b -269 -268 -285 -283 -279 -278 b -250 -246 -258 -257 -250 -247 b -224 -218 -250 -244 -239 -232 b -197 -186 -210 -204 -197 -190 b -187 -172 -197 -183 -193 -176 b -185 -176 -178 -165 -178 -165 b -167 -160 -190 -182 -182 -175 b -137 -135 -153 -144 -139 -133 b -249 -347 -128 -144 -208 -297 z m 156 472 b 178 488 160 476 169 483 b 171 519 201 500 197 521 b 65 492 139 518 96 506 b 17 407 17 467 0 436 b 57 401 29 386 33 386 b 86 419 67 407 79 415 b 138 469 110 435 140 464 b 142 468 135 471 136 471 b 156 472 146 465 151 467 z "},"k":{"ha":429,"x_min":0,"x_max":0,"o":"m 94 278 b 178 476 82 278 88 289 b 238 603 210 542 236 599 b 243 613 238 606 240 611 b 321 757 249 617 275 667 b 331 847 342 799 343 813 b 306 850 322 867 319 868 b 229 744 290 833 229 749 b 207 708 229 743 219 726 b 15 333 149 619 50 426 b 1 299 10 318 3 301 b -7 274 -1 296 -6 285 b -17 254 -10 264 -14 254 b -33 236 -19 254 -26 246 b -39 203 -42 222 -43 214 b -37 179 -36 194 -35 185 b -60 31 -46 157 -61 54 b 4 -103 -51 -43 -35 -79 b 15 -87 31 -119 33 -117 b 0 -17 3 -67 1 -54 b 7 56 0 8 3 42 b 43 118 28 132 28 133 b 97 89 57 106 93 85 b 108 86 99 90 104 89 b 181 65 121 76 171 63 b 189 64 185 67 189 67 b 286 74 189 54 260 61 b 353 142 313 86 353 128 b 322 135 353 151 353 151 b 240 118 299 122 288 119 l 186 118 l 128 149 b 60 189 94 165 65 183 b 58 194 56 194 54 196 b 65 194 63 192 65 192 b 92 200 65 197 78 200 b 392 371 179 203 358 307 b 394 419 403 394 404 419 b 338 389 392 419 367 406 b 94 278 249 338 118 278 z "},"l":{"ha":428,"x_min":0,"x_max":0,"o":"m 382 163 b 393 167 386 160 390 161 b 407 179 394 172 401 178 b 418 190 414 182 418 186 b 426 204 418 196 422 201 b 460 250 438 211 460 242 b 422 236 460 264 447 260 b 349 179 408 224 375 199 b 274 125 321 160 288 136 b 246 106 260 114 247 106 b 190 67 242 106 217 88 b 43 -22 146 32 57 -22 b 39 19 38 -22 38 -12 b 49 76 42 43 44 68 b 64 126 51 85 58 107 b 132 319 74 163 122 299 b 172 417 135 326 153 369 b 233 557 190 463 218 526 b 289 676 247 588 272 642 b 329 765 306 713 324 751 b 343 794 335 778 340 790 b 325 896 354 810 339 896 b 233 761 322 896 299 863 b -6 251 149 629 51 421 b -42 25 -39 150 -47 101 b 21 -96 -37 -54 -29 -71 b 69 -115 42 -107 64 -115 b 111 -99 76 -117 94 -108 b 129 -83 126 -89 136 -82 b 122 -82 124 -86 121 -85 b 135 -75 125 -78 131 -75 b 143 -69 139 -75 143 -72 b 149 -67 143 -65 146 -65 b 176 -51 153 -69 164 -61 b 214 -15 188 -40 206 -25 b 235 0 224 -7 233 0 b 251 24 242 0 254 18 b 261 33 250 26 254 31 b 360 132 278 38 360 121 b 375 143 360 136 367 142 b 382 157 388 147 389 149 b 382 163 376 164 376 165 z "},"m":{"ha":775,"x_min":0,"x_max":0,"o":"m 394 232 b 414 251 399 228 414 243 b 422 254 414 254 418 256 b 457 288 429 251 460 281 b 467 290 457 290 461 292 b 475 297 472 290 475 293 b 482 301 474 301 476 303 b 472 254 493 297 493 301 b 433 81 449 199 431 122 b 461 21 436 50 438 44 b 521 -8 489 -7 508 -17 b 539 -3 525 -6 533 -3 b 560 8 544 -3 554 3 b 578 18 565 14 574 18 b 585 24 582 18 585 21 b 599 35 585 26 590 32 b 625 60 607 39 619 50 b 638 71 632 71 638 75 b 649 75 638 64 640 65 b 663 88 654 82 661 88 b 728 143 665 88 682 103 b 738 156 738 151 742 157 b 731 156 733 153 731 153 b 746 164 731 157 738 161 b 772 189 753 167 765 178 b 783 201 778 199 783 206 b 796 215 783 199 789 204 b 807 246 801 226 807 239 b 772 238 807 256 804 256 b 617 132 743 222 638 150 b 488 72 582 100 497 61 b 515 181 482 76 507 168 b 518 197 518 183 519 192 b 518 203 515 203 515 206 b 551 307 524 197 556 296 b 547 329 550 310 549 321 b 519 389 542 363 531 386 b 349 264 497 397 442 356 b 275 214 263 178 268 182 b 283 247 278 229 282 243 b 281 276 286 250 285 264 b 267 322 276 289 271 310 b 247 353 263 338 256 349 b 188 318 235 358 228 354 b 108 244 163 296 126 263 b 72 213 89 225 74 211 b 90 254 71 213 79 232 b 114 314 101 276 111 303 b 94 389 118 336 106 385 b -1 249 82 393 43 336 b -65 64 -49 156 -65 106 b -40 11 -65 35 -64 32 l -15 -11 l 0 8 b 17 29 8 18 17 28 b 39 58 17 32 26 44 b 60 92 53 72 61 88 b 61 99 57 96 58 100 b 79 103 71 97 83 100 b 93 124 78 104 83 114 b 107 147 104 133 110 143 b 107 151 104 151 104 153 b 168 210 113 146 168 199 b 172 215 168 215 171 217 b 193 224 175 213 183 217 b 204 225 210 235 211 235 b 196 104 196 208 189 115 b 222 76 199 100 211 88 l 244 57 l 268 82 b 292 114 281 94 292 110 b 296 121 292 119 293 122 b 308 126 299 119 304 122 b 308 135 314 133 314 135 b 317 142 304 136 308 139 b 329 157 329 146 332 150 b 329 163 328 163 328 165 b 368 196 333 158 368 188 b 379 210 368 200 374 206 b 392 226 386 214 392 221 b 394 232 392 232 393 235 z "},"n":{"ha":618,"x_min":0,"x_max":0,"o":"m 113 82 b 118 88 113 85 115 88 b 161 121 121 86 140 101 b 267 207 203 160 226 178 b 290 231 282 218 292 229 b 294 232 288 233 290 233 b 285 176 303 229 301 221 b 278 0 253 93 251 32 b 301 -28 285 -10 296 -22 b 351 -24 313 -43 339 -40 b 358 -19 356 -18 358 -17 b 382 -1 358 -28 382 -11 b 388 4 382 3 385 6 b 486 75 393 0 463 50 b 504 89 493 82 501 89 b 511 107 510 89 513 96 b 519 108 511 110 515 110 b 532 114 525 106 529 108 b 544 124 533 119 539 124 b 549 129 549 124 551 126 b 550 135 547 132 547 135 b 606 189 560 135 607 182 b 610 192 604 192 607 193 b 651 235 615 188 651 225 b 647 240 651 238 650 240 b 596 210 643 240 606 218 b 538 175 593 207 567 192 b 410 93 478 139 475 138 b 314 49 351 53 318 38 b 335 129 310 61 313 74 b 363 260 361 196 365 218 b 324 315 357 310 347 325 b 207 236 300 304 243 265 b 168 204 189 221 172 207 b 103 151 165 201 135 178 b 40 107 69 126 40 106 b 97 225 36 110 76 193 b 114 293 114 251 115 258 b 68 333 111 356 99 365 b -51 117 21 283 -31 189 b -36 -1 -71 49 -68 31 b -4 -29 -22 -17 -7 -29 b 32 8 6 -29 36 1 b 36 10 31 11 32 13 b 113 82 43 6 113 69 z "},"o":{"ha":347,"x_min":0,"x_max":0,"o":"m 75 -60 b 132 -4 83 -58 133 -10 b 138 0 132 -3 133 0 b 139 6 140 0 142 3 b 142 10 138 10 139 11 b 244 151 153 7 218 99 b 268 246 265 197 268 206 b 221 386 268 304 249 361 b 143 404 196 408 179 413 b 81 361 121 399 108 390 b 6 246 46 326 14 276 b -15 207 3 238 -7 221 b -75 51 -49 157 -69 106 b -37 -69 -83 -18 -78 -39 b 25 -87 -8 -93 25 -103 b 29 -83 25 -83 28 -82 b 64 -64 35 -89 67 -71 b 64 -60 61 -61 63 -58 b 75 -60 67 -60 72 -60 z m 13 10 b -12 15 -15 -4 -18 -3 b 56 163 -7 40 38 135 b 68 194 65 176 71 192 b 69 197 67 199 67 200 b 121 276 78 190 108 238 b 158 306 122 282 139 294 b 206 319 186 322 194 324 b 203 228 226 310 225 276 b 13 10 160 136 75 39 z "},"p":{"ha":486,"x_min":0,"x_max":0,"o":"m 354 444 b 235 351 324 433 278 397 b 69 139 189 303 101 190 b 47 111 60 124 50 111 b 44 115 44 111 43 113 b 111 247 46 118 75 176 b 169 400 171 368 174 375 b 158 428 167 417 163 428 b 0 194 144 428 60 303 b -26 143 -15 167 -26 144 b -47 97 -26 142 -36 121 b -132 -156 -82 21 -100 -31 b -172 -356 -162 -271 -174 -326 b -140 -407 -171 -386 -168 -390 b -108 -407 -117 -421 -108 -421 b -1 -119 -108 -383 -18 -140 b -1 -104 1 -115 1 -108 b 0 -101 -3 -100 -3 -99 b 28 -62 3 -104 15 -86 b 69 8 40 -40 58 -8 b 86 39 79 24 86 38 b 99 57 85 40 90 49 b 111 81 107 65 113 76 b 113 86 110 85 110 88 b 138 113 115 85 126 96 b 354 338 218 226 301 313 b 378 311 393 356 397 350 b 190 76 339 236 250 124 b 58 -58 140 35 54 -53 b 93 -58 63 -67 89 -67 b 104 -54 96 -56 100 -53 b 153 -39 114 -56 144 -46 b 161 -39 157 -36 161 -36 b 169 -33 161 -42 164 -39 b 182 -24 174 -28 179 -22 b 204 -11 193 -24 207 -17 b 210 -6 203 -8 206 -6 b 219 0 215 -6 219 -3 b 225 3 219 4 222 4 b 231 4 228 1 231 1 b 251 19 231 7 240 14 b 394 178 282 36 394 161 b 408 201 394 181 401 190 b 425 225 417 211 424 222 b 435 251 425 229 431 240 b 414 428 453 293 440 406 b 354 444 397 443 369 450 z "},"q":{"ha":636,"x_min":0,"x_max":0,"o":"m 654 260 b 651 256 656 256 654 253 b 636 243 649 257 642 251 b 621 221 631 233 624 224 b 571 147 618 217 596 185 b 496 36 546 110 511 60 b 431 -64 479 11 450 -33 b 372 -150 393 -125 394 -122 b 363 -169 364 -161 360 -169 b 361 -174 365 -169 365 -171 b 321 -228 357 -176 339 -200 b 260 -315 272 -297 263 -312 b 231 -362 250 -325 231 -357 b 225 -365 231 -365 228 -367 b 210 -378 222 -364 215 -369 b 128 -461 199 -396 131 -464 b 136 -415 126 -460 131 -439 b 144 -364 143 -390 146 -368 b 147 -358 143 -360 144 -357 b 163 -318 151 -361 161 -337 b 167 -310 163 -315 164 -311 b 174 -289 169 -308 172 -299 b 186 -253 175 -279 181 -262 b 192 -228 192 -242 194 -231 b 194 -222 190 -225 190 -222 b 203 -207 197 -222 201 -215 b 226 -150 206 -199 215 -174 b 258 -78 238 -126 251 -94 b 278 -36 265 -62 275 -43 b 281 -12 282 -29 282 -18 b 281 -7 278 -7 278 -4 b 318 51 285 -11 286 -8 b 338 101 329 74 339 96 b 340 110 338 107 339 111 b 356 142 347 106 360 135 b 360 146 354 144 356 147 b 367 157 364 144 367 149 b 371 168 367 164 368 169 b 379 196 378 164 383 186 b 379 199 376 200 376 201 b 424 278 390 189 435 265 b 426 286 419 283 419 286 b 431 281 431 286 433 283 b 433 278 429 276 431 276 b 440 301 438 281 440 290 b 446 313 440 313 443 317 b 457 318 449 308 451 310 b 458 325 463 326 463 329 b 469 346 454 324 460 333 b 481 379 483 365 486 374 b 478 388 478 383 476 388 b 489 390 481 389 485 389 b 479 426 499 392 496 403 b 433 426 464 451 451 451 b 411 399 426 417 415 404 b 385 361 406 393 393 376 l 368 333 l 360 363 b 250 426 344 417 306 439 b 156 385 208 417 190 408 b -96 47 40 301 -60 168 b -106 -28 -100 32 -104 -1 b -50 -122 -107 -81 -110 -76 l -32 -136 l 0 -119 b 150 21 33 -101 157 14 b 156 24 147 22 150 24 b 192 54 160 24 176 38 b 218 78 206 71 218 81 b 192 17 218 74 207 47 b 169 -42 178 -12 168 -39 b 167 -46 171 -44 169 -46 b 124 -133 161 -46 150 -69 b 88 -244 106 -179 83 -244 b 82 -261 89 -244 86 -253 b 49 -419 69 -285 49 -386 b 90 -512 49 -453 71 -504 l 90 -514 b 163 -514 108 -521 158 -522 b 171 -511 165 -511 168 -510 b 219 -460 175 -514 224 -464 b 226 -453 218 -458 221 -454 b 286 -368 238 -449 285 -382 b 304 -347 288 -364 294 -354 b 315 -333 313 -339 318 -333 b 326 -315 313 -333 318 -325 b 339 -292 335 -306 340 -294 b 347 -285 336 -289 342 -286 b 357 -271 357 -282 360 -278 b 372 -244 354 -264 358 -256 b 386 -224 382 -236 389 -226 b 393 -210 385 -222 388 -215 b 407 -193 400 -206 406 -197 b 419 -171 408 -187 414 -179 b 429 -156 425 -164 431 -157 b 440 -140 429 -153 435 -146 b 453 -119 447 -133 453 -124 b 460 -114 453 -114 456 -111 b 461 -111 464 -117 464 -115 b 468 -83 457 -104 464 -78 b 485 -57 474 -89 489 -64 b 486 -53 482 -54 483 -51 b 493 -46 497 -54 501 -51 b 494 -40 486 -42 486 -40 b 508 -22 501 -40 507 -35 b 518 -6 511 -12 515 -6 b 521 -1 522 -6 524 -3 b 529 11 519 0 522 7 b 543 31 536 17 542 25 b 565 74 546 47 561 76 b 569 82 568 71 569 75 b 582 107 569 89 575 100 b 590 124 588 113 592 121 b 597 135 589 126 592 132 b 603 144 603 138 606 142 b 611 160 601 147 604 154 b 618 178 617 167 621 175 b 622 182 617 181 618 182 b 653 242 628 182 654 233 b 657 247 651 244 654 247 b 672 281 663 247 676 276 b 654 260 667 286 651 268 z m 161 135 b 54 42 121 99 72 56 b 19 13 36 28 21 14 b -4 4 15 7 -4 0 b 40 89 -4 10 26 68 b 51 118 49 101 54 114 b 53 122 49 121 50 124 b 85 156 56 122 71 136 b 206 283 107 186 201 285 b 218 292 211 279 218 283 b 222 297 218 297 219 300 b 244 304 224 296 233 299 b 265 314 254 310 264 314 b 285 322 267 315 275 318 b 321 329 293 325 310 329 b 342 311 339 329 342 328 b 269 231 342 293 339 290 b 161 135 251 215 203 172 z "},"r":{"ha":438,"x_min":0,"x_max":0,"o":"m 349 293 b 365 307 356 301 364 307 b 388 321 368 306 378 313 b 413 336 397 331 408 336 b 419 339 417 335 419 336 b 503 382 419 346 494 385 b 501 393 506 382 504 386 b 457 404 496 403 476 408 b 438 401 454 404 444 403 b 393 389 429 400 408 394 b 357 378 376 383 361 378 b 331 367 353 376 342 372 b 304 357 321 361 308 357 b 288 349 300 357 293 353 b 279 343 283 343 279 340 b 206 304 279 347 233 324 b 160 276 193 296 172 283 l 138 264 l 168 322 b 194 393 189 361 196 383 b 189 424 193 401 190 415 b 150 456 182 463 171 472 b -7 208 121 432 44 313 b -89 -6 -62 99 -86 36 b -71 -69 -92 -44 -85 -69 b -43 -87 -67 -69 -54 -78 b -19 -100 -32 -97 -21 -103 b 24 -17 -8 -89 26 -21 b 26 -12 22 -14 22 -11 b 71 43 29 -14 49 13 b 129 121 92 75 118 110 b 150 146 140 132 150 143 b 169 163 150 147 158 156 b 186 181 179 168 188 178 b 189 188 186 185 188 188 b 226 206 196 185 226 201 b 238 214 226 208 232 213 b 246 224 244 217 247 221 b 247 226 243 228 244 229 b 275 249 256 222 281 243 b 282 249 272 251 275 251 b 288 253 290 246 292 246 b 290 256 285 257 285 258 b 349 293 297 251 328 271 z "},"s":{"ha":446,"x_min":0,"x_max":0,"o":"m 467 247 b 443 243 458 246 447 243 b 436 239 439 243 436 242 b 417 231 436 236 428 233 b 257 160 397 228 371 215 l 193 129 l 175 143 b 78 181 156 158 96 181 b 67 186 72 181 67 183 b 139 250 67 193 106 226 b 167 275 154 260 167 271 b 171 279 167 278 168 279 b 214 299 178 276 214 293 b 218 301 214 301 215 303 b 243 331 232 293 243 306 b 207 379 243 369 235 379 b 17 275 151 379 60 329 b -25 163 -10 242 -31 185 b 49 75 -18 138 25 85 b 75 68 61 69 74 67 b 79 65 78 69 79 68 b 64 53 79 63 72 57 b -82 -69 19 33 -67 -40 b -82 -149 -99 -104 -99 -125 b -50 -175 -72 -161 -58 -172 b -22 -175 -42 -179 -29 -179 b 3 -174 -14 -172 -3 -172 b 14 -171 10 -176 14 -175 b 25 -167 14 -167 19 -165 b 56 -158 32 -168 44 -164 b 69 -153 65 -151 72 -150 b 139 -118 64 -162 100 -146 b 197 -60 165 -100 182 -83 b 215 31 215 -29 217 -26 l 214 88 l 249 110 b 283 138 268 121 283 135 b 290 146 283 142 286 146 b 293 140 293 146 294 143 b 297 138 290 136 293 135 b 303 147 303 139 306 143 b 308 150 300 151 303 151 b 325 157 315 147 321 150 b 338 165 328 164 333 168 b 353 174 340 164 347 168 b 376 188 360 181 369 188 b 401 201 383 189 394 196 b 429 214 410 208 421 214 b 453 224 436 215 447 219 b 472 235 458 228 467 233 b 467 247 490 242 485 253 z m 126 -19 b 8 -93 97 -46 24 -92 b -17 -100 4 -93 -8 -96 b -46 -97 -40 -110 -50 -108 b -50 -92 -43 -89 -44 -87 b -54 -90 -56 -94 -57 -94 b -42 -83 -51 -86 -46 -83 b -21 -67 -37 -83 -28 -75 b -4 -51 -14 -58 -7 -51 b 15 -39 -3 -53 7 -47 b 43 -19 24 -32 36 -22 b 56 -3 50 -15 56 -8 b 61 1 56 1 58 4 b 94 21 64 0 79 8 b 172 46 124 44 172 61 b 126 -19 172 32 154 6 z "},"t":{"ha":340,"x_min":0,"x_max":0,"o":"m 678 638 b 700 636 683 633 690 632 b 714 638 707 639 714 639 b 743 635 714 635 726 633 b 772 643 758 636 772 639 b 783 642 772 646 776 646 b 796 640 790 639 796 638 b 871 644 796 643 829 644 b 947 650 918 644 947 647 b 951 650 947 654 949 654 b 1014 647 956 644 964 644 b 1004 660 1046 649 1040 657 b 294 644 861 667 329 656 b 283 651 290 643 286 646 b 286 660 282 656 283 660 b 307 689 289 660 299 672 b 319 751 319 715 322 725 b 242 714 314 814 301 808 b 189 639 217 674 193 639 b 128 633 186 638 158 635 b 43 628 97 632 60 629 b -31 622 26 626 -6 624 b -187 610 -144 614 -175 611 b -243 603 -194 608 -219 606 b -443 579 -287 600 -401 586 b -469 538 -474 575 -483 558 b -417 529 -465 529 -417 522 b -367 533 -417 532 -394 533 b -314 536 -339 533 -315 535 b -297 539 -312 539 -306 540 b -282 542 -289 538 -282 539 b -249 544 -282 543 -267 544 b -208 547 -229 544 -212 546 b -167 553 -203 550 -199 551 b -150 558 -156 553 -147 556 b -137 564 -151 561 -146 563 b -128 560 -131 564 -125 563 b -107 563 -132 551 -126 553 b -86 565 -94 568 -87 569 b -74 567 -83 561 -79 561 b -65 565 -67 571 -65 571 b -53 563 -65 561 -61 560 b -26 568 -46 565 -35 568 b -6 578 -18 569 -8 574 b -1 581 -3 582 -1 583 b 25 574 -1 576 11 574 b 51 576 40 574 51 575 b 76 578 51 579 63 579 b 96 582 92 576 99 578 b 110 583 94 586 99 586 b 135 583 118 581 131 581 b 157 585 144 590 157 590 b 115 507 157 582 139 547 b -15 244 61 413 29 349 b -83 -58 -78 99 -93 35 b -57 -122 -79 -101 -78 -106 b -17 -151 -46 -133 -26 -146 b 3 -160 -7 -156 3 -160 b 58 -126 11 -161 58 -133 b 63 -122 58 -122 60 -119 b 90 -101 65 -124 78 -114 b 140 -50 103 -89 125 -65 b 164 -15 156 -35 165 -19 b 169 -11 163 -10 164 -8 b 174 -7 175 -14 176 -14 b 179 1 171 -1 174 1 b 188 8 185 1 189 4 b 194 15 188 13 190 15 b 211 28 199 15 207 21 b 250 74 217 36 235 56 b 276 115 268 93 279 110 b 278 119 275 119 275 121 b 304 140 283 114 303 131 b 321 164 304 144 311 154 b 336 185 331 174 338 183 b 360 217 335 188 344 201 b 381 260 382 242 394 265 b 132 33 365 254 171 78 b -15 -72 101 0 1 -72 b 90 256 -33 -72 28 117 b 246 569 125 332 213 508 b 319 603 260 596 274 603 b 340 608 332 603 342 606 b 365 610 339 611 350 611 b 407 615 385 607 397 610 b 421 619 414 621 421 622 b 558 631 421 611 547 621 b 569 632 563 633 567 633 b 614 629 575 626 614 624 b 646 633 614 632 628 633 b 675 638 668 632 676 633 b 678 638 672 643 674 643 z "},"u":{"ha":536,"x_min":0,"x_max":0,"o":"m 424 149 b 350 86 406 132 371 103 b 325 71 347 83 336 76 b 307 76 307 63 307 63 b 326 140 307 85 315 114 b 346 192 336 167 344 189 b 389 279 346 193 365 232 b 428 385 425 353 431 368 b 397 446 422 411 406 446 b 371 414 394 444 382 431 b 132 129 350 383 167 164 b 86 88 122 118 101 100 b 57 61 71 75 57 63 b 32 44 56 58 44 51 l 10 33 l 24 72 b 133 296 43 125 107 257 b 156 340 146 313 156 333 b 129 397 156 354 139 390 b 42 313 115 407 85 378 b -64 36 -31 203 -68 104 b -14 -44 -61 -6 -50 -22 b 13 -60 0 -53 13 -60 b 61 -26 21 -62 61 -35 b 65 -24 61 -21 63 -19 b 114 13 68 -28 85 -15 b 150 57 138 38 153 57 b 151 65 144 57 146 60 b 167 74 156 69 163 74 b 172 79 169 74 172 76 b 199 113 172 83 185 97 b 235 157 214 128 229 147 b 249 174 239 165 246 174 b 254 182 251 174 254 178 b 261 192 254 188 257 192 b 264 178 265 192 267 186 b 257 61 257 156 253 82 b 324 1 263 29 304 -7 b 339 6 329 4 336 6 b 407 71 347 7 396 53 b 418 81 414 81 418 85 b 442 94 418 76 429 82 b 461 122 454 107 463 119 b 468 126 460 125 463 126 b 483 139 472 126 479 132 b 482 147 489 149 489 151 b 485 151 478 146 479 147 b 507 171 500 161 518 178 b 506 175 499 165 499 167 b 522 185 510 181 517 185 b 536 200 526 185 533 192 b 553 217 540 208 547 215 b 582 264 563 221 586 260 b 424 149 579 267 460 179 z "},"v":{"ha":364,"x_min":0,"x_max":0,"o":"m 468 513 b 235 278 458 513 310 364 b 163 196 206 244 172 207 b 121 147 151 185 133 163 b 43 56 88 104 71 86 l 19 29 l 29 76 b 46 142 36 103 43 132 b 50 161 50 153 51 161 b 53 172 49 161 50 167 b 82 258 57 179 69 218 b 99 347 100 318 104 336 b 93 365 96 357 93 364 b 74 401 94 374 79 401 b -37 133 56 401 -17 228 b -43 -19 -47 93 -50 3 b 18 -68 -40 -31 -6 -58 b 74 -33 32 -74 56 -58 b 101 0 83 -21 96 -7 b 128 35 107 6 119 22 b 154 71 136 49 149 64 b 163 89 160 76 164 85 b 168 93 160 93 163 94 b 174 96 175 90 176 92 b 182 114 172 99 175 108 b 190 133 189 121 193 129 b 193 136 188 138 189 138 b 229 178 199 132 229 167 b 238 185 229 182 233 185 b 250 201 243 185 249 192 b 260 218 253 211 257 219 b 267 226 264 218 267 221 b 274 233 265 233 268 235 b 282 236 278 232 282 233 b 315 282 282 243 290 254 b 329 306 322 290 329 301 b 332 311 329 311 331 314 b 364 354 336 307 364 344 b 368 361 364 357 365 360 b 401 410 379 367 404 403 b 401 411 399 413 399 414 b 424 432 404 410 414 418 b 450 461 433 446 444 458 b 457 474 454 464 457 469 b 463 485 457 479 460 483 b 468 513 471 488 476 513 z "},"w":{"ha":639,"x_min":0,"x_max":0,"o":"m 607 453 b 422 233 544 386 476 306 b 374 168 399 201 376 172 b 335 117 369 165 353 142 b 281 47 317 92 293 61 l 260 24 l 260 43 b 265 106 260 56 263 82 b 274 178 268 128 272 161 b 279 218 276 196 278 214 b 239 301 283 229 249 301 b 211 276 235 301 222 290 b 185 244 200 263 189 249 b 176 232 181 239 176 235 b 161 210 176 229 169 219 b 125 168 151 200 136 181 b 71 107 114 154 90 128 b 39 85 44 79 36 74 b 132 331 46 107 110 274 b 138 428 154 383 156 401 b 129 444 133 435 129 443 b 119 460 132 456 129 460 b 28 315 106 460 75 413 b -51 56 -28 203 -53 122 b -8 -33 -51 -1 -44 -15 b 29 -50 8 -43 25 -50 b 79 19 40 -50 83 8 b 82 22 78 26 78 26 b 101 33 86 17 90 19 b 114 58 108 43 114 56 b 121 65 114 63 117 65 b 126 75 125 65 126 69 b 128 82 126 81 126 85 b 168 132 135 76 172 125 b 174 138 167 135 168 138 b 183 142 179 138 183 139 b 194 161 183 144 188 153 b 203 179 201 168 204 176 b 206 186 201 181 203 185 b 208 165 208 189 210 179 b 203 78 207 151 204 113 b 240 -47 199 -1 204 -21 b 304 -57 271 -69 285 -72 b 383 60 319 -44 383 49 b 388 67 383 64 386 67 b 422 119 393 67 422 113 b 440 144 422 124 431 135 b 456 167 450 154 457 164 b 460 176 453 169 456 174 b 511 249 469 182 511 240 b 515 256 511 251 513 254 b 543 304 525 260 547 297 b 549 310 542 310 543 311 b 557 313 554 307 557 308 b 607 388 557 319 589 368 b 613 401 613 394 615 401 b 614 406 610 401 610 403 b 646 451 625 413 654 456 b 647 456 640 449 640 450 b 657 474 653 460 657 468 b 661 481 657 479 660 482 b 681 506 669 478 685 499 b 607 453 674 517 660 507 z "},"x":{"ha":528,"x_min":0,"x_max":0,"o":"m 538 246 b 426 192 506 232 457 208 b 374 165 410 183 386 172 b 338 143 360 158 344 149 b 269 103 332 138 301 119 b 185 74 224 79 207 74 b 146 82 169 74 151 78 b 178 131 138 89 140 93 b 221 172 200 154 219 172 b 301 257 229 172 304 251 b 308 258 300 260 303 261 b 322 267 315 256 319 258 b 329 278 324 274 326 278 b 367 315 336 278 363 304 b 378 325 368 321 374 325 b 419 368 389 325 424 363 b 425 369 417 371 419 371 b 435 371 431 367 435 368 b 446 389 435 375 440 383 b 458 399 453 396 458 400 b 479 417 458 396 468 404 b 506 438 492 429 503 439 b 507 446 508 438 508 440 b 500 454 506 450 501 454 b 406 396 494 454 410 401 b 376 375 404 394 390 385 b 213 257 349 357 228 269 b 171 221 207 253 189 238 b 90 157 126 183 96 158 b 76 175 88 156 82 164 b 28 344 67 196 35 307 b 3 375 24 367 11 382 b -14 315 -3 372 -7 358 b 17 158 -18 293 -4 222 l 32 110 l -61 17 b -186 -143 -160 -81 -186 -114 b -168 -172 -186 -157 -182 -164 b -132 -172 -149 -183 -149 -183 b -115 -151 -124 -165 -115 -157 b -111 -143 -115 -147 -114 -143 b 21 -6 -103 -143 22 -14 b 28 0 21 -1 24 1 b 57 17 32 -3 46 6 l 81 38 l 119 -4 b 160 -40 142 -28 160 -44 b 165 -43 160 -37 163 -39 b 196 -51 168 -49 179 -51 b 247 -40 236 -50 240 -49 b 261 -32 251 -36 257 -32 b 314 11 271 -32 318 7 b 315 13 313 13 314 14 b 496 168 326 4 503 156 b 500 172 494 171 496 172 b 507 178 504 171 507 174 b 513 185 506 182 508 185 b 560 243 525 185 563 231 b 538 246 557 253 556 253 z "},"y":{"ha":561,"x_min":0,"x_max":0,"o":"m 417 140 b 340 90 400 126 342 89 b 350 133 339 92 343 111 b 379 278 371 207 381 250 b 350 364 379 317 363 364 b 297 304 349 364 325 338 b 54 42 163 143 117 93 b -7 10 28 21 0 6 b 60 181 -15 15 13 88 l 103 264 l 97 297 b 64 333 90 343 83 350 b -42 169 43 314 -22 214 b -78 31 -61 129 -78 65 b -39 -65 -78 -19 -71 -35 b 0 -96 -21 -82 -4 -96 b 82 -33 21 -97 89 -44 b 85 -31 81 -29 82 -28 b 121 4 92 -35 121 -7 b 128 10 121 10 124 11 b 133 26 133 6 136 14 b 139 28 133 29 135 29 b 158 56 146 24 163 47 b 160 58 157 60 157 61 b 229 149 168 51 235 139 b 235 151 226 153 229 154 b 247 160 240 149 244 151 b 257 171 250 165 254 171 b 268 185 260 171 265 178 b 281 200 271 193 276 200 b 283 208 283 200 285 204 b 285 215 281 214 282 217 b 293 219 288 213 292 215 b 297 217 294 224 296 222 b 292 193 297 211 294 200 b 268 126 289 185 278 156 b 174 -43 222 -4 222 -3 b -115 -328 67 -132 -71 -267 b -154 -474 -153 -378 -168 -439 b -83 -528 -146 -493 -107 -524 b -57 -528 -75 -529 -64 -529 b -25 -522 -50 -526 -36 -524 b 3 -511 -14 -521 -1 -515 b 14 -501 6 -506 11 -501 b 82 -454 33 -500 88 -462 b 85 -451 81 -451 82 -450 b 100 -435 92 -457 106 -442 b 101 -435 97 -433 99 -432 b 129 -407 110 -439 135 -412 b 133 -403 128 -406 129 -403 b 211 -289 143 -403 188 -337 b 282 -101 226 -257 268 -147 b 304 -29 286 -86 296 -53 b 331 36 311 -4 324 25 b 342 44 339 47 343 51 b 346 43 339 33 339 33 b 358 50 350 49 356 51 b 361 56 360 47 361 50 b 367 65 361 61 364 65 b 403 100 374 65 403 93 b 411 103 403 103 407 104 b 419 106 417 100 419 101 b 428 113 419 110 424 113 b 457 143 436 113 458 136 b 464 143 456 144 460 146 b 472 146 469 142 472 143 b 482 153 472 150 476 153 b 488 158 488 153 489 156 b 490 165 485 163 486 165 b 511 181 493 165 503 172 b 525 192 519 189 525 194 b 533 194 525 189 529 190 b 569 224 549 208 567 224 b 607 257 578 224 607 250 b 417 140 607 265 460 175 z m 171 -132 b 10 -383 122 -244 68 -328 b -65 -442 -28 -418 -65 -447 b -74 -443 -65 -439 -69 -439 b -100 -453 -78 -446 -89 -450 b -118 -440 -118 -457 -119 -457 b -108 -418 -117 -431 -112 -421 b -100 -403 -104 -415 -101 -408 b -87 -386 -99 -399 -93 -390 b -76 -364 -82 -381 -76 -371 b -69 -353 -75 -357 -72 -351 b -54 -335 -67 -353 -60 -344 b -39 -314 -49 -324 -42 -314 b -22 -297 -32 -312 -17 -297 b -14 -289 -25 -297 -21 -293 b 4 -265 -7 -283 1 -272 b 17 -253 7 -257 13 -251 b 35 -233 19 -253 28 -244 b 46 -218 40 -222 46 -215 b 58 -211 46 -221 51 -217 b 67 -193 64 -204 68 -197 b 68 -183 64 -190 65 -186 b 75 -186 72 -182 75 -183 b 81 -189 75 -190 78 -192 b 83 -181 83 -187 85 -183 b 85 -176 81 -178 82 -175 b 126 -143 88 -176 107 -162 b 171 -132 194 -76 194 -76 z "},"z":{"ha":665,"x_min":0,"x_max":0,"o":"m 526 167 b 515 163 522 165 517 164 b 471 146 507 160 486 151 b 432 131 461 142 443 135 b 410 117 419 126 410 119 b 406 114 410 114 408 113 b 243 51 403 117 294 75 b 193 35 213 38 193 31 b 250 101 193 38 218 67 b 324 179 282 135 315 171 b 367 238 332 189 351 215 l 394 278 l 394 338 b 375 414 393 394 393 396 l 357 432 l 311 424 b 260 411 286 419 263 414 b 250 408 256 408 251 407 b 207 397 249 411 229 406 b 92 289 97 356 68 329 b 118 272 100 275 106 271 b 139 281 128 274 136 276 b 149 285 140 285 144 286 b 203 293 153 283 176 288 b 279 310 228 300 263 307 b 310 319 296 311 310 317 b 317 319 310 324 311 324 b 313 296 322 314 321 308 b 214 178 297 274 250 217 b 157 117 197 160 171 132 b 118 72 143 100 125 81 b 56 -47 81 32 47 -32 b 78 -76 58 -51 68 -64 b 107 -93 96 -99 101 -101 b 128 -85 110 -90 118 -86 b 154 -71 136 -82 149 -76 b 171 -60 160 -65 167 -61 b 196 -44 188 -57 199 -50 b 201 -43 193 -42 196 -40 b 210 -39 206 -44 210 -43 b 217 -36 210 -36 213 -35 b 222 -31 219 -39 222 -36 b 229 -24 222 -25 225 -22 b 342 33 238 -26 333 22 b 354 39 346 38 350 40 b 382 51 357 38 371 43 b 400 60 394 60 403 64 b 421 67 399 57 407 60 b 447 85 433 74 446 82 b 460 86 450 88 456 88 b 465 89 467 83 468 85 b 471 92 463 93 464 94 b 479 94 475 90 479 92 b 488 101 479 99 483 101 b 507 111 493 101 501 106 b 526 122 513 117 521 122 b 547 136 539 122 550 131 b 556 139 544 139 549 140 b 568 142 563 138 568 139 b 579 147 568 143 574 146 b 603 157 586 147 597 151 b 618 165 608 161 615 165 b 646 181 621 165 633 172 b 664 190 658 190 667 193 b 669 188 663 186 664 185 b 679 196 675 189 679 193 b 689 201 679 199 683 201 b 724 228 701 201 729 222 b 526 167 717 235 649 214 z "},"{":{"ha":367,"x_min":0,"x_max":0,"o":"m 83 -417 b 133 -437 110 -435 124 -440 b 154 -400 150 -433 154 -426 b 128 -360 156 -378 143 -360 b 97 -349 124 -360 110 -356 b 75 -304 74 -337 74 -337 b 103 -143 78 -256 83 -221 b 128 -56 124 -67 122 -68 b 136 -26 129 -51 133 -37 b 161 44 140 -15 150 17 b 229 318 203 164 238 303 b 222 349 228 319 225 333 b 214 394 221 363 217 383 b 253 463 207 417 206 413 b 449 910 329 542 367 631 b 490 1044 464 967 483 1028 b 592 1185 510 1097 563 1169 b 629 1185 608 1193 629 1193 b 635 1182 629 1182 632 1181 b 614 1263 644 1188 629 1246 b 554 1274 593 1283 582 1286 b 383 972 488 1243 438 1157 b 240 604 326 781 285 671 b 197 544 224 578 204 550 b 139 451 157 501 142 475 b 151 413 136 429 138 424 b 167 369 164 401 167 393 b 119 185 167 340 147 267 b 19 -186 78 65 33 -99 b 17 -286 15 -210 14 -254 b 83 -417 19 -358 32 -382 z "},"|":{"ha":628,"x_min":0,"x_max":0,"o":"m 174 93 b 129 -86 151 -6 154 6 b 107 -178 118 -131 108 -172 b 42 -429 106 -187 86 -261 b 35 -585 17 -525 14 -568 b 71 -582 53 -597 61 -597 b 113 -458 79 -569 106 -492 b 147 -322 114 -451 131 -390 b 176 -192 165 -254 178 -196 b 179 -185 175 -187 176 -185 b 189 -162 182 -185 186 -175 b 260 129 192 -142 211 -67 b 281 221 271 174 281 215 b 286 231 282 226 283 231 b 293 250 288 231 292 239 b 308 307 296 261 303 286 b 344 431 315 328 331 383 b 371 524 357 476 369 519 b 376 539 374 529 375 535 b 572 1163 382 564 535 1049 b 613 1331 606 1260 614 1299 b 588 1365 608 1367 599 1381 b 517 1200 576 1350 542 1268 b 490 1129 506 1168 493 1136 b 417 925 482 1107 456 1036 b 239 354 329 672 315 628 b 174 93 229 322 194 179 z "},"}":{"ha":650,"x_min":0,"x_max":0,"o":"m 385 401 l 365 358 b 253 19 335 294 289 156 b 136 -286 219 -104 168 -240 b 53 -375 119 -312 75 -358 b 4 -401 44 -381 22 -393 b -56 -439 -44 -424 -56 -431 b -17 -472 -56 -450 -36 -465 b 56 -471 4 -478 56 -478 b 64 -469 56 -468 60 -468 b 144 -422 76 -474 113 -453 b 174 -400 160 -408 174 -397 b 186 -383 174 -403 179 -394 b 207 -357 193 -372 203 -361 b 211 -343 213 -353 214 -347 b 214 -340 208 -337 208 -336 b 218 -335 219 -343 221 -342 b 219 -328 217 -329 217 -326 b 310 -108 229 -333 299 -164 b 388 167 314 -90 367 97 b 467 360 414 254 443 326 b 481 457 489 394 490 401 b 440 494 475 489 468 494 b 381 517 404 494 376 506 b 388 556 382 522 385 540 b 488 846 393 604 443 747 b 558 1051 513 900 553 1017 b 547 1226 567 1099 561 1189 b 435 1240 526 1282 464 1289 b 435 1206 424 1221 424 1221 b 450 1196 442 1199 449 1193 b 454 1192 453 1197 454 1196 b 463 1188 454 1188 458 1186 b 475 1185 468 1189 474 1188 b 485 1185 478 1181 481 1181 b 500 1182 489 1189 493 1188 b 506 1140 507 1175 508 1164 b 418 892 503 1106 485 1056 b 324 549 357 746 325 628 b 361 431 324 483 328 469 l 385 401 z "},"~":{"ha":472,"x_min":0,"x_max":0,"o":"m 26 279 l 42 265 l 64 288 b 156 339 92 317 139 342 b 183 333 163 338 175 335 b 249 289 193 332 221 311 b 315 243 275 267 306 246 b 392 253 335 239 374 243 b 458 388 429 274 458 332 b 431 382 458 413 451 411 b 349 336 411 353 382 336 b 243 390 313 336 290 347 b 183 439 221 413 193 433 b 107 442 161 450 125 451 b 17 318 71 422 24 357 b 26 279 14 297 15 292 z "},"¡":{"ha":515,"x_min":0,"x_max":0,"o":"m 249 340 b 210 249 243 343 208 263 b 206 240 210 243 208 239 b 172 171 203 243 176 188 b 131 75 172 168 153 124 b 18 -185 92 -8 56 -93 b 26 -282 0 -228 3 -253 b 56 -292 43 -301 43 -303 b 115 -186 63 -286 89 -239 b 417 579 253 88 381 413 b 414 767 429 640 428 725 b 371 826 400 807 394 815 b 346 803 333 843 319 831 b 358 743 360 790 360 785 b 350 664 357 718 353 682 b 300 494 342 624 306 499 b 289 443 296 492 286 453 b 286 438 289 438 288 436 b 264 397 283 440 274 422 b 254 347 246 347 244 340 b 257 344 258 349 260 349 b 249 340 254 340 250 339 z m 492 1053 b 469 1065 483 1056 475 1061 b 415 1038 461 1074 456 1071 b 392 1022 411 1033 400 1026 b 378 1008 382 1018 376 1011 b 372 1004 379 1006 376 1004 b 367 997 367 1004 364 1001 b 364 994 369 993 368 992 b 322 960 356 1000 322 972 b 315 949 322 956 319 951 b 314 956 313 947 311 950 b 301 951 317 964 314 963 b 276 928 292 943 281 933 b 263 919 272 924 267 919 b 256 913 257 919 254 917 b 250 907 257 908 254 906 b 244 900 246 907 243 904 b 239 897 244 896 243 894 b 225 893 235 900 229 897 b 197 871 222 889 208 878 b 182 835 175 858 165 836 b 436 949 213 835 394 917 b 479 982 461 968 464 971 b 489 992 488 988 492 992 b 492 997 486 992 488 994 b 503 1026 497 1000 501 1013 b 492 1053 504 1046 501 1050 z "},"¢":{"ha":522,"x_min":0,"x_max":0,"o":"m 15 269 b 26 169 14 201 15 190 b 83 108 43 140 56 126 b 107 88 96 100 106 90 b 96 32 108 83 103 58 b 46 -246 46 -136 29 -226 b 61 -256 50 -251 57 -256 b 76 -231 68 -256 79 -239 b 82 -226 76 -228 78 -226 b 90 -207 85 -226 89 -217 b 121 -106 93 -196 107 -151 b 149 -12 135 -61 147 -18 b 168 44 150 -6 160 19 b 204 99 182 85 186 92 b 256 136 215 104 239 121 b 317 204 289 168 329 213 b 332 225 311 201 318 211 b 353 253 346 240 356 253 b 364 272 349 254 354 263 b 376 296 372 283 379 293 b 379 301 375 299 376 301 b 401 339 382 301 392 318 b 422 378 411 360 421 378 b 421 389 425 378 425 382 b 411 401 418 396 414 401 b 299 290 406 400 375 371 b 229 222 263 251 231 221 b 238 253 228 224 232 236 b 249 289 243 268 247 285 b 257 315 250 294 253 306 b 267 342 261 325 265 338 b 282 386 268 347 275 367 b 296 431 289 406 294 425 b 300 447 296 435 299 443 b 360 619 306 461 358 613 b 365 635 361 624 363 631 b 376 667 367 640 372 654 b 403 697 382 686 388 692 b 417 708 413 700 419 706 b 421 707 415 711 417 711 b 442 703 426 704 435 703 b 458 683 449 703 454 696 b 475 664 461 669 467 664 b 485 690 486 664 488 667 b 436 783 481 726 458 768 b 421 807 421 793 418 797 b 465 942 424 814 444 874 b 489 1113 506 1067 508 1086 b 467 1092 482 1122 481 1121 b 363 815 454 1064 383 878 b 338 790 357 799 351 793 b 164 661 300 783 211 717 b 31 401 100 586 61 510 b 15 269 18 354 15 333 z m 81 226 b 258 597 89 354 154 492 b 251 500 300 639 300 640 b 179 286 232 444 199 347 l 142 175 l 119 174 b 81 226 82 172 76 178 z "},"£":{"ha":968,"x_min":0,"x_max":0,"o":"m 43 -93 b 92 -111 60 -108 68 -111 b 118 -108 107 -112 119 -110 b 139 -106 117 -106 126 -104 b 171 -100 153 -107 165 -104 b 178 -99 176 -96 179 -94 b 188 -106 175 -103 179 -106 b 200 -101 196 -106 201 -104 b 272 -97 199 -100 231 -97 b 499 -86 343 -97 449 -92 b 636 -62 599 -75 597 -75 b 672 -53 653 -57 669 -53 b 676 -47 675 -54 676 -51 b 682 -44 676 -44 679 -43 b 713 -21 693 -51 715 -33 l 711 -7 l 489 -8 b 267 -7 367 -10 267 -8 b 319 38 267 -3 281 10 b 478 197 361 68 442 149 b 542 307 494 218 524 268 b 607 390 579 382 583 388 b 608 399 610 390 611 394 b 613 399 606 404 607 404 b 668 407 619 393 651 397 b 678 413 671 410 675 411 b 688 414 681 413 685 414 b 703 415 689 415 696 415 b 710 419 708 414 711 417 b 736 426 706 425 721 429 b 740 432 739 426 740 429 b 747 435 740 436 743 438 b 811 449 754 431 811 443 b 756 464 811 464 799 467 b 613 451 692 461 636 456 l 593 447 l 596 471 b 610 656 600 493 601 514 b 643 800 613 722 619 751 b 656 838 651 818 657 833 b 657 840 654 840 654 842 b 706 893 664 839 706 885 b 714 900 706 897 710 900 b 743 924 718 900 732 911 b 767 943 754 936 765 944 b 788 953 768 942 778 946 b 861 974 808 967 826 972 b 894 953 882 974 885 972 b 897 824 908 925 910 851 b 876 726 868 761 864 739 b 893 725 885 717 893 717 b 907 753 893 728 899 740 b 914 997 951 825 954 910 b 857 1061 896 1038 885 1050 b 779 1061 829 1072 806 1072 b 754 1053 768 1057 757 1053 b 654 978 739 1050 688 1011 b 547 704 586 908 547 810 b 506 454 547 622 529 511 b 474 426 497 438 492 432 b 433 417 461 424 443 419 b 410 411 424 414 414 411 b 272 333 358 404 272 356 b 315 310 272 313 308 292 b 331 317 315 313 324 315 b 354 324 339 317 350 319 b 357 321 361 328 361 328 b 364 321 354 314 354 314 b 389 329 369 326 381 331 b 401 331 396 328 401 329 b 411 336 401 333 406 336 b 435 340 417 336 428 338 b 426 303 453 347 451 340 b 53 -29 343 178 172 26 b 43 -93 18 -46 14 -67 z "},"¤":{"ha":606,"x_min":0,"x_max":0,"o":"m 25 146 b 39 139 31 142 36 139 b 61 163 44 139 61 157 b 74 171 61 165 67 168 b 82 181 82 172 85 176 b 83 185 79 185 79 186 b 106 197 86 182 97 188 b 185 283 147 238 185 278 b 196 296 185 286 190 292 b 247 275 210 304 219 300 b 318 264 265 257 288 254 b 347 260 342 272 343 272 b 411 150 382 172 392 154 b 415 178 424 147 425 169 b 389 240 410 182 399 210 l 372 294 l 386 310 b 396 329 394 318 399 326 b 399 331 394 332 394 332 b 468 447 410 324 449 390 b 478 569 481 483 485 539 b 489 619 474 593 479 619 b 492 628 492 619 493 624 b 501 639 489 632 493 636 b 510 651 510 642 513 644 b 513 657 508 657 508 660 b 554 718 518 654 542 688 b 565 736 558 726 563 735 b 589 790 569 740 583 772 b 586 813 592 801 590 808 b 535 774 581 817 567 807 b 471 699 511 749 482 715 l 453 671 l 443 689 b 321 696 425 726 369 731 l 296 679 l 290 708 b 260 772 283 742 268 772 b 261 675 253 772 253 707 b 239 610 267 651 267 649 b 172 421 193 542 172 486 l 172 383 l 139 347 b 88 290 121 328 97 301 b 64 260 78 278 67 264 b 14 163 42 235 14 179 b 25 146 14 157 19 149 z m 228 390 b 274 519 233 432 247 471 l 297 563 l 306 547 b 325 526 311 540 319 531 b 328 540 336 519 336 521 b 329 601 317 568 317 582 b 417 638 342 625 382 640 b 421 611 424 638 424 631 b 424 582 418 594 419 585 b 431 556 428 579 431 568 b 329 396 431 508 347 378 b 313 389 318 407 313 404 b 301 369 313 382 308 374 b 239 360 288 361 257 356 b 228 390 226 363 225 365 z "},"¥":{"ha":840,"x_min":0,"x_max":0,"o":"m 160 286 b 213 278 176 278 190 276 b 240 285 229 281 242 283 b 246 289 239 288 242 289 b 251 285 251 289 253 288 b 271 286 247 278 264 279 b 275 257 283 299 286 276 b 247 238 268 246 260 239 b 143 183 186 226 150 208 b 157 150 139 168 140 164 b 189 135 169 139 181 133 b 190 106 206 138 206 133 b 39 -206 118 -22 61 -139 b 29 -317 15 -278 14 -299 b 46 -329 35 -324 43 -329 b 74 -289 51 -329 74 -297 b 79 -285 74 -285 76 -283 b 278 15 92 -293 156 -197 b 299 64 292 39 301 60 b 300 67 296 68 297 69 b 332 113 303 65 318 86 b 393 174 356 160 375 178 b 403 175 396 174 401 174 b 414 178 406 175 410 176 b 421 181 417 178 419 179 b 433 183 421 181 428 182 b 449 193 439 185 447 189 b 454 193 453 199 454 199 b 486 197 454 186 461 188 b 549 218 522 213 549 221 b 556 219 549 217 551 217 b 565 224 560 222 564 224 b 581 233 567 224 574 228 b 589 256 590 240 592 244 b 578 265 586 263 581 267 b 414 261 571 261 414 257 b 428 289 414 263 419 275 b 476 321 442 313 446 315 b 533 333 494 325 521 331 b 560 342 546 338 558 340 b 606 356 561 342 582 347 b 656 365 629 363 651 367 b 664 386 668 361 671 367 b 550 419 654 413 632 419 l 501 421 l 525 460 b 603 586 553 507 549 501 b 643 663 628 625 646 658 b 646 664 642 665 643 667 b 685 711 650 661 665 681 b 761 832 701 740 736 794 b 806 908 786 871 806 904 b 817 928 806 911 811 919 b 825 969 825 938 826 947 b 817 1003 824 985 819 1000 b 811 1019 814 1006 811 1013 b 801 1040 811 1025 807 1035 b 783 1038 793 1049 792 1049 b 736 971 779 1032 758 1001 b 676 889 715 942 688 904 b 507 646 619 808 531 682 b 389 563 475 597 432 567 b 357 575 363 560 361 560 b 376 818 350 604 360 726 b 392 940 385 868 392 924 b 364 1007 392 971 375 1007 b 293 718 340 1008 299 838 b 344 494 286 596 303 528 b 376 469 356 488 369 475 l 389 458 l 369 426 l 351 394 l 278 379 b 138 335 194 361 147 347 b 160 286 126 321 136 299 z "},"¦":{"ha":567,"x_min":0,"x_max":0,"o":"m 261 351 b 269 344 265 347 269 344 b 289 379 271 344 279 360 b 304 414 299 399 306 414 b 313 425 303 414 306 419 b 413 628 324 438 360 510 b 457 728 433 674 453 718 b 483 789 461 738 474 765 b 513 858 493 814 507 844 b 539 925 519 874 531 903 b 547 994 553 961 553 968 b 533 1033 543 1010 538 1026 b 511 1019 526 1042 524 1042 b 396 785 494 996 444 892 b 272 450 338 658 296 546 b 261 351 253 376 251 361 z m 138 -114 b 165 -62 142 -115 153 -96 b 193 10 176 -33 189 -1 b 210 57 204 40 210 54 b 228 111 211 58 218 83 b 240 185 239 149 243 169 b 206 231 235 213 218 236 b 124 69 196 228 149 135 b 57 -121 100 7 64 -96 b 15 -296 32 -204 14 -285 b 29 -310 17 -300 22 -306 b 74 -258 42 -318 44 -315 b 114 -187 85 -237 103 -206 b 129 -150 124 -168 132 -151 b 135 -137 128 -147 131 -143 b 136 -121 142 -131 142 -126 b 138 -114 131 -114 131 -112 z "},"§":{"ha":422,"x_min":0,"x_max":0,"o":"m 85 -108 b 132 -136 110 -129 132 -142 b 140 -139 132 -135 136 -136 b 169 -147 146 -143 158 -147 b 194 -153 181 -149 192 -150 b 204 -154 196 -156 201 -156 b 238 -149 207 -151 222 -150 b 367 -60 292 -144 344 -108 b 376 13 378 -37 379 -25 b 310 199 372 75 344 151 b 296 219 303 208 296 218 b 328 221 296 221 311 222 b 378 239 357 219 361 221 b 404 319 403 264 408 285 b 264 549 393 413 354 475 b 176 660 196 603 169 636 b 240 733 181 678 229 733 b 251 740 244 733 250 736 b 344 743 254 749 307 750 b 368 722 363 739 367 736 b 389 719 369 703 386 701 b 375 764 390 726 383 746 b 329 811 363 792 356 799 b 210 815 283 833 247 835 b 126 671 157 789 126 736 b 158 582 126 644 138 613 l 172 561 l 158 536 b 140 461 146 515 142 499 b 244 203 135 374 156 321 b 314 19 319 101 333 65 b 101 -64 279 -58 178 -99 b 54 -12 81 -56 72 -47 b 33 44 43 10 33 36 b 19 40 33 65 24 63 b 85 -108 14 0 49 -81 z m 217 319 b 181 432 185 369 178 392 b 211 517 185 468 201 517 b 238 497 214 517 225 507 b 354 369 326 414 343 396 b 357 319 367 342 367 339 b 335 290 351 308 342 294 b 265 283 317 278 299 276 b 217 319 240 289 235 293 z "},"¨":{"ha":335,"x_min":0,"x_max":0,"o":"m 231 1106 b 274 1093 254 1082 263 1079 b 286 1099 278 1097 283 1100 b 288 1106 289 1097 290 1100 b 290 1111 285 1113 286 1114 b 321 1164 297 1107 321 1147 b 290 1249 321 1185 299 1244 b 213 1158 263 1264 218 1213 b 231 1106 208 1128 210 1126 z m 33 1108 b 86 1107 54 1090 69 1090 b 122 1189 111 1133 129 1175 b 107 1225 119 1194 113 1211 b 88 1263 103 1240 93 1257 b 58 1256 76 1271 75 1271 b 14 1157 32 1231 15 1194 b 33 1108 14 1126 15 1124 z "},"©":{"ha":613,"x_min":0,"x_max":0,"o":"m 188 18 b 301 24 207 13 281 17 b 361 67 331 35 365 60 b 367 69 358 71 360 72 b 376 75 372 67 376 69 b 382 83 376 79 379 83 b 436 136 394 83 426 115 b 447 150 440 146 446 151 b 457 157 450 149 454 151 b 474 183 458 164 467 175 b 488 208 482 190 488 203 b 492 217 488 215 489 218 b 504 225 493 214 499 218 b 543 300 514 238 543 293 b 554 324 543 301 549 313 b 565 358 558 335 564 350 b 571 376 565 367 568 375 b 596 525 582 385 594 456 b 547 750 599 615 588 669 b 533 796 519 806 518 808 b 542 801 544 786 544 786 b 465 875 538 822 499 861 b 403 890 450 882 422 888 b 144 736 307 897 225 847 b 14 333 49 600 14 494 b 79 99 14 225 32 158 b 188 18 100 74 164 26 z m 328 43 b 325 46 315 35 315 36 b 338 53 331 51 336 56 b 328 43 339 51 335 47 z m 101 442 b 260 722 126 535 196 657 b 358 797 294 757 347 797 b 369 804 360 797 365 800 b 429 815 376 811 385 813 b 518 742 485 818 479 822 b 558 617 549 676 554 661 b 486 303 571 507 547 404 b 267 108 422 197 347 131 b 154 114 222 97 192 99 b 86 189 118 129 90 158 b 101 442 75 267 81 364 z m 265 246 b 283 242 269 243 278 242 b 332 282 294 242 336 276 b 336 292 331 285 332 289 b 339 289 340 294 342 293 b 371 311 329 274 346 285 b 407 365 397 339 408 357 b 413 368 406 368 408 369 b 419 378 417 368 419 372 b 424 385 419 383 421 386 b 439 425 429 381 443 415 b 332 376 433 438 378 413 b 254 332 290 343 278 336 b 238 388 232 328 231 335 b 263 465 240 411 250 440 b 279 513 274 488 281 508 b 281 514 276 515 278 517 b 300 531 285 513 293 519 b 319 551 307 543 315 551 b 321 561 322 551 324 556 b 325 568 319 567 321 569 b 353 592 332 565 353 583 b 368 601 353 594 360 599 b 379 611 376 603 381 607 b 381 614 376 615 378 617 b 390 615 385 611 389 613 b 429 614 394 621 418 619 b 435 588 432 611 435 600 b 457 554 435 565 449 546 b 461 589 458 556 461 572 b 379 699 460 644 425 693 b 192 508 324 706 229 608 b 175 406 179 475 176 456 b 188 319 175 351 176 340 b 265 246 199 297 246 253 z "},"ª":{"ha":593,"x_min":0,"x_max":0,"o":"m 196 897 b 229 886 217 883 222 882 b 246 893 235 890 242 893 b 251 897 250 893 253 894 b 256 903 250 900 251 903 b 267 910 260 903 265 906 b 274 917 268 914 271 917 b 304 943 281 917 307 939 b 306 943 303 944 303 944 b 315 946 307 942 311 943 b 321 933 319 951 321 949 b 364 864 321 906 335 883 b 421 853 393 843 417 839 b 407 883 424 863 415 883 b 389 893 406 883 397 888 b 378 921 376 903 375 907 b 421 1031 381 940 396 978 b 451 1125 440 1072 453 1110 b 444 1160 451 1132 447 1147 b 356 1228 422 1225 407 1236 b 289 1189 311 1221 288 1207 b 343 1161 289 1169 303 1163 b 383 1160 361 1161 381 1160 b 367 1101 392 1160 389 1151 b 343 1078 350 1065 350 1065 b 169 1022 317 1128 204 1093 b 157 964 160 1001 157 988 b 196 897 157 928 161 919 z m 221 969 b 224 978 221 975 222 978 b 238 989 225 976 231 982 b 306 1031 253 1008 276 1022 b 336 1033 332 1039 336 1039 b 321 1022 336 1032 329 1026 b 271 992 299 1010 288 1003 b 238 971 263 986 247 976 b 221 969 221 961 221 961 z "},"¬":{"ha":889,"x_min":0,"x_max":0,"o":"m 150 301 l 228 301 b 310 308 283 303 307 304 b 317 308 313 313 314 313 b 331 306 318 306 325 304 b 435 313 346 308 411 314 b 453 318 450 313 456 314 b 460 318 450 322 451 322 b 475 315 465 315 472 314 b 518 318 478 317 497 318 b 557 322 540 319 557 321 b 607 324 557 324 579 325 b 672 328 635 324 664 325 b 686 326 682 331 688 329 b 697 328 682 321 690 321 b 683 250 706 338 700 300 b 651 111 651 147 644 118 b 661 110 658 104 667 101 b 665 114 660 111 661 114 b 721 201 678 114 711 168 b 732 243 721 206 726 224 b 732 368 743 281 743 335 b 611 403 719 401 706 406 b 497 399 567 401 515 400 b 413 393 478 397 440 394 b 358 388 383 392 360 389 b 307 383 357 388 333 385 b 125 360 150 372 131 369 b 136 315 117 347 121 329 l 150 301 z "},"®":{"ha":715,"x_min":0,"x_max":0,"o":"m 536 713 b 499 715 525 722 521 722 b 336 601 458 704 401 663 b 278 550 304 569 278 547 b 281 560 278 553 279 557 b 310 619 283 561 296 589 b 328 704 332 672 333 679 b 301 726 321 739 317 743 b 179 464 281 704 217 568 b 161 303 133 339 133 333 l 181 283 l 204 322 b 225 363 217 344 226 363 b 239 381 225 364 231 372 b 251 404 247 389 253 400 b 254 410 250 408 251 410 b 268 419 258 408 264 414 b 282 439 271 426 278 435 b 297 458 286 443 293 453 b 325 449 306 471 306 471 b 350 419 336 436 347 424 b 413 379 360 410 413 375 b 422 375 413 382 417 379 b 449 360 428 371 440 364 b 478 346 457 356 471 350 b 506 342 486 343 499 340 b 522 363 517 343 521 347 b 440 450 525 388 493 422 b 400 475 418 463 400 474 b 488 526 400 478 413 485 b 547 581 514 540 547 571 b 556 597 547 585 551 592 b 563 643 563 604 564 614 b 536 713 558 683 554 696 z m 454 590 b 411 565 443 583 422 572 b 406 572 385 549 381 556 b 419 588 415 578 421 586 b 422 592 418 590 419 592 b 471 622 429 590 471 617 b 482 628 471 625 475 628 b 497 633 488 628 494 631 b 507 639 499 636 504 639 b 454 590 518 639 479 603 z m 638 372 b 658 426 646 394 656 419 b 676 488 661 432 669 460 b 638 793 701 590 682 747 b 610 831 628 803 614 821 b 454 904 585 878 528 904 b 92 672 304 903 181 824 b 22 376 44 593 14 467 b 139 154 28 289 65 219 b 232 97 185 115 204 103 b 258 89 242 96 254 92 b 363 93 271 83 349 86 b 389 101 374 100 378 101 b 392 106 392 101 394 103 b 401 111 390 108 394 111 b 497 178 419 113 493 164 b 506 186 499 183 503 188 b 536 213 508 185 522 196 b 571 254 550 229 565 247 b 613 332 589 272 617 326 b 615 333 610 335 611 335 b 638 372 619 331 628 344 z m 506 294 b 307 183 438 229 356 183 b 288 175 297 183 289 179 b 283 175 285 171 283 171 b 250 185 283 178 268 182 b 92 296 188 190 124 235 b 81 376 79 318 78 325 b 133 578 85 450 101 514 b 289 757 169 651 238 729 b 307 768 297 761 306 765 b 392 803 314 776 392 808 b 404 808 392 803 397 804 b 444 818 410 811 428 815 b 478 825 460 819 475 822 b 536 828 483 828 510 829 b 588 781 539 826 563 806 b 651 618 643 726 651 701 b 636 515 651 576 649 553 b 506 294 608 426 564 350 z "}}}
